<?xml version="1.0" standalone="no"?>
<!DOCTYPE svg PUBLIC "-//W3C//DTD SVG 20010904//EN"
 "http://www.w3.org/TR/2001/REC-SVG-20010904/DTD/svg10.dtd">
<svg version="1.0" xmlns="http://www.w3.org/2000/svg"
 width="2150.000000pt" height="1075.000000pt" viewBox="0 0 2150.000000 1075.000000"
 preserveAspectRatio="xMidYMid meet">

<g transform="translate(0.000000,1075.000000) scale(0.100000,-0.100000)"
fill="#000000" stroke="none">
<path d="M18440 9676 c-185 -62 -346 -118 -358 -125 -24 -13 -28 -38 -9 -62 7
-8 83 -62 170 -118 86 -57 157 -105 157 -107 0 -5 -4035 -4752 -4070 -4788
l-28 -29 -29 20 c-63 45 -179 57 -250 28 -20 -9 -40 -12 -44 -8 -5 5 -332 654
-728 1443 l-720 1434 28 43 c99 148 43 362 -114 438 -63 30 -169 32 -234 5
-65 -29 -134 -103 -156 -171 -25 -75 -18 -179 18 -248 28 -53 28 -53 9 -75
-11 -11 -392 -460 -847 -996 -455 -536 -836 -984 -846 -994 -18 -20 -19 -19
-56 18 -140 142 -381 101 -459 -77 -10 -23 -19 -44 -21 -46 -1 -2 -192 29
-423 70 l-420 74 0 32 c0 52 -39 143 -82 189 -105 114 -289 119 -401 10 -66
-65 -82 -108 -82 -216 0 -104 14 -145 73 -208 l29 -31 -724 -953 c-399 -524
-731 -961 -738 -972 -13 -17 -16 -18 -61 -2 -111 38 -233 9 -305 -71 l-37 -40
-933 786 -934 787 -6 71 c-8 86 -35 149 -86 200 -55 55 -106 76 -189 81 -93 5
-157 -21 -218 -89 -53 -59 -76 -121 -76 -204 0 -70 12 -112 48 -169 l24 -39
-1556 -1556 c-856 -856 -1556 -1564 -1556 -1573 0 -22 27 -48 51 -48 11 0 23
-10 28 -24 12 -29 34 -38 64 -26 12 5 733 596 1602 1313 l1580 1304 37 -27
c50 -36 115 -53 185 -48 70 5 125 30 174 79 l37 37 822 -823 823 -823 -36 -42
c-50 -59 -70 -124 -65 -213 9 -170 136 -286 301 -275 75 5 128 29 180 81 80
80 107 204 67 312 -12 33 -22 67 -23 76 -2 17 1520 1842 1531 1836 66 -35 93
-42 167 -42 60 0 90 5 120 20 57 28 120 97 141 153 9 26 20 50 23 54 3 3 143
-18 311 -48 168 -29 308 -54 311 -54 4 0 9 -28 11 -63 10 -161 141 -276 301
-265 153 10 260 127 262 283 0 39 -4 86 -8 106 l-9 35 938 815 c516 448 948
822 961 832 21 17 23 17 66 -16 57 -44 121 -61 201 -55 l63 5 216 -686 c120
-377 237 -747 261 -821 58 -175 486 -1525 486 -1531 0 -3 -24 -30 -54 -60 -68
-71 -90 -131 -84 -232 9 -170 136 -286 301 -275 75 5 128 29 180 81 104 104
114 279 23 399 l-34 45 2181 2181 c1200 1200 2186 2182 2190 2182 5 0 71 -52
148 -115 149 -122 180 -138 207 -111 15 15 17 58 20 392 3 344 2 378 -14 395
-10 11 -30 19 -47 19 -31 0 -655 -132 -714 -151 -27 -9 -33 -16 -33 -39 0 -25
22 -47 173 -170 94 -78 173 -145 175 -149 1 -3 -982 -990 -2185 -2193 l-2188
-2187 -74 7 -75 7 -253 800 c-139 440 -275 870 -303 955 -28 85 -133 414 -233
731 l-183 575 38 48 c119 150 70 380 -97 461 -63 30 -169 32 -234 5 -64 -28
-133 -102 -155 -167 -18 -51 -21 -158 -7 -196 9 -24 -37 -65 -922 -833 -512
-445 -946 -822 -964 -837 l-32 -28 -43 29 c-59 39 -100 52 -172 52 -80 0 -148
-32 -204 -95 -23 -26 -42 -52 -42 -56 0 -5 -10 -9 -22 -9 -31 1 -624 107 -636
114 -5 3 -13 21 -16 39 -14 76 -100 166 -185 195 -58 20 -150 15 -206 -12 -64
-29 -129 -102 -151 -168 -20 -62 -16 -178 9 -227 9 -19 17 -38 17 -42 0 -7
-1472 -1772 -1521 -1823 -17 -19 -18 -19 -56 0 -28 14 -62 19 -127 20 l-89 2
-841 841 -841 841 0 82 c0 98 -22 155 -82 215 -55 55 -106 76 -189 81 -93 5
-157 -21 -219 -90 -58 -65 -79 -128 -72 -221 3 -40 8 -84 12 -98 7 -27 59 16
-2340 -1958 l-720 -593 1499 1500 1499 1500 44 -15 c56 -19 154 -13 208 12 22
11 60 41 85 67 l46 47 929 -784 930 -783 5 -83 c9 -138 78 -237 192 -275 62
-20 157 -15 213 11 53 26 112 87 138 144 34 72 31 188 -6 263 -18 36 -25 63
-20 71 4 8 339 449 742 981 l735 967 57 -7 c111 -12 230 50 280 148 14 28 25
38 37 34 9 -3 199 -37 422 -76 223 -40 408 -77 412 -83 4 -7 8 -21 8 -32 0
-34 45 -118 81 -153 61 -60 104 -77 199 -77 68 0 93 5 125 22 99 53 158 152
159 266 l1 68 868 1022 c478 562 875 1028 882 1036 11 11 21 11 65 -4 49 -16
85 -17 199 -3 22 3 74 -98 747 -1438 l724 -1441 -27 -54 c-25 -47 -28 -64 -28
-144 0 -76 4 -97 25 -139 32 -62 98 -120 162 -142 62 -20 157 -15 213 11 130
63 196 226 148 367 l-20 58 2030 2387 c1116 1314 2042 2403 2058 2421 l29 32
176 -115 c97 -64 189 -118 203 -121 43 -8 56 9 54 65 -5 121 -64 695 -73 712
-12 21 -42 39 -62 38 -7 0 -164 -51 -348 -113z"/>
</g>
</svg>
