<?xml version="1.0" encoding="UTF-8" ?>
<!DOCTYPE svg PUBLIC "-//W3C//DTD SVG 1.1//EN" "http://www.w3.org/Graphics/SVG/1.1/DTD/svg11.dtd">
<svg width="1756pt" height="756pt" viewBox="0 0 1756 756" version="1.1" xmlns="http://www.w3.org/2000/svg">
<g id="#fefefeff">
<path fill="#fefefe" opacity="1.00" d=" M 1039.36 672.07 C 1040.07 671.85 1040.80 671.63 1041.54 671.43 C 1041.88 679.51 1041.77 687.64 1041.46 695.73 C 1040.89 695.75 1039.76 695.79 1039.19 695.81 C 1039.35 687.90 1039.35 679.99 1039.36 672.07 Z" />
</g>
<g id="#1b2c46ff">
<path fill="#1b2c46" opacity="1.00" d=" M 165.30 15.46 C 190.23 11.18 215.74 9.69 240.97 11.95 C 254.83 13.05 268.72 14.96 282.02 19.15 C 300.32 24.94 317.88 32.94 334.46 42.59 C 336.13 43.48 337.84 44.74 339.84 44.27 C 339.93 37.10 341.54 30.07 342.06 22.93 C 342.14 21.24 342.39 19.57 342.84 17.94 C 365.63 18.00 388.42 18.21 411.21 18.10 C 411.73 21.37 411.27 24.68 411.14 27.96 C 409.75 54.65 407.84 81.30 407.04 108.01 C 406.10 141.01 406.70 174.02 406.66 207.03 C 406.84 218.74 406.22 230.46 406.85 242.16 C 395.57 242.46 384.29 242.04 373.01 242.17 C 361.30 242.12 349.59 242.57 337.88 242.45 C 337.38 237.30 337.03 232.13 336.87 226.95 C 335.67 216.68 334.21 206.45 332.63 196.23 C 330.48 180.65 325.58 165.61 320.08 150.92 C 312.00 129.69 298.39 110.29 279.98 96.80 C 265.95 86.59 248.35 81.65 231.07 82.54 C 217.28 83.08 202.70 86.70 192.53 96.57 C 183.53 105.25 179.25 117.77 178.59 130.06 C 178.59 144.28 181.89 158.91 190.32 170.59 C 196.40 180.33 205.32 187.75 213.93 195.15 C 227.79 206.12 242.50 215.93 257.06 225.94 C 273.51 236.75 289.68 248.00 305.88 259.20 C 311.76 263.12 318.02 266.58 323.54 270.96 C 318.10 272.22 312.48 271.37 306.96 271.59 C 252.96 271.99 198.96 270.90 144.96 271.01 C 119.64 271.04 94.33 270.93 69.02 271.07 C 62.45 271.01 55.84 271.81 49.31 270.85 C 47.39 269.31 46.46 266.93 45.08 264.97 C 31.15 243.48 22.52 218.58 20.51 193.03 C 19.06 171.92 19.67 150.35 25.49 129.87 C 33.97 98.61 53.53 70.78 79.25 51.25 C 104.07 31.80 134.69 21.49 165.30 15.46 Z" />
<path fill="#1b2c46" opacity="1.00" d=" M 576.13 17.92 C 577.33 17.54 578.57 17.44 579.84 17.61 C 607.23 20.98 635.15 21.12 662.46 16.98 C 664.28 19.61 665.13 22.71 666.34 25.63 C 698.10 107.68 729.91 189.72 761.96 271.64 C 730.29 271.94 698.63 271.26 666.97 271.19 C 642.31 271.21 617.66 271.07 593.01 271.38 C 588.03 271.38 583.04 271.89 578.07 271.34 C 574.01 259.96 570.07 248.52 565.67 237.28 C 565.45 237.28 564.99 237.29 564.76 237.29 C 560.28 248.46 556.64 259.96 551.86 271.01 C 526.81 271.89 501.73 271.14 476.68 271.82 C 480.48 264.50 482.98 256.61 485.99 248.96 C 516.15 171.99 546.19 94.97 576.13 17.92 Z" />
<path fill="#1b2c46" opacity="1.00" d=" M 1007.10 17.90 C 1013.09 17.34 1019.01 19.23 1025.02 19.07 C 1047.99 21.05 1071.07 19.89 1093.96 17.53 L 1094.67 18.01 C 1102.58 39.98 1111.42 61.60 1119.70 83.44 C 1136.91 127.81 1154.20 172.16 1171.42 216.53 C 1178.77 234.76 1185.38 253.28 1192.99 271.40 C 1183.64 272.06 1174.26 271.60 1164.90 271.61 C 1131.26 271.43 1097.63 270.93 1063.99 271.22 C 1045.72 271.10 1027.43 271.63 1009.19 271.06 C 1005.52 260.67 1001.31 250.48 997.96 239.98 C 997.40 238.67 996.93 237.30 996.07 236.16 C 991.71 247.77 987.46 259.43 983.11 271.05 C 958.12 271.44 933.12 271.08 908.13 271.80 C 941.20 187.21 974.22 102.57 1007.10 17.90 Z" />
<path fill="#1b2c46" opacity="1.00" d=" M 1220.83 20.40 C 1230.84 20.07 1240.93 20.93 1250.98 20.92 C 1266.34 20.89 1281.67 22.03 1297.04 21.98 C 1318.02 21.96 1339.00 22.56 1359.97 22.94 C 1443.66 23.35 1527.35 23.44 1611.03 22.82 C 1639.65 21.93 1668.30 22.30 1696.92 21.21 C 1712.08 21.00 1727.24 20.45 1742.40 20.19 C 1741.04 43.50 1738.82 66.75 1737.81 90.08 C 1736.35 115.34 1735.11 140.63 1734.72 165.94 C 1734.48 196.81 1736.84 227.64 1739.82 258.34 C 1717.21 257.98 1694.58 258.02 1671.97 258.29 L 1671.39 257.82 C 1667.09 236.77 1662.75 215.71 1657.13 194.96 C 1650.51 171.64 1642.95 148.06 1629.19 127.84 C 1621.24 115.65 1610.28 105.15 1596.90 99.17 C 1587.84 94.83 1577.95 92.45 1567.94 91.89 C 1566.95 104.57 1566.96 117.29 1567.02 130.01 C 1566.88 177.06 1566.91 224.11 1567.30 271.16 C 1543.19 271.13 1519.09 270.51 1494.99 270.68 C 1461.65 270.94 1428.32 270.81 1394.99 271.29 C 1395.50 211.39 1394.80 151.48 1395.23 91.59 C 1377.81 93.07 1360.12 99.03 1347.46 111.51 C 1333.32 126.17 1323.91 144.64 1316.70 163.51 C 1305.03 194.10 1298.70 226.31 1291.88 258.22 C 1269.11 258.45 1246.33 258.07 1223.56 258.70 C 1225.18 236.14 1228.13 213.65 1228.10 190.99 C 1228.57 175.02 1228.27 159.04 1227.99 143.07 C 1228.18 133.69 1226.76 124.36 1226.93 114.98 C 1226.13 99.95 1225.60 84.91 1224.66 69.89 C 1223.02 53.42 1222.32 36.88 1220.83 20.40 Z" />
<path fill="#1b2c46" opacity="1.00" d=" M 19.11 408.07 C 43.24 408.20 67.38 407.99 91.50 408.40 C 93.16 412.70 93.13 417.51 94.09 422.02 C 96.85 436.31 99.81 450.62 104.62 464.39 C 108.51 476.97 114.25 488.89 120.62 500.38 C 126.93 510.73 134.51 520.60 144.46 527.69 C 157.87 538.33 175.31 542.25 192.06 543.37 C 202.76 544.76 213.62 543.34 224.06 540.88 C 238.24 537.36 251.99 529.08 259.16 515.99 C 264.17 507.56 265.01 497.56 265.93 488.02 C 265.52 474.86 263.54 461.40 257.47 449.55 C 250.77 435.99 239.61 425.40 228.61 415.32 C 225.91 412.60 221.91 411.37 219.79 408.10 C 262.50 408.28 305.24 407.92 347.96 408.10 C 397.65 408.27 447.35 407.79 497.04 408.32 C 497.58 408.41 498.66 408.59 499.20 408.68 C 494.89 418.21 491.39 428.08 487.83 437.91 C 479.82 459.08 471.98 480.54 468.82 503.06 C 467.49 511.49 466.00 521.21 471.38 528.57 C 477.98 534.66 487.42 535.71 495.94 536.94 C 508.71 538.64 521.62 538.84 534.47 539.45 C 534.54 539.84 534.68 540.62 534.75 541.00 C 534.91 563.05 534.69 585.10 534.96 607.15 C 534.22 607.22 532.75 607.38 532.01 607.45 C 519.75 606.80 507.45 607.04 495.19 606.14 C 483.11 606.12 471.07 604.98 458.99 605.03 C 434.64 604.75 410.28 604.69 385.93 605.00 C 367.52 605.28 349.20 607.27 330.94 609.49 C 330.95 605.30 331.03 601.11 331.24 596.93 C 325.82 599.32 319.98 600.52 314.42 602.52 C 287.91 611.63 259.90 615.66 231.98 616.77 C 200.15 617.55 167.82 615.40 137.32 605.68 C 119.86 600.44 103.15 593.04 86.89 584.84 C 84.55 593.39 84.94 602.66 82.13 611.08 C 59.41 610.95 36.69 611.06 13.97 611.03 C 14.29 597.38 16.06 583.78 16.14 570.11 C 17.59 555.13 16.35 540.03 17.75 525.05 C 18.59 488.39 17.67 451.72 18.56 415.06 C 18.59 412.72 18.77 410.38 19.11 408.07 Z" />
<path fill="#1b2c46" opacity="1.00" d=" M 628.05 408.20 C 684.70 407.86 741.34 408.01 797.99 408.16 C 803.53 408.32 809.10 408.01 814.63 408.53 C 814.82 408.75 815.20 409.20 815.40 409.42 C 818.89 418.38 822.23 427.41 825.70 436.39 C 828.11 442.72 831.21 448.84 832.67 455.50 C 832.96 456.84 833.41 458.18 834.29 459.27 C 838.23 451.56 841.05 443.36 844.33 435.36 C 847.61 426.95 850.93 418.55 853.91 410.03 C 854.31 408.13 856.38 408.03 857.95 408.13 C 881.93 408.05 905.91 407.93 929.89 408.30 C 929.00 411.98 927.21 415.33 925.90 418.86 C 920.50 432.93 915.45 447.13 910.33 461.30 C 904.58 478.05 900.33 495.40 898.52 513.04 C 898.65 519.31 899.10 527.19 905.14 530.79 C 913.37 536.03 923.52 536.28 932.90 537.67 C 943.78 538.53 954.69 539.12 965.61 539.43 C 966.27 562.13 965.63 584.88 966.11 607.59 C 955.43 606.89 944.72 607.04 934.02 606.75 C 924.37 606.09 914.67 605.95 905.02 605.97 C 901.57 607.69 897.67 606.88 893.98 607.03 C 850.13 607.26 805.94 602.81 762.38 609.69 C 762.20 608.15 762.02 606.61 761.83 605.09 C 714.83 604.58 667.75 604.53 620.86 608.08 C 619.70 604.15 620.40 600.01 620.26 595.99 C 620.12 577.98 620.21 559.97 620.12 541.96 C 620.10 540.88 620.35 539.87 620.85 538.91 C 637.86 539.24 654.87 537.54 671.75 535.54 C 671.92 535.19 672.25 534.49 672.42 534.14 C 671.90 529.07 670.06 524.26 668.73 519.37 C 661.98 499.95 654.75 480.70 647.65 461.40 C 641.13 443.66 634.74 425.88 628.05 408.20 Z" />
<path fill="#1b2c46" opacity="1.00" d=" M 1059.46 407.97 C 1120.31 408.29 1181.17 407.69 1242.02 408.40 C 1243.64 408.54 1246.23 407.93 1246.75 410.12 C 1257.70 439.65 1269.48 468.86 1280.75 498.27 C 1285.11 508.77 1289.02 519.74 1296.28 528.68 C 1299.39 532.52 1302.90 536.80 1308.00 537.87 C 1315.64 538.78 1323.32 537.57 1330.99 537.81 C 1343.30 538.06 1355.62 537.77 1367.88 536.56 C 1373.50 535.80 1379.24 535.33 1384.66 533.51 C 1387.30 532.54 1390.35 531.31 1391.39 528.43 C 1393.86 521.23 1394.27 513.57 1394.76 506.03 C 1395.49 474.70 1394.85 443.37 1394.97 412.04 C 1395.13 410.70 1394.43 408.86 1395.90 408.04 C 1451.27 408.27 1506.64 408.13 1562.02 408.31 C 1563.74 408.29 1565.50 408.46 1567.25 408.68 C 1567.07 435.12 1566.91 461.57 1567.29 488.01 C 1567.93 499.92 1568.09 511.94 1570.41 523.69 C 1571.51 526.86 1571.59 531.38 1575.41 532.57 C 1585.00 536.79 1595.74 536.60 1605.98 537.79 C 1619.36 538.27 1632.75 538.54 1646.14 539.11 C 1647.84 538.83 1648.25 540.68 1648.13 541.98 C 1648.28 563.37 1648.34 584.78 1648.12 606.17 C 1620.43 606.07 1592.76 604.86 1565.07 604.97 C 1510.72 603.46 1456.34 604.61 1401.99 605.12 C 1387.66 605.71 1373.33 605.81 1359.01 606.12 C 1340.34 607.01 1321.64 607.51 1302.96 606.73 C 1292.03 605.58 1281.01 606.16 1270.07 605.27 C 1240.05 604.66 1210.02 604.82 1179.99 604.80 C 1153.01 604.94 1126.01 604.51 1099.05 605.71 C 1083.06 605.93 1067.12 607.21 1051.14 607.88 C 1050.74 584.98 1050.93 562.06 1051.12 539.16 C 1067.47 538.98 1083.83 537.94 1100.06 535.87 C 1101.21 535.60 1104.17 535.88 1103.60 533.88 C 1101.54 523.29 1097.57 513.20 1093.91 503.09 C 1086.16 481.35 1077.95 459.78 1070.13 438.07 C 1066.70 427.99 1062.29 418.21 1059.46 407.97 Z" />
<path fill="#1b2c46" opacity="1.00" d=" M 1168.29 628.24 C 1172.24 626.08 1177.23 626.27 1181.05 628.64 C 1184.72 628.50 1188.40 627.60 1192.15 627.99 C 1192.40 629.81 1192.42 631.86 1191.34 633.45 C 1190.25 635.47 1187.50 635.49 1186.19 637.27 C 1185.59 638.07 1184.81 638.62 1183.85 638.92 C 1185.86 639.58 1187.93 639.94 1190.06 640.04 C 1190.68 650.33 1190.41 660.71 1191.94 670.94 C 1193.23 679.55 1194.35 688.20 1195.13 696.88 C 1191.03 697.12 1186.93 696.86 1182.84 696.94 C 1182.02 693.87 1182.46 690.60 1181.27 687.62 C 1179.72 687.79 1177.66 686.94 1176.62 688.51 C 1175.86 691.29 1176.33 694.33 1175.09 697.01 C 1171.62 697.16 1168.16 697.22 1164.71 697.01 C 1165.72 685.34 1165.99 673.60 1167.87 662.01 C 1168.21 654.53 1168.70 647.05 1168.93 639.55 C 1173.50 639.64 1178.43 640.92 1182.76 638.92 C 1182.42 638.07 1182.10 637.22 1181.79 636.38 C 1176.96 634.61 1171.90 635.25 1166.96 635.98 C 1166.65 633.30 1166.96 630.62 1168.29 628.24 M 1178.15 670.98 C 1178.06 673.09 1176.67 676.33 1179.08 677.62 C 1181.57 676.24 1180.27 673.16 1179.97 671.01 C 1178.57 665.75 1179.77 660.30 1179.20 654.97 C 1177.16 660.04 1179.65 665.73 1178.15 670.98 Z" />
<path fill="#1b2c46" opacity="1.00" d=" M 324.30 641.15 C 329.55 639.83 335.21 640.21 340.40 641.52 C 344.05 645.76 345.49 651.65 344.98 657.16 C 344.78 659.91 341.42 658.66 339.67 658.45 C 335.04 658.14 333.14 653.23 328.98 651.87 C 328.91 655.25 332.32 656.53 334.21 658.77 C 339.29 664.80 345.76 670.73 346.55 679.06 C 347.45 683.66 344.38 687.61 342.68 691.63 C 339.75 697.41 332.13 698.01 326.53 696.53 C 318.17 693.66 315.47 682.94 318.09 675.22 C 321.56 673.32 325.39 674.42 328.74 675.99 C 329.06 676.59 329.69 677.78 330.01 678.38 C 330.97 680.52 329.67 685.02 332.92 685.00 C 334.07 683.34 334.26 680.78 332.69 679.33 C 329.83 676.44 327.87 672.83 324.97 669.98 C 321.81 665.60 317.98 661.15 317.48 655.55 C 316.56 649.99 319.19 643.74 324.30 641.15 Z" />
<path fill="#1b2c46" opacity="1.00" d=" M 634.39 640.72 C 645.55 640.02 656.81 641.20 667.99 640.35 C 673.53 640.44 679.07 640.35 684.62 640.46 C 684.47 644.25 684.60 648.05 684.67 651.85 C 681.52 652.11 678.24 651.41 675.19 652.24 C 673.65 654.50 674.45 657.44 674.09 660.01 C 677.02 662.09 680.94 660.92 684.30 661.73 C 683.73 665.61 685.16 670.05 683.66 673.60 C 680.71 673.75 677.76 673.56 674.82 673.67 C 674.24 677.06 674.18 680.50 674.28 683.93 C 677.85 684.98 681.63 684.42 685.31 684.73 C 685.69 688.72 685.11 692.74 685.41 696.75 C 677.64 697.13 669.83 696.76 662.05 696.81 C 661.89 696.52 661.57 695.93 661.41 695.64 C 661.23 677.57 661.89 659.48 662.28 641.42 L 660.99 641.38 C 660.78 644.50 660.91 647.64 660.51 650.74 C 658.95 652.13 656.55 651.58 654.65 651.80 C 653.77 666.82 654.66 681.89 654.43 696.93 C 649.98 696.94 645.53 696.75 641.08 696.87 C 641.11 681.94 640.94 667.00 641.00 652.07 C 638.84 652.01 636.67 651.90 634.69 650.99 C 634.49 647.56 634.39 644.14 634.39 640.72 Z" />
<path fill="#1b2c46" opacity="1.00" d=" M 687.58 640.36 C 691.63 640.39 695.70 640.09 699.75 640.37 C 701.43 646.54 701.01 653.11 702.21 659.39 C 703.64 653.09 702.94 646.61 703.80 640.25 C 707.52 640.15 711.24 640.27 714.97 640.24 C 715.91 659.19 715.00 678.17 715.37 697.13 C 711.56 697.10 707.76 697.13 703.96 696.85 C 702.69 690.01 702.57 682.94 700.57 676.27 C 700.92 683.11 700.36 690.01 699.96 696.87 C 695.82 697.15 691.67 697.04 687.53 697.09 C 687.17 691.71 687.89 686.37 687.97 681.01 C 687.91 667.46 688.26 653.90 687.58 640.36 Z" />
<path fill="#1b2c46" opacity="1.00" d=" M 720.30 640.24 C 726.83 640.21 733.36 640.41 739.90 640.57 C 741.41 640.49 742.83 641.03 744.14 641.77 C 745.36 644.50 747.32 647.02 747.44 650.12 C 748.21 659.04 747.78 668.00 747.90 676.94 C 747.81 680.63 747.86 684.34 747.29 688.00 C 746.30 690.87 744.46 693.36 742.74 695.84 C 735.45 697.11 728.04 696.85 720.68 697.03 C 720.02 690.72 720.48 684.38 720.44 678.06 C 720.64 665.45 720.11 652.85 720.30 640.24 M 732.04 651.16 C 731.12 662.80 731.61 674.49 731.81 686.15 C 733.22 685.93 734.62 685.56 735.94 684.98 C 736.25 673.75 736.76 662.46 735.92 651.25 C 734.62 651.21 733.33 651.18 732.04 651.16 Z" />
<path fill="#1b2c46" opacity="1.00" d=" M 751.10 640.09 C 755.23 640.47 759.54 639.85 763.56 640.62 C 764.07 659.29 763.33 677.99 763.57 696.66 C 759.33 696.88 755.08 696.79 750.84 696.92 C 751.25 677.98 751.06 659.02 751.10 640.09 Z" />
<path fill="#1b2c46" opacity="1.00" d=" M 766.74 640.59 C 772.40 639.96 778.20 640.60 783.91 640.78 C 784.48 646.23 785.85 651.56 786.27 657.04 C 786.75 661.64 786.48 666.28 786.92 670.90 C 787.40 666.50 789.23 662.35 789.35 657.90 C 789.70 652.25 790.11 646.59 791.19 641.02 C 791.46 640.85 791.99 640.51 792.26 640.33 C 798.18 640.59 804.34 640.13 810.13 640.91 C 809.57 657.92 810.10 674.95 809.90 691.97 C 809.59 693.52 810.43 695.66 809.06 696.81 C 805.17 696.96 801.27 696.69 797.39 696.78 C 797.18 689.45 798.89 682.05 797.45 674.80 C 795.85 681.87 794.62 689.11 794.25 696.36 C 789.93 697.01 785.56 696.73 781.22 696.80 C 780.20 688.54 780.20 679.91 776.88 672.14 C 776.03 680.35 776.45 688.61 776.28 696.85 C 772.95 697.11 769.61 697.12 766.31 696.67 C 766.77 677.98 766.52 659.28 766.74 640.59 Z" />
<path fill="#1b2c46" opacity="1.00" d=" M 946.90 640.79 C 953.62 640.15 960.43 640.59 967.17 640.82 C 969.91 659.34 971.27 678.11 971.96 696.83 C 968.31 697.03 964.65 696.95 961.01 696.72 C 960.79 693.64 960.83 690.55 960.46 687.48 C 958.82 687.43 957.19 687.46 955.58 687.56 C 954.89 690.55 954.81 693.62 954.74 696.68 C 950.36 696.94 945.97 696.58 941.59 696.50 C 943.25 684.08 944.80 671.63 945.30 659.11 C 946.07 653.02 945.65 646.82 946.90 640.79 M 956.90 669.16 C 956.26 672.34 956.15 675.60 956.35 678.85 C 960.03 677.15 959.15 672.88 959.20 669.62 C 958.62 669.50 957.48 669.27 956.90 669.16 Z" />
<path fill="#1b2c46" opacity="1.00" d=" M 972.51 640.42 C 989.46 640.73 1006.40 640.50 1023.35 640.53 C 1023.31 644.28 1023.31 648.03 1023.12 651.78 C 1019.42 651.74 1015.71 651.59 1012.03 651.98 C 1012.15 655.06 1011.30 658.49 1012.50 661.37 C 1015.91 662.40 1019.63 661.56 1023.16 661.52 C 1023.30 665.58 1023.31 669.64 1023.45 673.70 C 1019.61 673.72 1015.72 673.02 1011.94 673.88 C 1011.88 677.52 1011.93 681.16 1012.21 684.80 C 1016.07 685.33 1019.96 684.86 1023.78 684.21 C 1023.72 688.32 1024.47 692.66 1023.73 696.64 C 1016.22 697.27 1008.45 696.35 1000.85 696.90 C 1000.43 695.64 1000.19 694.33 1000.31 693.02 C 1000.50 683.01 1000.16 673.00 1000.20 662.98 C 1000.06 658.58 1000.40 654.16 999.76 649.80 C 999.45 647.41 999.30 645.01 999.20 642.62 C 998.79 642.55 997.97 642.41 997.55 642.33 C 997.48 644.42 997.41 646.51 997.36 648.60 C 997.93 648.89 999.08 649.46 999.65 649.74 C 997.10 650.98 994.35 651.67 991.52 651.70 C 991.86 663.12 991.64 674.55 991.70 685.98 C 991.60 689.64 991.89 693.34 991.20 696.96 C 987.23 696.89 983.27 696.88 979.31 696.73 C 978.92 681.78 978.96 666.82 978.98 651.88 C 977.59 651.87 976.20 651.87 974.84 651.88 C 971.73 649.03 973.38 644.17 972.51 640.42 Z" />
<path fill="#1b2c46" opacity="1.00" d=" M 1056.57 640.57 C 1062.76 640.13 1068.98 640.63 1075.19 640.74 C 1076.09 650.49 1076.47 660.36 1078.44 669.95 C 1078.02 667.51 1078.54 665.13 1079.41 662.86 C 1080.64 656.66 1080.96 650.31 1081.21 644.01 C 1081.40 642.74 1080.89 640.27 1082.96 640.44 C 1089.03 640.31 1095.11 640.67 1101.19 640.80 C 1101.56 659.58 1100.62 678.35 1100.38 697.12 C 1096.39 697.04 1092.41 696.89 1088.43 696.92 C 1088.19 688.52 1088.77 680.13 1088.61 671.74 C 1087.39 673.16 1087.57 675.17 1087.17 676.90 C 1086.31 683.25 1085.33 689.60 1084.79 695.99 C 1084.61 696.18 1084.24 696.56 1084.06 696.75 C 1080.38 697.18 1076.66 696.92 1072.98 696.80 C 1072.93 692.15 1072.23 687.52 1071.61 682.92 C 1068.86 675.70 1069.39 667.82 1069.64 660.27 C 1068.56 660.76 1068.21 661.80 1068.48 662.95 C 1069.59 674.31 1066.87 685.61 1067.29 696.98 C 1063.62 696.94 1059.96 696.92 1056.30 696.91 C 1057.02 684.93 1056.39 672.94 1056.50 660.96 C 1056.70 654.17 1056.46 647.37 1056.57 640.57 Z" />
<path fill="#1b2c46" opacity="1.00" d=" M 1136.57 647.66 C 1137.62 643.52 1141.57 640.17 1145.95 640.55 C 1150.53 640.75 1155.47 639.98 1159.67 642.27 C 1163.52 648.61 1163.32 656.43 1163.53 663.58 C 1159.91 663.99 1156.02 664.19 1152.45 663.57 C 1150.32 660.14 1151.63 655.77 1151.13 651.96 C 1150.34 651.21 1149.31 649.83 1148.34 651.17 C 1147.54 662.83 1147.61 674.59 1148.58 686.24 C 1149.01 686.30 1149.86 686.40 1150.29 686.46 C 1152.09 681.90 1151.01 676.86 1151.37 672.09 C 1155.75 671.83 1160.13 671.97 1164.52 671.86 C 1164.43 677.45 1163.87 683.03 1163.38 688.59 C 1161.67 692.41 1158.39 695.78 1154.08 696.44 C 1153.64 700.31 1158.29 702.25 1158.19 706.04 C 1158.69 709.06 1157.26 711.88 1155.74 714.38 C 1150.78 715.32 1145.55 715.28 1140.73 713.71 C 1139.35 711.94 1140.73 709.86 1140.92 707.97 C 1143.52 706.92 1147.15 707.41 1148.96 705.02 C 1149.06 701.59 1147.29 697.28 1143.73 696.25 C 1141.97 695.60 1140.22 694.95 1138.49 694.28 C 1134.22 685.51 1135.33 675.47 1135.16 666.04 C 1135.06 659.89 1134.99 653.64 1136.57 647.66 Z" />
<path fill="#1b2c46" opacity="1.00" d=" M 1297.38 640.35 C 1301.44 640.12 1305.52 640.34 1309.59 640.48 C 1310.75 646.72 1309.81 653.52 1310.13 659.98 C 1310.63 672.24 1309.68 684.48 1309.46 696.74 C 1305.60 697.21 1301.74 697.04 1297.90 696.63 C 1293.26 696.98 1288.62 697.05 1283.99 696.82 C 1283.41 688.19 1284.32 679.43 1283.13 670.88 C 1282.58 670.99 1281.48 671.20 1280.93 671.31 C 1280.52 679.83 1280.93 688.40 1280.11 696.89 C 1276.46 696.84 1272.81 696.78 1269.17 696.73 C 1268.76 682.15 1269.10 667.55 1268.86 652.97 C 1267.75 648.90 1269.08 644.71 1268.26 640.61 C 1275.48 640.19 1282.72 640.54 1289.95 640.64 C 1291.47 640.39 1292.38 641.70 1293.29 642.67 C 1294.54 645.41 1296.78 647.88 1296.61 651.08 C 1296.71 655.55 1296.75 660.02 1296.77 664.49 C 1296.03 664.65 1294.56 664.97 1293.82 665.13 C 1294.67 666.33 1295.61 667.48 1296.25 668.83 C 1296.72 677.89 1296.23 687.00 1296.84 696.04 L 1298.36 696.43 C 1298.43 677.72 1297.57 659.04 1297.38 640.35 M 1281.28 652.27 C 1281.33 654.97 1279.86 658.13 1281.52 660.52 C 1285.46 660.29 1285.92 655.22 1284.64 652.34 C 1283.50 652.31 1282.38 652.29 1281.28 652.27 Z" />
<path fill="#1b2c46" opacity="1.00" d=" M 1376.07 640.30 C 1384.03 640.61 1392.05 640.16 1399.99 640.78 C 1399.34 644.24 1399.46 647.77 1399.40 651.28 C 1395.54 651.32 1391.69 651.38 1387.88 651.91 C 1387.77 654.98 1387.76 658.06 1387.84 661.14 C 1391.70 662.01 1395.66 661.55 1399.58 661.60 C 1399.70 665.52 1399.69 669.45 1399.57 673.37 C 1395.68 673.47 1391.73 672.86 1387.94 673.87 C 1388.00 677.44 1387.38 681.14 1388.20 684.65 C 1392.24 685.76 1396.47 684.93 1400.53 684.29 C 1400.64 688.44 1400.24 692.59 1400.63 696.74 C 1392.45 697.13 1384.25 696.73 1376.06 696.86 C 1376.05 678.01 1375.98 659.15 1376.07 640.30 Z" />
<path fill="#1b2c46" opacity="1.00" d=" M 348.11 640.65 C 365.18 640.31 382.29 640.53 399.37 640.86 C 399.50 643.54 397.78 646.33 398.76 648.90 C 401.92 645.89 403.83 640.29 409.04 640.63 C 413.65 641.07 418.66 639.90 422.97 641.95 C 423.98 644.22 425.66 646.08 426.88 648.23 C 427.56 650.40 427.72 652.69 427.83 654.97 C 428.18 665.28 428.46 675.64 427.45 685.92 C 427.24 690.13 423.86 693.35 420.73 695.74 C 416.00 696.75 410.83 697.65 406.18 695.87 C 400.91 692.10 399.51 685.10 399.09 679.02 C 398.85 668.95 398.67 658.87 399.39 648.81 C 397.02 650.30 394.38 651.23 391.71 652.02 C 391.63 666.92 392.12 681.82 391.67 696.71 C 387.50 697.22 383.30 696.81 379.12 696.81 C 378.68 683.54 379.09 670.25 378.72 656.97 C 378.70 655.00 378.38 653.06 377.93 651.16 C 373.58 650.58 369.30 651.79 364.98 652.06 C 363.68 652.34 361.36 652.12 361.26 654.00 C 361.08 656.02 361.14 658.06 361.07 660.10 C 364.22 662.03 368.06 660.37 371.51 661.22 C 371.76 665.39 371.92 669.58 371.68 673.76 C 368.75 673.89 365.82 673.62 362.89 673.74 C 360.43 676.35 361.44 680.66 361.66 683.97 C 365.09 684.80 368.66 684.73 372.09 683.91 C 373.20 687.95 373.32 692.54 372.47 696.59 C 364.67 697.13 356.79 696.87 348.96 696.81 C 348.78 690.88 348.83 684.96 348.36 679.05 C 348.64 666.25 348.77 653.43 348.11 640.65 M 412.37 651.24 C 411.73 662.17 412.32 673.13 412.27 684.07 C 412.04 685.36 412.51 686.49 413.48 687.35 C 413.89 686.74 414.72 685.52 415.14 684.91 C 415.27 673.66 415.43 662.39 414.98 651.14 C 414.33 651.17 413.02 651.21 412.37 651.24 Z" />
<path fill="#1b2c46" opacity="1.00" d=" M 430.08 641.86 C 430.51 641.49 431.36 640.74 431.79 640.37 C 439.45 640.45 447.13 640.46 454.78 640.90 C 455.93 643.70 457.83 646.13 458.96 648.93 C 459.14 653.99 459.57 659.16 458.57 664.16 C 457.06 664.57 454.81 664.68 455.01 666.81 C 455.71 666.93 457.11 667.17 457.80 667.28 C 458.79 673.81 457.88 680.41 458.03 686.98 C 457.85 690.17 458.50 693.49 457.57 696.60 C 453.59 697.31 449.47 696.75 445.46 696.57 C 445.83 688.22 445.58 679.86 445.63 671.50 C 445.09 671.50 444.02 671.50 443.48 671.49 C 443.12 679.85 443.11 688.24 443.48 696.59 C 439.26 696.96 435.03 696.70 430.81 696.87 C 429.98 693.64 431.00 690.33 430.82 687.07 C 430.71 672.00 431.33 656.89 430.08 641.86 M 443.76 652.49 C 443.58 654.55 442.98 656.65 443.41 658.72 C 443.88 660.74 446.95 659.91 447.16 658.18 C 447.59 656.37 447.33 654.49 447.32 652.66 C 446.13 652.59 444.94 652.54 443.76 652.49 Z" />
<path fill="#1b2c46" opacity="1.00" d=" M 461.13 640.77 C 465.01 639.90 469.00 640.62 472.94 640.53 C 477.23 640.77 481.57 640.26 485.84 641.00 C 485.35 644.37 484.59 647.75 484.94 651.18 C 481.90 652.69 478.39 651.26 475.23 652.14 C 473.48 654.39 474.38 657.44 474.03 660.07 C 476.78 662.26 480.62 660.47 483.67 662.07 C 484.23 665.51 485.02 668.97 484.64 672.49 C 481.69 674.37 477.95 672.29 475.04 673.89 C 474.35 677.23 474.55 680.71 474.81 684.11 C 477.65 686.12 481.64 683.36 484.99 684.28 C 485.49 688.50 486.93 692.55 487.13 696.81 C 478.70 696.84 470.27 696.90 461.84 696.79 C 461.06 678.12 462.69 659.41 461.13 640.77 Z" />
<path fill="#1b2c46" opacity="1.00" d=" M 492.54 641.53 C 497.52 639.72 502.94 640.88 508.10 640.97 C 512.68 644.83 514.98 650.92 514.58 656.86 C 513.52 659.75 509.72 659.02 507.38 658.44 C 503.28 657.72 502.79 651.69 498.15 652.13 C 499.06 655.96 502.87 657.86 504.81 661.11 C 508.99 665.42 513.44 669.97 514.94 675.99 C 515.77 682.86 514.41 691.12 508.46 695.44 C 504.10 697.27 499.00 697.58 494.45 696.45 C 487.11 692.31 485.05 681.86 487.35 674.45 C 491.12 674.00 495.04 674.69 498.63 675.92 C 499.00 678.76 498.60 681.82 499.68 684.50 C 500.26 686.23 502.65 685.56 502.95 684.02 C 503.45 681.34 502.23 678.33 499.67 677.19 C 498.40 675.18 497.55 672.80 495.58 671.35 C 489.59 666.97 486.32 659.37 486.56 652.03 C 487.26 648.05 489.06 643.80 492.54 641.53 Z" />
<path fill="#1b2c46" opacity="1.00" d=" M 532.84 640.28 C 540.96 640.89 549.21 640.10 557.23 641.70 C 558.66 644.99 560.32 648.32 560.44 651.98 C 561.06 662.68 560.96 673.42 560.86 684.14 C 560.03 688.80 558.24 694.66 552.99 695.91 C 546.36 697.09 539.60 696.58 532.91 696.85 C 533.00 677.99 532.89 659.13 532.84 640.28 M 545.14 651.20 C 545.02 662.13 544.93 673.08 545.09 684.02 C 544.82 685.73 546.95 685.56 547.90 684.96 C 548.84 682.78 548.49 680.32 548.61 678.02 C 548.50 669.09 548.86 660.17 548.73 651.25 C 547.52 651.22 546.33 651.20 545.14 651.20 Z" />
<path fill="#1b2c46" opacity="1.00" d=" M 563.88 640.42 C 571.66 640.45 579.44 640.59 587.22 640.77 C 587.21 644.39 587.80 648.07 587.00 651.65 C 583.30 651.68 579.60 651.81 575.90 651.91 C 575.81 655.16 575.73 658.43 576.30 661.66 C 579.85 661.81 583.42 661.75 586.99 661.80 C 587.11 665.67 587.22 669.55 587.16 673.43 C 583.49 673.37 579.84 673.20 576.18 673.29 C 575.43 677.08 575.92 680.94 576.08 684.76 C 579.83 685.17 583.60 684.78 587.37 684.76 C 587.34 688.80 587.94 692.89 587.24 696.91 C 579.56 696.59 571.87 696.94 564.19 696.76 C 563.65 677.99 563.23 659.19 563.88 640.42 Z" />
<path fill="#1b2c46" opacity="1.00" d=" M 608.92 640.39 C 616.24 640.50 623.56 640.63 630.89 640.82 C 630.15 659.64 633.59 678.23 634.39 696.98 C 630.37 696.78 626.24 697.26 622.32 696.26 C 622.28 693.57 622.88 690.30 620.95 688.11 C 619.45 687.44 617.80 687.86 616.25 687.94 C 616.05 690.67 615.95 693.42 616.06 696.17 C 612.43 697.63 608.39 696.73 604.60 696.76 C 605.23 685.18 605.53 673.57 607.11 662.07 C 608.21 654.89 608.29 647.62 608.92 640.39 M 619.31 657.82 C 618.55 660.57 618.24 663.64 619.68 666.25 C 618.76 669.72 617.02 673.41 617.98 677.05 C 619.53 677.99 620.29 676.06 621.14 675.20 C 620.40 672.20 621.28 668.95 619.96 666.10 C 618.84 663.47 619.56 660.57 619.31 657.82 Z" />
<path fill="#1b2c46" opacity="1.00" d=" M 813.76 696.75 C 813.60 677.96 813.90 659.16 813.65 640.38 C 821.36 640.50 829.11 640.17 836.80 640.67 C 836.44 644.36 836.65 648.08 836.65 651.79 C 833.52 651.98 830.24 651.32 827.23 652.23 C 825.44 654.85 826.38 658.26 826.59 661.21 C 829.83 661.39 833.07 661.59 836.32 661.80 C 836.23 665.72 836.40 669.64 836.31 673.57 C 833.37 673.63 830.42 673.32 827.51 673.65 C 825.98 675.30 826.75 677.93 826.49 680.00 C 826.65 681.55 825.98 684.13 828.07 684.65 C 831.15 684.79 834.24 684.69 837.34 684.79 C 838.01 688.74 837.24 692.75 837.48 696.74 C 829.58 697.13 821.66 696.83 813.76 696.75 Z" />
<path fill="#1b2c46" opacity="1.00" d=" M 839.73 640.27 C 843.85 640.30 847.97 640.18 852.09 640.42 C 852.44 644.64 853.27 648.80 853.37 653.04 C 853.53 655.12 853.31 657.37 854.35 659.27 C 855.67 653.02 854.87 646.62 855.78 640.34 C 859.91 640.15 864.08 639.98 868.20 640.54 C 868.56 647.07 867.15 653.51 867.48 660.05 C 867.28 672.34 867.63 684.64 867.21 696.92 C 863.52 697.05 859.83 697.14 856.17 696.77 C 854.69 690.05 854.44 683.14 853.12 676.42 C 852.64 683.22 852.25 690.04 851.97 696.86 C 847.84 697.17 843.71 697.03 839.59 697.09 C 840.05 678.16 840.34 659.20 839.73 640.27 Z" />
<path fill="#1b2c46" opacity="1.00" d=" M 870.41 640.61 C 878.84 640.36 887.31 640.57 895.73 641.04 C 895.80 644.20 896.05 647.39 895.62 650.54 C 893.46 651.24 891.19 651.41 888.96 651.72 C 888.75 666.75 889.13 681.78 888.83 696.81 C 884.86 696.85 880.90 696.68 876.94 696.71 C 876.68 681.94 876.75 667.16 876.46 652.40 C 874.02 651.06 870.47 652.33 868.42 649.74 C 869.24 649.72 870.89 649.67 871.71 649.65 C 871.03 649.03 870.35 648.43 869.67 647.85 C 870.09 645.45 870.33 643.03 870.41 640.61 Z" />
<path fill="#1b2c46" opacity="1.00" d=" M 902.91 642.11 C 906.45 639.91 910.96 640.92 914.94 640.82 C 921.15 640.42 924.40 646.89 925.90 651.95 C 926.77 662.30 926.93 672.75 925.88 683.10 C 925.11 686.97 923.95 691.26 920.57 693.69 C 915.81 697.58 908.43 698.26 903.26 694.82 C 898.62 691.42 897.18 685.52 897.06 680.05 C 896.90 670.13 896.79 660.20 897.28 650.29 C 899.22 647.62 900.64 644.53 902.91 642.11 M 910.39 650.10 C 910.25 650.56 909.97 651.47 909.83 651.93 C 910.35 660.61 909.35 669.32 909.95 678.02 C 910.40 681.47 908.90 685.29 911.00 688.37 C 911.53 686.96 912.21 685.55 912.26 684.03 C 912.67 673.37 912.70 662.70 912.64 652.04 C 913.06 650.57 911.21 650.58 910.39 650.10 Z" />
<path fill="#1b2c46" opacity="1.00" d=" M 1026.97 640.54 C 1034.95 640.28 1042.94 640.67 1050.92 640.92 C 1051.98 643.78 1053.61 646.42 1054.49 649.36 C 1055.13 654.01 1054.20 658.70 1054.46 663.37 C 1053.18 664.74 1051.49 665.48 1049.75 666.03 C 1050.97 666.57 1052.19 667.14 1053.43 667.73 C 1053.92 677.42 1053.37 687.14 1053.28 696.85 C 1049.81 696.87 1046.33 697.04 1042.88 696.73 C 1037.72 696.16 1032.34 698.02 1027.31 696.55 C 1026.81 694.39 1026.90 692.16 1026.89 689.98 C 1027.00 680.31 1026.19 670.64 1026.73 660.98 C 1027.02 654.16 1026.30 647.34 1026.97 640.54 M 1039.50 652.46 C 1039.49 654.76 1039.47 657.08 1039.51 659.40 C 1044.74 661.88 1044.77 650.56 1039.50 652.46 M 1039.36 672.07 C 1039.35 679.99 1039.35 687.90 1039.19 695.81 C 1039.76 695.79 1040.89 695.75 1041.46 695.73 C 1041.77 687.64 1041.88 679.51 1041.54 671.43 C 1040.80 671.63 1040.07 671.85 1039.36 672.07 Z" />
<path fill="#1b2c46" opacity="1.00" d=" M 1107.96 640.65 C 1114.93 640.09 1121.95 640.80 1128.95 640.75 C 1130.13 653.51 1131.31 666.27 1132.11 679.07 C 1132.47 685.02 1134.05 690.84 1134.20 696.81 C 1130.16 696.99 1126.09 697.15 1122.07 696.77 C 1120.60 694.17 1121.43 690.74 1121.04 687.83 C 1119.37 687.27 1117.62 687.17 1115.90 687.20 C 1115.42 690.46 1115.33 693.77 1115.31 697.07 C 1111.42 697.05 1107.54 697.07 1103.67 697.06 C 1103.85 678.17 1106.67 659.45 1107.96 640.65 M 1117.41 669.56 C 1116.84 672.55 1116.90 675.63 1116.74 678.68 C 1120.89 677.58 1119.78 671.84 1119.00 668.62 C 1118.60 668.85 1117.81 669.32 1117.41 669.56 Z" />
<path fill="#1b2c46" opacity="1.00" d=" M 1203.23 641.17 C 1208.00 640.37 1213.05 639.92 1217.76 641.33 C 1221.13 642.55 1222.58 646.23 1223.64 649.37 C 1225.66 655.38 1224.88 661.78 1225.08 668.00 C 1224.87 675.26 1225.79 682.92 1222.77 689.76 C 1220.44 694.93 1214.46 697.64 1208.97 697.04 C 1202.87 697.59 1198.27 692.12 1196.43 686.91 C 1195.70 675.60 1196.24 664.22 1196.75 652.91 C 1196.65 648.25 1198.09 642.52 1203.23 641.17 M 1208.65 651.71 C 1207.94 662.94 1208.44 674.24 1208.86 685.47 C 1210.81 686.85 1211.62 683.48 1211.67 682.12 C 1212.16 672.06 1211.79 661.98 1211.94 651.92 C 1210.90 651.71 1209.46 650.48 1208.65 651.71 Z" />
<path fill="#1b2c46" opacity="1.00" d=" M 1240.36 640.61 C 1249.42 640.77 1258.49 640.67 1267.56 640.65 C 1265.54 643.73 1266.29 647.58 1266.55 651.03 C 1264.17 651.25 1261.82 651.47 1259.46 651.69 C 1259.74 665.45 1259.47 679.21 1259.56 692.97 C 1259.57 694.30 1259.40 695.65 1259.18 696.97 C 1255.17 696.86 1251.17 696.81 1247.18 696.77 C 1246.73 681.83 1247.14 666.87 1247.00 651.93 C 1245.15 651.65 1242.55 652.40 1241.54 650.35 C 1240.76 647.17 1240.05 643.89 1240.36 640.61 Z" />
<path fill="#1b2c46" opacity="1.00" d=" M 1316.87 640.37 C 1323.99 640.22 1331.11 640.64 1338.24 640.69 C 1338.16 659.55 1340.69 678.27 1343.31 696.90 C 1339.00 697.04 1334.69 696.79 1330.39 696.62 C 1330.00 693.67 1330.91 689.87 1328.45 687.69 C 1327.21 687.43 1325.13 686.74 1324.66 688.42 C 1323.93 691.12 1324.10 693.98 1323.85 696.76 C 1319.92 697.04 1315.99 697.01 1312.06 696.93 C 1313.19 687.69 1313.23 678.36 1314.61 669.16 C 1316.13 659.64 1316.59 649.99 1316.87 640.37 M 1326.76 652.00 C 1326.46 660.50 1326.79 669.04 1325.64 677.49 C 1326.26 677.61 1327.49 677.85 1328.10 677.97 C 1328.96 674.97 1328.31 671.89 1327.91 668.88 C 1327.09 663.28 1327.86 657.56 1326.76 652.00 Z" />
<path fill="#1b2c46" opacity="1.00" d=" M 1345.13 648.92 C 1345.29 645.10 1348.10 641.43 1351.97 640.90 C 1356.98 640.77 1362.00 640.72 1367.02 640.95 C 1371.37 646.34 1372.26 653.35 1372.69 660.03 C 1368.78 660.10 1364.86 660.29 1360.97 660.08 C 1359.15 657.96 1360.45 654.43 1360.22 651.79 C 1359.11 651.42 1358.01 651.06 1356.94 650.70 C 1356.68 654.93 1356.69 659.17 1356.96 663.41 C 1362.23 663.09 1367.53 662.97 1372.75 664.02 C 1372.51 674.90 1373.35 685.82 1372.31 696.66 C 1369.66 696.48 1367.02 696.25 1364.41 695.94 C 1364.38 695.40 1364.33 694.32 1364.31 693.78 C 1363.80 696.58 1360.28 696.63 1358.06 696.78 C 1354.15 696.79 1348.57 697.59 1347.13 692.82 C 1343.17 687.68 1344.27 681.03 1344.11 674.99 C 1344.18 666.29 1344.46 657.59 1345.13 648.92 M 1357.69 664.82 C 1357.35 671.74 1356.98 678.66 1356.81 685.60 C 1357.53 685.39 1358.96 684.97 1359.68 684.76 C 1361.34 680.72 1360.02 676.22 1359.23 672.11 C 1358.57 669.70 1358.91 667.04 1357.69 664.82 Z" />
<path fill="#1b2c46" opacity="1.00" d=" M 1402.13 640.73 C 1408.03 640.03 1414.01 640.77 1419.94 640.91 C 1421.34 650.78 1423.76 660.75 1422.37 670.76 C 1426.89 661.54 1424.48 650.63 1427.21 640.86 C 1433.41 640.34 1439.66 640.74 1445.87 640.92 C 1445.85 659.56 1446.05 678.19 1445.88 696.83 C 1441.77 696.87 1437.66 696.64 1433.57 696.65 C 1433.53 689.36 1434.19 682.08 1433.77 674.80 C 1432.01 675.88 1432.45 678.18 1432.08 679.93 C 1431.61 685.41 1430.47 690.82 1430.25 696.32 C 1425.97 696.86 1421.66 696.69 1417.37 696.78 C 1416.98 686.73 1413.86 677.04 1413.49 667.02 C 1412.90 676.97 1412.29 686.92 1412.23 696.91 C 1409.06 697.13 1405.89 697.13 1402.74 696.92 C 1402.40 684.29 1401.54 671.65 1402.01 659.01 C 1401.89 652.92 1401.66 646.81 1402.13 640.73 Z" />
</g>
<g id="#dc9b53ff">
<path fill="#dc9b53" opacity="1.00" d=" M 484.79 305.90 C 486.46 302.57 488.17 299.08 491.05 296.61 C 493.37 296.06 494.03 299.52 495.15 301.00 C 503.28 319.01 511.09 337.17 518.66 355.42 C 520.25 359.28 522.48 362.92 523.31 367.06 C 519.21 367.58 515.08 368.04 510.95 367.73 C 509.51 367.62 507.74 367.29 507.15 365.78 C 503.82 358.57 501.54 350.67 496.71 344.28 C 491.43 342.47 485.71 343.50 480.23 343.06 C 474.80 350.04 473.27 359.10 468.27 366.31 C 465.35 368.54 461.33 367.50 457.98 367.01 C 466.79 346.59 475.42 326.08 484.79 305.90 M 485.20 334.83 C 486.83 334.66 488.74 335.24 490.12 334.09 C 492.15 331.43 491.19 327.49 489.22 325.06 C 485.83 326.85 485.01 331.30 485.20 334.83 Z" />
<path fill="#dc9b53" opacity="1.00" d=" M 1058.23 298.18 C 1065.37 295.65 1073.22 297.83 1079.77 301.07 C 1084.36 303.89 1083.12 309.85 1083.07 314.36 C 1079.57 314.17 1077.69 310.77 1074.82 309.25 C 1070.93 307.25 1066.33 305.68 1061.98 307.02 C 1056.78 308.30 1053.25 316.17 1057.99 319.94 C 1064.82 324.98 1073.27 327.55 1079.59 333.37 C 1083.93 337.29 1088.04 342.73 1087.25 348.92 C 1086.78 355.17 1083.16 360.68 1078.66 364.82 C 1072.86 368.93 1065.55 371.62 1058.39 370.49 C 1052.26 369.20 1046.14 366.59 1041.98 361.76 C 1041.76 358.41 1040.82 354.98 1041.87 351.69 C 1046.78 354.58 1051.25 358.62 1057.01 359.71 C 1060.28 360.32 1063.76 361.41 1067.01 360.05 C 1071.26 358.81 1073.71 354.26 1072.98 349.97 C 1073.52 346.60 1070.14 344.78 1067.94 342.97 C 1059.81 338.08 1049.48 334.99 1044.74 326.07 C 1039.30 315.16 1047.10 301.52 1058.23 298.18 Z" />
<path fill="#dc9b53" opacity="1.00" d=" M 1598.38 299.41 C 1599.10 297.97 1600.64 297.38 1601.96 296.59 C 1606.45 302.77 1609.13 310.00 1612.16 316.96 C 1616.88 327.89 1621.55 338.84 1626.20 349.80 C 1628.58 355.52 1631.57 361.01 1633.25 367.00 C 1628.18 367.08 1622.30 369.28 1617.83 366.15 C 1614.78 360.65 1612.80 354.62 1609.92 349.02 C 1608.69 346.50 1607.72 342.53 1604.08 343.14 C 1599.13 343.59 1594.07 342.08 1589.24 343.38 C 1586.59 349.01 1583.86 354.62 1581.34 360.32 C 1580.21 362.71 1579.14 365.28 1577.13 367.09 C 1574.40 368.34 1571.36 367.75 1568.52 367.44 C 1568.98 363.52 1571.20 360.20 1572.59 356.59 C 1577.64 343.90 1583.44 331.54 1588.88 319.02 C 1591.79 312.37 1594.50 305.57 1598.38 299.41 M 1597.39 324.26 C 1595.69 327.54 1595.60 331.33 1594.97 334.90 C 1596.99 334.71 1599.02 334.51 1601.06 334.33 C 1602.46 331.84 1601.16 329.09 1600.32 326.66 C 1599.84 325.53 1598.90 323.54 1597.39 324.26 Z" />
<path fill="#dc9b53" opacity="1.00" d=" M 342.81 299.70 C 361.14 297.95 379.65 299.70 398.00 298.46 C 391.19 312.12 382.42 324.72 375.28 338.23 C 371.94 344.84 367.35 350.83 364.91 357.88 C 374.98 357.76 385.06 357.78 395.13 357.59 C 395.59 360.56 396.47 363.93 394.66 366.64 C 392.58 367.57 390.18 367.26 387.96 367.41 C 372.30 367.32 356.62 368.02 340.97 367.20 C 349.45 353.85 357.09 340.00 365.33 326.50 C 368.73 320.36 372.64 314.51 375.63 308.15 C 365.44 309.10 355.11 309.27 344.96 307.89 C 341.44 307.14 343.23 302.26 342.81 299.70 Z" />
<path fill="#dc9b53" opacity="1.00" d=" M 745.30 298.37 C 749.50 297.37 753.80 298.12 757.99 298.80 C 765.09 299.81 772.08 302.67 777.40 307.57 C 792.51 321.14 792.16 348.44 776.05 361.10 C 769.09 366.96 759.90 369.20 751.05 370.14 C 742.58 369.74 734.33 366.57 727.39 361.77 C 713.15 351.11 709.64 329.20 719.22 314.37 C 724.63 305.14 735.13 300.25 745.30 298.37 M 745.48 307.64 C 739.73 309.45 734.55 313.57 731.93 319.05 C 728.07 327.30 728.07 337.01 730.40 345.69 C 732.39 352.95 738.74 358.37 746.07 359.74 C 753.77 362.14 762.48 359.03 767.76 353.13 C 774.34 345.48 774.05 334.51 772.51 325.14 C 770.32 313.15 757.39 304.50 745.48 307.64 Z" />
<path fill="#dc9b53" opacity="1.00" d=" M 1393.21 299.14 C 1402.25 296.72 1412.17 298.15 1420.49 302.29 C 1423.92 303.79 1423.68 307.95 1423.78 311.08 C 1423.99 312.53 1423.25 313.75 1422.36 314.81 C 1416.27 310.17 1408.97 306.39 1401.11 306.86 C 1395.10 306.91 1389.74 310.43 1385.81 314.73 C 1380.23 321.41 1379.29 330.68 1380.02 339.05 C 1380.97 344.76 1382.71 350.76 1387.05 354.87 C 1392.84 359.95 1401.19 361.27 1408.56 359.52 C 1414.11 358.00 1418.59 354.25 1423.21 351.01 C 1424.75 355.36 1424.06 360.51 1421.07 364.07 C 1415.39 368.46 1407.95 369.49 1401.01 370.13 C 1392.35 369.51 1383.73 366.54 1376.95 361.04 C 1362.52 349.28 1360.73 325.76 1372.18 311.37 C 1377.29 304.78 1385.22 300.97 1393.21 299.14 Z" />
<path fill="#dc9b53" opacity="1.00" d=" M 61.92 299.94 C 66.83 299.29 71.82 299.08 76.76 299.44 C 78.13 300.30 77.41 302.57 77.75 304.00 C 77.66 324.67 78.18 345.38 77.07 366.04 C 76.69 372.37 74.21 379.39 68.15 382.36 C 63.05 385.09 56.90 387.87 51.08 385.90 C 50.38 383.72 50.36 381.31 50.98 379.12 C 53.82 376.59 58.11 377.00 61.28 375.10 C 62.09 373.91 61.72 372.31 61.90 370.96 C 62.02 347.29 61.72 323.61 61.92 299.94 Z" />
<path fill="#dc9b53" opacity="1.00" d=" M 143.41 299.93 C 148.04 299.01 152.88 299.40 157.58 299.66 C 158.34 312.13 157.26 324.65 157.83 337.14 C 158.07 342.63 157.90 348.47 160.60 353.45 C 165.54 361.54 178.70 361.61 184.31 354.26 C 187.39 349.46 187.91 343.56 188.15 338.00 C 189.46 324.99 188.21 311.88 189.07 298.86 C 192.04 299.11 195.03 299.25 197.96 299.86 C 198.35 311.26 198.09 322.67 198.05 334.07 C 197.29 343.25 196.97 353.37 190.93 360.87 C 185.91 367.08 177.71 369.34 170.05 369.76 C 163.31 369.62 156.19 367.64 151.55 362.48 C 146.09 357.14 144.84 349.24 143.98 342.00 C 143.21 328.01 142.86 313.86 143.41 299.93 Z" />
<path fill="#dc9b53" opacity="1.00" d=" M 264.01 299.09 C 268.73 298.60 273.45 299.09 278.17 299.20 C 279.00 314.44 278.34 329.74 278.51 345.00 C 278.35 352.55 278.62 360.13 277.97 367.66 C 273.27 367.62 268.45 368.61 263.84 367.35 C 264.12 344.60 263.51 321.83 264.01 299.09 Z" />
<path fill="#dc9b53" opacity="1.00" d=" M 584.93 298.78 C 598.26 298.60 611.74 297.90 624.93 300.28 C 632.79 301.93 640.72 306.08 644.60 313.43 C 650.53 324.41 651.60 338.47 645.67 349.68 C 640.40 360.43 628.50 366.30 616.94 367.17 C 606.27 367.61 595.54 368.19 584.88 367.12 C 584.89 344.34 584.23 321.55 584.93 298.78 M 601.15 308.60 C 601.12 322.73 601.02 336.88 601.31 351.01 C 601.32 353.31 601.61 355.60 601.98 357.88 C 606.62 357.83 611.29 358.18 615.92 357.68 C 622.55 356.89 628.64 352.57 631.56 346.56 C 634.52 339.99 634.35 332.49 633.42 325.50 C 632.53 319.05 628.39 312.57 621.78 310.94 C 615.10 309.13 608.06 308.20 601.15 308.60 Z" />
<path fill="#dc9b53" opacity="1.00" d=" M 941.02 299.11 C 954.21 298.67 967.47 298.84 980.64 299.80 C 980.71 302.52 980.67 305.27 979.96 307.92 C 978.84 309.51 976.58 309.07 974.92 309.17 C 968.99 308.88 963.06 308.70 957.13 308.97 C 956.94 314.91 956.44 320.88 957.14 326.81 C 964.06 327.39 971.04 326.88 977.92 327.91 C 977.88 330.57 978.89 333.78 976.96 336.01 C 970.45 337.28 963.76 336.55 957.18 336.76 C 956.99 343.51 957.04 350.26 957.16 357.01 C 964.70 358.43 972.46 357.44 980.09 357.95 C 980.70 360.46 981.59 363.12 980.71 365.69 C 979.53 367.68 976.87 367.02 974.96 367.30 C 963.71 367.37 952.39 367.98 941.18 366.84 C 940.76 344.27 940.81 321.68 941.02 299.11 Z" />
<path fill="#dc9b53" opacity="1.00" d=" M 1151.11 299.08 C 1158.38 298.39 1165.70 298.71 1172.99 298.84 C 1179.31 299.30 1186.22 300.39 1190.88 305.13 C 1196.29 309.82 1199.14 317.78 1196.64 324.69 C 1194.93 328.67 1192.33 332.53 1188.42 334.62 C 1181.88 338.07 1174.55 340.15 1167.13 340.19 C 1166.52 348.93 1167.49 357.81 1166.45 366.47 C 1161.94 368.18 1156.47 367.23 1151.59 367.35 C 1150.46 356.94 1151.08 346.45 1150.93 336.01 C 1150.95 323.70 1150.84 311.38 1151.11 299.08 M 1168.12 308.19 C 1166.29 315.13 1167.14 322.48 1167.42 329.58 C 1172.87 330.15 1179.40 328.17 1181.62 322.68 C 1182.17 319.64 1182.39 316.13 1180.37 313.57 C 1177.95 309.33 1172.72 307.80 1168.12 308.19 Z" />
<path fill="#dc9b53" opacity="1.00" d=" M 1261.07 299.28 C 1273.76 299.13 1286.51 298.87 1299.17 299.86 C 1301.41 299.85 1300.77 302.64 1300.76 304.07 C 1300.50 305.94 1300.53 308.82 1298.04 308.99 C 1291.03 309.43 1284.01 308.61 1277.01 309.18 C 1276.93 315.15 1276.29 321.17 1277.20 327.11 C 1284.11 327.32 1291.06 327.02 1297.93 328.05 C 1298.13 330.76 1298.45 333.62 1297.10 336.12 C 1290.48 336.91 1283.80 336.74 1277.15 336.70 C 1277.02 343.48 1277.02 350.26 1277.15 357.04 C 1284.72 358.42 1292.49 357.49 1300.14 357.98 C 1300.95 360.96 1302.73 366.91 1297.95 367.11 C 1285.71 367.50 1273.40 367.84 1261.18 366.90 C 1260.54 356.28 1261.10 345.61 1260.91 334.97 C 1261.02 323.07 1260.62 311.17 1261.07 299.28 Z" />
<path fill="#dc9b53" opacity="1.00" d=" M 1489.23 300.18 C 1494.09 299.36 1499.19 298.90 1504.08 299.63 C 1504.06 315.75 1504.07 331.87 1504.08 347.99 C 1504.01 354.49 1504.37 361.03 1503.49 367.50 C 1499.03 367.45 1493.99 368.84 1489.90 367.02 C 1489.13 355.71 1489.48 344.36 1489.37 333.04 C 1489.55 322.08 1489.12 311.13 1489.23 300.18 Z" />
<path fill="#dc9b53" opacity="1.00" d=" M 1695.11 300.06 C 1699.93 298.71 1704.99 299.38 1709.94 299.31 C 1711.31 308.79 1710.38 318.42 1710.70 327.96 C 1710.78 337.89 1710.58 347.83 1711.28 357.74 C 1718.23 358.59 1725.25 358.30 1732.23 358.83 C 1735.61 358.90 1736.25 363.45 1734.80 365.76 C 1732.39 366.99 1729.63 367.13 1727.00 367.18 C 1716.61 367.22 1706.22 367.43 1695.85 367.04 C 1694.68 355.72 1695.35 344.33 1694.95 332.97 C 1694.99 322.00 1694.60 311.02 1695.11 300.06 Z" />
<path fill="#dc9b53" opacity="1.00" d=" M 997.55 642.33 C 997.97 642.41 998.79 642.55 999.20 642.62 C 999.30 645.01 999.45 647.41 999.76 649.80 L 999.65 649.74 C 999.08 649.46 997.93 648.89 997.36 648.60 C 997.41 646.51 997.48 644.42 997.55 642.33 Z" />
<path fill="#dc9b53" opacity="1.00" d=" M 259.50 691.59 C 261.39 689.82 264.55 687.79 266.82 690.13 C 274.27 697.03 280.80 704.89 288.45 711.59 C 290.50 713.40 293.32 713.72 295.94 713.79 C 347.96 714.10 399.99 714.44 452.02 714.37 C 498.33 714.26 544.62 714.65 590.92 714.56 C 724.93 714.23 858.95 714.40 992.97 714.42 C 1040.97 714.42 1088.98 714.23 1136.99 714.40 C 1138.28 714.42 1139.52 714.19 1140.73 713.71 C 1145.55 715.28 1150.78 715.32 1155.74 714.38 C 1176.48 714.81 1197.28 714.19 1218.04 714.41 C 1276.67 714.22 1335.31 714.54 1393.94 714.39 C 1417.03 714.48 1440.14 713.74 1463.21 714.93 C 1463.82 719.55 1463.61 724.22 1463.10 728.84 C 1360.43 728.94 1257.75 728.47 1155.08 729.26 C 1130.04 729.25 1105.01 729.11 1079.99 728.82 C 864.31 728.79 648.64 728.84 432.97 728.82 C 388.99 728.72 345.03 729.68 301.05 729.64 C 296.56 729.91 291.11 729.01 287.67 732.60 C 281.83 738.45 276.81 745.12 270.42 750.42 C 266.72 753.21 261.27 753.59 257.74 750.29 C 250.53 742.86 243.23 735.49 236.21 727.88 C 234.46 725.89 232.33 723.83 232.11 721.04 C 231.97 718.93 233.84 717.58 235.03 716.11 C 243.02 707.77 250.92 699.33 259.50 691.59 Z" />
<path fill="#dc9b53" opacity="1.00" d=" M 261.02 756.00 C 262.18 753.92 264.88 754.30 266.21 756.00 L 261.02 756.00 Z" />
</g>
</svg>
