<?xml version="1.0" encoding="UTF-8" ?>
<!DOCTYPE svg PUBLIC "-//W3C//DTD SVG 1.1//EN" "http://www.w3.org/Graphics/SVG/1.1/DTD/svg11.dtd">
<svg width="1752pt" height="780pt" viewBox="0 0 1752 780" version="1.1" xmlns="http://www.w3.org/2000/svg">
<g id="#fefefeff">
<path fill="#fefefe" opacity="1.00" d=" M 1457.84 687.64 C 1459.24 687.64 1460.65 687.66 1462.08 687.72 C 1462.34 690.54 1462.35 693.37 1462.30 696.21 C 1461.29 696.26 1459.26 696.37 1458.24 696.42 C 1458.04 693.49 1457.97 690.56 1457.84 687.64 Z" />
</g>
<g id="#002a6aff">
<path fill="#002a6a" opacity="1.00" d=" M 165.95 20.06 C 202.18 13.30 239.77 12.86 275.91 20.41 C 298.16 25.97 319.29 35.44 339.09 46.91 C 340.45 47.65 341.87 48.26 343.30 48.88 C 344.79 39.94 345.35 30.87 346.69 21.92 C 366.80 22.11 386.91 21.89 407.02 22.03 C 409.87 22.15 412.80 21.68 415.59 22.38 C 415.95 25.77 415.45 29.17 415.26 32.55 C 414.07 53.37 412.96 74.18 411.90 95.01 C 410.20 132.64 410.85 170.31 410.81 207.97 C 410.83 220.82 410.79 233.68 410.92 246.53 C 387.92 246.81 364.91 246.53 341.90 246.76 C 340.92 239.19 341.18 231.52 339.98 223.98 C 338.05 210.76 336.57 197.44 333.48 184.43 C 328.86 167.56 323.47 150.67 314.65 135.46 C 304.98 119.05 291.72 104.16 274.69 95.20 C 259.28 87.07 241.13 84.93 224.06 87.83 C 213.81 89.72 203.55 93.64 196.00 101.05 C 188.13 109.04 184.02 120.07 182.85 131.08 C 182.28 137.89 183.16 144.72 184.41 151.41 C 187.50 167.07 197.13 180.73 208.96 191.12 C 221.07 202.56 234.99 211.81 248.57 221.37 C 277.13 240.47 305.27 260.17 333.90 279.14 C 325.28 280.09 316.61 279.65 307.96 279.79 C 253.97 280.22 199.98 279.52 146.00 279.07 C 117.33 279.20 88.64 278.58 59.98 279.61 C 58.04 279.59 55.61 279.47 54.61 277.51 C 45.21 263.75 36.89 249.07 31.76 233.16 C 25.30 214.18 23.34 193.96 23.92 174.00 C 24.04 146.44 31.49 118.73 46.30 95.39 C 58.14 76.96 73.68 60.88 92.02 48.85 C 114.21 34.02 140.01 25.53 165.95 20.06 Z" />
<path fill="#002a6a" opacity="1.00" d=" M 579.83 22.85 C 580.34 21.01 582.57 21.62 583.93 21.69 C 611.49 24.89 639.41 24.68 666.94 21.24 C 681.22 57.04 694.91 93.08 708.93 128.98 C 725.79 172.49 742.75 215.95 759.66 259.44 C 762.02 266.30 765.13 272.85 767.88 279.54 C 757.93 280.19 747.95 279.77 737.99 279.84 C 687.02 279.74 636.04 279.20 585.09 279.68 C 583.69 279.73 583.07 278.24 582.75 277.14 C 578.49 265.34 574.17 253.55 570.08 241.68 C 569.77 241.57 569.15 241.35 568.85 241.24 C 564.07 253.82 559.28 266.40 554.86 279.11 C 529.78 280.63 504.59 278.87 479.48 280.00 C 508.43 204.97 538.09 130.21 567.07 55.19 C 571.28 44.39 575.43 33.57 579.83 22.85 Z" />
<path fill="#002a6a" opacity="1.00" d=" M 1011.08 21.83 C 1025.05 22.51 1039.01 24.06 1053.03 23.92 C 1068.17 24.23 1083.27 22.88 1098.33 21.43 C 1127.23 96.73 1156.60 171.87 1185.85 247.04 C 1189.64 256.62 1192.97 266.39 1197.15 275.83 C 1197.69 277.12 1198.07 278.48 1198.45 279.85 C 1140.98 279.98 1083.50 279.08 1026.03 279.71 C 1022.10 279.55 1018.01 280.44 1014.23 279.10 C 1010.23 266.57 1005.02 254.44 1001.24 241.82 C 1000.88 241.69 1000.17 241.43 999.81 241.31 C 994.96 253.82 990.49 266.47 985.70 279.01 C 978.82 279.91 971.87 279.55 964.96 279.61 C 946.84 279.55 928.73 279.63 910.62 279.84 C 943.87 193.75 977.71 107.87 1011.08 21.83 Z" />
<path fill="#002a6a" opacity="1.00" d=" M 1224.82 24.12 C 1240.22 24.43 1255.62 24.91 1271.02 25.14 C 1295.33 26.40 1319.69 25.69 1344.02 26.27 C 1373.02 27.30 1402.04 26.88 1431.06 26.98 C 1488.04 26.88 1545.02 27.21 1602.00 26.80 C 1625.67 26.37 1649.35 25.91 1673.03 25.76 C 1697.39 25.25 1721.74 24.47 1746.11 24.29 C 1744.65 53.01 1742.27 81.68 1741.20 110.42 C 1740.16 140.91 1737.80 171.44 1739.80 201.93 C 1740.04 222.14 1742.07 242.27 1743.84 262.39 C 1727.57 262.97 1711.30 262.00 1695.04 262.35 C 1688.42 262.18 1681.77 263.05 1675.18 262.30 C 1673.79 252.72 1671.31 243.33 1669.38 233.85 C 1664.43 210.48 1658.51 187.24 1650.01 164.89 C 1643.52 148.54 1635.38 132.49 1623.34 119.50 C 1610.24 105.36 1591.36 97.15 1572.22 96.06 C 1570.99 110.67 1571.40 125.34 1571.18 139.98 C 1571.25 186.02 1571.32 232.07 1571.83 278.10 C 1572.23 279.86 1569.96 279.26 1569.06 279.42 C 1557.03 279.40 1544.99 278.68 1532.98 279.37 C 1488.32 279.50 1443.66 278.67 1399.01 279.47 C 1398.83 218.18 1398.91 156.88 1399.05 95.59 C 1385.91 96.92 1372.80 100.50 1361.54 107.54 C 1349.03 115.66 1340.24 128.19 1332.96 140.94 C 1321.19 162.22 1314.06 185.64 1307.87 209.04 C 1303.16 226.77 1300.07 244.87 1295.74 262.67 C 1272.92 262.91 1250.10 262.62 1227.29 262.87 C 1229.53 237.63 1232.41 212.38 1232.17 187.00 C 1232.07 167.67 1232.57 148.31 1231.07 129.03 C 1230.21 93.99 1227.38 59.06 1224.82 24.12 Z" />
<path fill="#002a6a" opacity="1.00" d=" M 568.75 391.55 L 569.10 391.65 L 568.99 392.00 C 568.93 391.89 568.81 391.67 568.75 391.55 Z" />
<path fill="#002a6a" opacity="1.00" d=" M 22.99 416.08 C 42.32 415.88 61.66 416.01 80.99 416.03 C 85.88 416.13 90.79 415.90 95.66 416.38 C 95.89 416.60 96.34 417.03 96.57 417.25 C 101.24 444.69 107.60 472.34 120.81 497.07 C 129.04 514.06 141.82 529.25 158.61 538.24 C 170.27 543.76 183.09 546.69 195.97 547.23 C 208.47 548.72 221.21 546.99 233.18 543.24 C 245.68 539.33 257.06 531.03 263.37 519.41 C 267.34 512.66 268.53 504.77 269.33 497.11 C 270.60 490.00 269.13 482.82 268.35 475.75 C 266.08 460.17 258.59 445.60 247.75 434.25 C 244.11 430.55 240.70 426.62 236.79 423.20 C 234.17 420.79 231.00 418.99 228.77 416.16 C 280.18 415.80 331.59 416.08 383.00 416.04 C 422.48 416.15 461.96 415.87 501.44 416.14 C 501.02 417.73 500.55 419.32 499.91 420.86 C 494.60 433.27 490.50 446.15 485.73 458.77 C 478.85 477.22 473.83 496.43 471.74 516.03 C 471.37 522.02 471.97 528.95 476.48 533.39 C 482.38 538.29 490.27 539.43 497.61 540.59 C 511.18 542.50 524.92 542.65 538.59 543.41 C 539.18 566.01 538.61 588.66 539.02 611.28 C 515.02 610.83 491.00 609.94 467.00 609.14 C 442.33 608.89 417.66 608.70 393.00 609.04 C 373.53 609.13 354.18 611.34 334.86 613.43 C 334.91 609.33 335.00 605.23 335.21 601.14 C 318.90 606.63 302.57 612.30 285.62 615.53 C 267.25 618.85 248.62 621.00 229.93 621.04 C 203.81 621.31 177.41 619.78 152.06 613.06 C 134.36 608.02 116.93 601.86 100.48 593.56 C 97.02 592.34 93.94 589.82 90.19 589.61 C 89.61 598.15 88.26 606.62 86.90 615.07 C 63.90 615.23 40.89 615.08 17.89 615.41 C 18.14 602.55 19.90 589.77 20.06 576.90 C 20.08 570.92 21.06 564.99 20.91 559.01 C 20.91 549.33 20.93 539.63 21.69 529.98 C 22.55 499.34 21.91 468.68 22.21 438.03 C 22.31 430.71 22.17 423.37 22.99 416.08 Z" />
<path fill="#002a6a" opacity="1.00" d=" M 633.54 416.20 C 688.35 415.72 743.16 416.13 797.97 416.08 C 805.52 416.25 813.12 415.83 820.65 416.50 C 821.41 417.49 821.72 418.73 822.16 419.90 C 825.83 430.92 830.32 441.64 834.61 452.43 C 836.07 455.98 836.52 459.87 838.16 463.37 C 842.05 455.85 844.78 447.80 848.02 440.00 C 850.92 432.48 854.26 425.12 856.49 417.36 C 856.92 415.86 858.67 416.07 859.90 415.99 C 884.04 416.03 908.18 415.87 932.32 416.21 C 929.72 424.67 925.86 432.71 923.08 441.13 C 916.48 459.87 909.05 478.46 905.51 498.09 C 903.75 508.08 900.75 518.64 904.26 528.60 C 906.38 534.49 912.67 537.30 918.35 538.65 C 935.17 542.40 952.49 542.50 969.62 543.45 C 970.39 566.09 969.71 588.81 970.17 611.48 C 965.10 611.73 960.05 610.92 954.98 611.07 C 947.32 610.78 939.61 611.26 932.00 610.23 C 925.34 609.63 918.64 610.11 911.97 609.83 C 909.18 609.48 906.74 611.30 903.98 611.10 C 858.17 611.56 812.00 606.48 766.49 613.74 C 766.23 612.21 765.98 610.69 765.73 609.19 C 723.84 608.65 681.88 608.53 640.04 611.05 C 634.79 610.97 629.53 612.03 624.30 611.69 C 624.23 611.04 624.08 609.74 624.00 609.09 C 624.19 587.69 624.11 566.29 624.02 544.89 C 623.90 543.52 624.50 542.88 625.84 542.98 C 642.60 542.97 659.32 541.53 675.95 539.60 C 676.14 537.53 676.16 535.43 675.53 533.45 C 670.60 515.18 663.12 497.74 656.92 479.89 C 649.11 459.60 642.22 438.95 634.24 418.73 C 634.06 418.10 633.72 416.83 633.54 416.20 Z" />
<path fill="#002a6a" opacity="1.00" d=" M 1064.47 416.14 C 1122.30 415.81 1180.13 416.03 1237.95 416.07 C 1242.46 416.17 1247.02 415.72 1251.51 416.30 C 1262.84 445.69 1274.31 475.04 1285.71 504.41 C 1289.52 513.58 1292.94 523.13 1299.10 531.05 C 1302.52 535.46 1306.25 540.51 1312.01 541.81 C 1319.66 542.90 1327.35 541.40 1335.03 541.73 C 1349.54 542.11 1364.08 541.52 1378.49 539.72 C 1383.32 539.00 1388.27 538.07 1392.59 535.64 C 1394.64 534.47 1395.55 532.13 1396.08 529.96 C 1398.34 521.85 1398.57 513.37 1398.80 505.01 C 1399.21 475.36 1398.56 445.70 1399.09 416.06 C 1456.48 416.05 1513.89 415.92 1571.28 416.21 C 1571.82 445.82 1570.96 475.48 1572.21 505.10 C 1572.96 514.42 1572.87 524.00 1576.08 532.92 C 1576.90 536.41 1580.92 537.23 1583.86 538.21 C 1606.34 543.23 1629.52 541.23 1652.32 543.16 C 1653.02 554.09 1652.66 565.06 1652.88 576.01 C 1652.79 587.51 1653.24 599.04 1652.49 610.52 C 1628.99 610.32 1605.49 609.90 1581.99 609.69 C 1554.68 608.79 1527.36 608.96 1500.05 608.92 C 1469.34 608.93 1438.63 608.84 1407.93 609.16 C 1392.10 609.78 1376.27 609.81 1360.44 610.20 C 1342.29 611.30 1324.08 611.65 1305.92 610.78 C 1299.00 609.44 1291.94 610.32 1284.96 609.91 C 1258.66 608.58 1232.32 608.97 1206.00 608.92 C 1178.00 608.92 1150.00 608.87 1122.01 609.11 C 1099.64 609.56 1077.29 610.62 1054.95 611.86 C 1054.92 588.94 1054.82 566.02 1055.05 543.10 C 1072.62 542.88 1090.21 541.89 1107.61 539.30 C 1106.12 528.09 1101.48 517.61 1097.80 507.00 C 1090.05 485.49 1081.92 464.13 1074.26 442.59 C 1071.33 433.65 1067.37 425.08 1064.47 416.14 Z" />
<path fill="#002a6a" opacity="1.00" d=" M 1251.73 638.96 C 1251.91 635.97 1252.80 632.21 1256.05 631.22 C 1259.24 630.13 1262.27 631.75 1265.08 633.07 C 1267.81 632.90 1270.50 632.34 1273.25 632.22 C 1274.22 636.26 1270.00 637.71 1267.21 639.24 C 1264.54 640.88 1261.77 638.39 1259.05 638.18 C 1256.58 638.28 1254.17 638.80 1251.73 638.96 Z" />
<path fill="#002a6a" opacity="1.00" d=" M 175.93 644.89 C 180.98 639.95 188.85 640.45 195.26 641.66 C 202.33 643.81 204.20 652.35 203.18 658.81 C 199.57 658.89 195.64 659.47 192.30 657.75 C 190.83 656.29 190.06 654.32 189.09 652.54 C 188.29 652.46 186.71 652.30 185.91 652.22 C 186.17 654.06 186.12 656.16 187.41 657.68 C 191.96 662.80 198.93 665.46 202.50 671.48 C 205.51 678.13 205.18 686.32 201.47 692.63 C 197.84 697.26 191.52 698.27 185.98 698.00 C 181.31 698.11 176.53 695.68 174.29 691.51 C 172.96 688.15 172.55 684.51 172.41 680.93 C 172.46 679.24 172.49 677.07 174.23 676.22 C 177.90 675.70 181.63 676.04 185.33 675.99 C 185.57 676.52 186.05 677.59 186.29 678.12 C 186.67 681.26 186.64 684.41 186.60 687.57 C 188.62 688.27 190.36 687.05 190.24 684.91 C 190.92 680.22 187.30 676.75 184.38 673.67 C 180.17 670.73 174.69 668.14 173.43 662.67 C 172.18 656.83 171.78 649.69 175.93 644.89 Z" />
<path fill="#002a6a" opacity="1.00" d=" M 288.44 641.51 C 294.38 641.04 301.46 640.38 306.03 645.04 C 308.90 647.08 310.27 650.59 310.17 654.06 C 310.45 664.69 310.75 675.36 310.12 685.99 C 309.55 693.75 301.11 698.18 294.01 697.88 C 287.48 698.50 280.53 694.79 278.23 688.52 C 276.31 679.81 277.34 670.84 277.12 662.00 C 277.32 656.48 276.74 650.10 280.65 645.64 C 282.50 643.19 285.42 641.80 288.44 641.51 M 291.96 651.10 C 291.34 663.38 291.32 675.70 291.74 687.99 C 293.15 687.74 295.99 688.24 295.92 686.02 C 296.49 674.96 296.46 663.86 296.30 652.79 C 295.77 650.82 293.44 651.47 291.96 651.10 Z" />
<path fill="#002a6a" opacity="1.00" d=" M 389.51 646.52 C 392.10 643.00 396.65 640.92 401.02 641.09 C 405.40 641.18 410.34 641.20 413.88 644.18 C 417.46 646.95 419.07 651.65 418.86 656.07 C 418.92 657.15 418.11 658.53 416.94 658.61 C 413.19 659.10 409.40 658.46 405.74 657.65 C 405.33 655.61 404.85 653.59 404.33 651.59 C 403.50 651.54 401.85 651.42 401.02 651.37 C 401.11 653.34 401.20 655.34 401.35 657.33 C 406.72 662.80 414.78 665.65 418.23 672.90 C 420.15 677.92 419.74 683.57 418.60 688.74 C 417.21 694.67 410.71 697.59 405.12 697.91 C 399.88 698.31 393.24 697.83 390.16 692.92 C 388.08 687.62 386.87 681.39 388.79 675.90 C 392.74 675.88 396.69 675.93 400.61 676.43 C 401.53 680.24 401.02 684.17 401.24 688.06 C 403.44 688.06 405.54 686.47 404.96 684.06 C 405.81 679.02 401.61 675.63 398.14 672.85 C 395.49 671.17 392.82 669.54 390.30 667.69 C 387.21 661.11 387.37 653.33 389.51 646.52 Z" />
<path fill="#002a6a" opacity="1.00" d=" M 918.43 641.55 C 925.16 640.34 933.76 641.00 937.73 647.43 C 941.66 654.20 941.25 662.40 941.39 669.97 C 941.09 677.65 941.71 686.20 936.81 692.68 C 929.95 699.89 916.36 700.06 910.19 691.83 C 907.99 688.26 906.78 684.08 906.74 679.89 C 906.40 671.39 906.37 662.82 907.35 654.36 C 908.01 648.41 912.28 642.55 918.43 641.55 M 922.09 651.79 C 922.17 663.92 921.79 676.07 922.18 688.20 C 925.17 688.33 925.94 685.49 925.79 683.05 C 925.89 672.58 926.01 662.11 925.87 651.65 C 924.60 651.67 923.34 651.72 922.09 651.79 Z" />
<path fill="#002a6a" opacity="1.00" d=" M 1212.61 643.65 C 1216.48 640.89 1221.51 640.79 1226.08 640.99 C 1232.40 641.24 1237.67 646.87 1238.53 652.96 C 1239.21 656.64 1238.82 660.42 1238.93 664.15 C 1234.17 665.59 1229.08 665.00 1224.18 665.09 C 1223.95 660.57 1224.41 656.03 1223.88 651.54 C 1223.15 651.50 1221.69 651.41 1220.96 651.36 C 1220.79 663.44 1220.78 675.53 1221.23 687.60 C 1221.80 687.58 1222.95 687.54 1223.52 687.52 C 1224.83 682.51 1223.61 677.34 1224.23 672.26 C 1229.18 672.02 1234.20 671.86 1239.11 672.75 C 1239.11 679.02 1239.03 685.64 1236.22 691.39 C 1234.27 695.13 1229.25 695.00 1226.41 697.45 C 1226.89 699.96 1231.19 700.87 1230.37 703.93 C 1229.70 709.69 1222.65 712.99 1217.72 710.12 C 1218.69 708.42 1218.63 705.69 1220.86 705.06 C 1219.76 702.57 1219.26 699.66 1217.31 697.66 C 1215.17 696.10 1212.49 695.30 1210.68 693.30 C 1207.92 690.20 1206.05 686.18 1206.06 681.97 C 1205.86 673.65 1205.80 665.33 1205.91 657.02 C 1205.91 651.87 1208.20 646.50 1212.61 643.65 Z" />
<path fill="#002a6a" opacity="1.00" d=" M 1296.43 641.49 C 1302.16 640.60 1308.72 640.88 1313.44 644.68 C 1316.40 646.82 1318.18 650.40 1318.18 654.06 C 1318.70 662.60 1318.89 671.18 1318.58 679.74 C 1318.25 684.10 1318.41 688.98 1315.45 692.56 C 1310.91 697.08 1304.08 698.52 1297.89 697.75 C 1292.68 697.15 1288.58 693.11 1286.43 688.54 C 1284.52 681.87 1285.28 674.85 1285.09 668.01 C 1285.21 661.98 1284.44 655.80 1286.18 649.92 C 1287.64 645.42 1291.79 642.18 1296.43 641.49 M 1299.91 651.09 C 1299.14 663.41 1299.28 675.79 1299.75 688.12 C 1301.53 687.86 1304.47 687.68 1304.00 685.08 C 1304.49 674.35 1304.58 663.59 1304.41 652.86 C 1303.74 650.94 1301.42 651.50 1299.91 651.09 Z" />
<path fill="#002a6a" opacity="1.00" d=" M 1488.33 645.24 C 1493.27 640.58 1500.54 641.00 1506.81 641.64 C 1510.72 641.98 1514.19 644.79 1515.63 648.42 C 1517.54 653.09 1517.19 658.25 1517.33 663.20 C 1512.43 662.91 1507.53 663.29 1502.65 663.32 C 1502.60 659.35 1502.76 655.39 1502.57 651.43 C 1501.90 651.53 1500.55 651.74 1499.88 651.85 C 1499.69 657.11 1498.21 662.64 1499.72 667.79 C 1499.10 673.86 1499.39 679.96 1499.79 686.03 C 1500.12 686.57 1500.78 687.63 1501.11 688.17 C 1501.54 687.61 1502.39 686.51 1502.82 685.95 C 1502.77 681.55 1502.83 676.92 1500.91 672.86 C 1500.04 671.10 1500.16 669.11 1499.98 667.24 C 1505.76 666.67 1511.58 667.01 1517.39 666.85 C 1518.02 672.88 1517.52 678.95 1517.66 685.00 C 1517.56 689.03 1518.19 693.14 1517.20 697.11 C 1513.44 696.70 1508.79 698.16 1505.93 695.02 C 1504.86 695.65 1503.82 696.28 1502.79 696.91 C 1498.59 697.67 1493.77 698.21 1489.91 696.07 C 1485.48 692.52 1485.00 686.33 1484.46 681.09 C 1484.06 673.04 1484.17 664.96 1484.46 656.91 C 1484.86 652.85 1484.56 647.88 1488.33 645.24 Z" />
<path fill="#002a6a" opacity="1.00" d=" M 210.25 652.07 C 210.33 648.54 209.76 644.96 210.60 641.48 C 218.71 642.26 226.87 641.71 235.01 641.94 C 234.95 645.86 235.84 649.92 234.74 653.77 C 231.85 654.81 228.47 653.76 225.76 655.57 C 225.70 657.55 225.65 659.53 225.61 661.52 C 228.74 661.99 231.90 662.19 235.04 662.65 C 235.05 666.32 235.45 670.01 235.06 673.68 C 232.33 674.41 229.46 674.22 226.66 674.53 C 225.74 677.46 225.61 680.53 225.68 683.58 C 228.78 684.39 231.98 684.40 235.16 684.24 C 235.88 688.48 235.98 692.84 235.48 697.12 C 227.28 696.59 219.07 697.06 210.87 696.86 C 209.95 693.64 210.61 690.27 210.49 687.00 C 210.44 675.35 210.25 663.71 210.25 652.07 Z" />
<path fill="#002a6a" opacity="1.00" d=" M 240.17 641.79 C 250.62 641.77 261.06 641.87 271.51 641.98 C 271.56 646.04 271.25 650.10 271.12 654.16 C 268.71 654.06 266.30 653.96 263.89 653.90 C 263.41 668.19 263.89 682.50 263.67 696.80 C 258.77 697.08 253.85 696.70 248.94 696.82 C 248.85 682.61 249.15 668.40 248.86 654.20 C 246.26 654.26 243.67 654.36 241.08 654.16 C 240.63 650.05 240.28 645.92 240.17 641.79 Z" />
<path fill="#002a6a" opacity="1.00" d=" M 316.80 641.51 C 325.05 642.27 333.42 641.18 341.60 642.62 C 346.42 643.41 348.35 648.62 348.91 652.88 C 349.10 656.77 349.49 660.94 347.72 664.55 C 347.05 664.65 345.73 664.85 345.07 664.95 C 344.78 665.99 343.98 667.15 344.70 668.22 C 346.03 669.96 349.22 670.21 349.20 672.91 C 349.99 679.24 349.32 685.65 349.72 692.01 C 349.55 693.58 350.20 695.64 348.93 696.88 C 344.70 697.27 340.43 697.04 336.20 696.85 C 336.03 688.50 336.16 680.13 335.00 671.84 C 333.53 671.26 331.50 671.38 331.76 673.45 C 331.17 681.21 331.14 688.99 330.96 696.77 C 326.33 697.22 321.67 696.93 317.04 696.78 C 316.87 678.36 316.93 659.93 316.80 641.51 M 331.96 652.98 C 331.20 655.93 330.84 659.10 332.41 661.88 C 336.20 660.62 335.94 655.86 335.39 652.65 C 334.53 652.73 332.82 652.90 331.96 652.98 Z" />
<path fill="#002a6a" opacity="1.00" d=" M 356.72 641.84 C 364.93 641.85 373.15 642.18 381.37 642.01 C 381.51 646.25 381.39 650.52 380.66 654.72 C 377.79 654.12 374.88 653.68 371.95 653.70 C 371.75 656.37 371.78 659.06 371.72 661.74 C 374.52 663.32 377.85 662.46 380.91 662.81 C 380.90 666.82 380.85 670.83 380.64 674.84 C 377.85 674.52 374.84 673.21 372.13 674.19 C 371.01 677.54 372.02 681.20 372.36 684.64 C 375.35 685.03 379.00 683.45 381.56 685.23 C 381.87 688.89 383.21 693.28 381.77 696.65 C 373.53 697.11 365.23 696.79 356.98 696.90 C 357.10 678.54 356.59 660.19 356.72 641.84 Z" />
<path fill="#002a6a" opacity="1.00" d=" M 448.70 641.67 C 456.43 642.07 464.20 641.57 471.92 642.35 C 477.26 642.87 481.28 647.90 481.56 653.11 C 482.17 662.38 481.83 671.69 481.90 680.98 C 481.80 684.77 482.14 688.86 480.34 692.33 C 478.28 694.20 475.42 694.89 472.82 695.71 C 464.75 697.32 456.47 697.16 448.28 696.94 C 448.69 678.52 448.27 660.09 448.70 641.67 M 464.37 652.36 C 464.08 652.55 463.51 652.92 463.22 653.10 C 463.08 664.06 463.31 675.05 463.45 686.01 C 465.41 687.79 466.85 684.77 466.78 683.06 C 466.63 673.41 466.97 663.74 466.55 654.10 C 466.65 652.82 465.50 652.18 464.37 652.36 Z" />
<path fill="#002a6a" opacity="1.00" d=" M 488.83 641.88 C 497.20 642.29 505.62 641.73 513.95 642.71 C 513.81 646.64 514.20 650.75 512.77 654.51 C 509.53 654.29 505.98 653.55 503.19 655.72 C 503.61 657.77 504.03 659.83 504.44 661.90 C 507.14 663.36 510.40 662.43 513.06 663.97 C 512.84 667.27 513.13 670.65 512.18 673.86 C 509.32 673.96 506.20 673.70 503.87 675.66 C 503.88 678.14 503.73 680.64 503.94 683.14 C 506.13 686.29 510.69 684.69 513.92 685.78 C 514.08 689.34 514.37 692.89 514.64 696.45 C 506.14 697.01 497.58 696.82 489.06 696.72 C 488.87 678.44 488.95 660.16 488.83 641.88 Z" />
<path fill="#002a6a" opacity="1.00" d=" M 547.93 644.97 C 548.04 643.79 548.16 641.62 549.95 642.03 C 556.42 642.08 562.91 642.12 569.36 642.62 C 570.22 644.28 569.94 646.26 570.22 648.07 C 570.85 656.72 572.51 665.22 573.73 673.79 C 574.39 681.49 575.65 689.14 575.90 696.87 C 571.00 697.11 566.11 696.69 561.23 696.70 C 561.59 693.54 561.44 690.36 561.00 687.22 C 559.73 687.19 558.47 687.17 557.21 687.17 C 556.94 690.30 556.69 693.45 556.44 696.59 C 551.54 697.13 546.61 696.93 541.71 696.58 C 542.78 683.99 545.22 671.55 546.13 658.95 C 546.51 654.26 547.39 649.64 547.93 644.97 M 557.96 660.05 C 557.76 665.50 557.50 670.95 557.05 676.39 C 558.61 676.64 560.86 676.18 560.35 674.03 C 559.65 669.41 560.25 664.20 557.96 660.05 Z" />
<path fill="#002a6a" opacity="1.00" d=" M 580.24 642.22 C 590.57 641.86 600.92 642.21 611.26 642.07 C 611.30 645.89 611.36 649.72 611.09 653.54 C 608.69 653.94 606.29 654.32 603.91 654.77 C 603.78 668.78 603.79 682.79 603.58 696.80 C 598.71 697.12 593.84 696.78 588.98 696.81 C 589.02 682.58 589.14 668.34 588.76 654.12 C 586.25 653.75 583.01 654.87 581.12 652.76 C 580.51 649.28 580.09 645.75 580.24 642.22 Z" />
<path fill="#002a6a" opacity="1.00" d=" M 617.05 641.89 C 625.23 641.76 633.40 642.23 641.59 642.04 C 641.65 646.25 641.55 650.47 641.38 654.70 C 638.17 654.59 634.88 653.74 631.79 654.96 C 631.88 657.37 632.06 659.78 632.25 662.20 C 635.13 662.83 638.09 662.74 641.02 662.74 C 640.89 666.68 640.85 670.62 640.62 674.55 C 637.77 674.49 634.45 673.35 631.93 675.16 C 631.55 678.15 631.28 681.73 632.70 684.49 C 635.55 685.31 638.95 683.84 641.45 685.69 C 642.18 689.36 642.11 693.14 642.30 696.87 C 633.85 696.99 625.40 696.86 616.96 696.86 C 617.00 678.53 617.11 660.21 617.05 641.89 Z" />
<path fill="#002a6a" opacity="1.00" d=" M 648.21 641.84 C 652.65 641.95 657.11 641.87 661.52 642.41 C 663.28 649.54 664.34 656.80 665.03 664.11 C 668.00 657.22 667.92 649.53 667.85 642.17 C 671.81 641.85 675.78 641.96 679.74 642.22 C 680.11 660.41 679.89 678.62 679.72 696.81 C 675.47 696.93 670.89 697.67 666.86 696.18 C 665.04 688.72 664.28 681.06 662.87 673.53 C 662.60 674.00 662.04 674.93 661.77 675.39 C 660.34 682.44 661.44 689.68 660.88 696.79 C 656.83 697.33 652.72 696.95 648.65 697.04 C 648.13 678.64 647.89 660.24 648.21 641.84 Z" />
<path fill="#002a6a" opacity="1.00" d=" M 688.81 641.84 C 696.84 641.95 704.90 641.69 712.91 642.45 C 716.54 642.69 718.64 646.07 720.26 648.93 C 722.27 653.34 721.66 658.32 721.83 663.02 C 721.71 672.03 722.16 681.11 720.97 690.06 C 720.66 693.64 716.76 694.90 713.84 695.72 C 705.62 697.32 697.21 696.83 688.89 697.04 C 688.48 678.64 688.26 660.23 688.81 641.84 M 703.34 652.30 C 702.87 663.57 703.49 674.85 703.14 686.13 C 703.94 686.36 704.76 686.59 705.58 686.81 C 707.61 683.20 706.62 678.97 706.82 675.04 C 706.55 667.42 707.38 659.66 705.98 652.13 C 705.32 652.17 704.00 652.25 703.34 652.30 Z" />
<path fill="#002a6a" opacity="1.00" d=" M 727.78 641.92 C 732.52 641.97 737.26 641.98 742.00 641.99 C 742.64 660.31 741.92 678.65 742.56 696.97 C 737.74 697.02 732.92 696.86 728.11 696.78 C 728.02 678.50 728.31 660.20 727.78 641.92 Z" />
<path fill="#002a6a" opacity="1.00" d=" M 749.89 642.05 C 756.51 641.84 763.13 642.14 769.75 642.19 C 770.59 650.90 771.39 659.62 773.04 668.23 C 774.34 659.49 773.53 650.59 774.64 641.86 C 781.11 642.10 787.59 642.18 794.06 642.13 C 795.11 660.33 793.93 678.60 794.79 696.81 C 790.57 697.15 786.34 696.85 782.12 696.73 C 782.08 685.05 782.38 673.36 781.59 661.70 C 780.49 673.31 778.92 684.87 778.31 696.52 C 774.68 697.16 770.99 697.22 767.35 696.78 C 766.15 686.07 764.19 675.47 762.97 664.77 C 762.15 668.97 762.65 673.28 762.81 677.53 C 763.16 683.97 763.03 690.43 763.19 696.89 C 758.69 697.01 754.20 696.93 749.71 696.94 C 749.66 678.64 749.81 660.35 749.89 642.05 Z" />
<path fill="#002a6a" opacity="1.00" d=" M 801.83 642.02 C 809.91 641.75 817.99 642.30 826.07 642.01 C 826.32 646.20 826.87 650.53 825.57 654.62 C 822.86 654.78 819.84 654.01 817.39 655.41 C 816.21 657.46 817.15 659.92 817.18 662.14 C 820.06 662.46 822.99 662.46 825.88 662.90 C 825.85 666.70 825.96 670.53 825.32 674.30 C 822.77 674.22 820.23 674.23 817.74 674.67 C 816.73 677.56 816.40 680.80 817.28 683.76 C 820.00 685.12 823.23 684.29 826.17 684.66 C 826.91 688.69 826.87 692.81 827.11 696.89 C 818.73 696.99 810.34 696.99 801.97 696.82 C 801.79 678.55 801.83 660.29 801.83 642.02 Z" />
<path fill="#002a6a" opacity="1.00" d=" M 833.07 641.84 C 837.29 642.01 841.53 641.94 845.74 642.38 C 845.92 642.61 846.27 643.06 846.44 643.29 C 848.35 650.24 849.38 657.58 852.56 664.11 C 852.40 656.75 852.21 649.38 852.66 642.04 C 857.02 642.12 861.38 642.07 865.74 642.17 C 865.75 660.38 865.66 678.59 865.76 696.80 C 861.59 696.91 857.40 697.17 853.25 696.73 C 851.85 696.22 851.82 694.58 851.41 693.41 C 849.64 686.95 848.57 680.32 846.94 673.84 L 845.56 673.06 C 845.30 680.90 846.70 688.94 845.85 696.67 C 841.67 697.45 837.37 696.94 833.15 696.91 C 833.00 678.56 832.84 660.20 833.07 641.84 Z" />
<path fill="#002a6a" opacity="1.00" d=" M 870.18 641.98 C 880.67 641.87 891.17 642.22 901.66 641.99 C 901.79 645.83 901.77 649.86 900.51 653.53 C 898.93 654.55 896.78 653.96 894.99 654.28 C 894.01 668.10 894.40 681.98 894.77 695.82 L 894.44 696.51 C 889.28 697.15 884.05 696.53 878.87 696.85 C 877.72 693.35 878.36 689.61 878.21 686.01 C 878.09 675.35 878.93 664.66 878.21 654.01 C 875.70 653.85 872.71 654.93 870.54 653.32 C 870.00 649.57 870.16 645.75 870.18 641.98 Z" />
<path fill="#002a6a" opacity="1.00" d=" M 975.04 642.10 C 982.30 641.92 989.61 641.83 996.84 642.67 C 997.88 652.81 998.70 662.99 1000.57 673.02 C 1001.80 681.00 1003.00 689.02 1003.29 697.10 C 998.49 696.96 993.69 696.98 988.90 696.81 C 988.61 693.78 988.88 690.71 988.42 687.71 C 987.37 686.23 985.43 686.96 983.96 686.78 C 983.63 690.19 983.45 693.63 983.29 697.06 C 978.47 697.08 973.65 696.99 968.84 696.81 C 969.77 689.86 969.92 682.82 971.29 675.94 C 973.30 664.75 973.51 653.34 975.04 642.10 M 984.85 677.44 C 988.93 676.50 988.17 671.58 986.36 668.92 C 983.85 671.06 984.52 674.54 984.85 677.44 Z" />
<path fill="#002a6a" opacity="1.00" d=" M 1008.19 642.13 C 1018.55 641.91 1028.91 642.17 1039.27 642.05 C 1039.30 645.89 1039.32 649.73 1039.08 653.56 C 1036.67 653.94 1034.27 654.32 1031.91 654.89 C 1031.78 668.76 1031.93 682.65 1031.54 696.51 C 1026.82 697.52 1021.80 696.55 1016.97 696.86 C 1016.99 682.61 1017.25 668.36 1016.72 654.12 C 1014.26 654.04 1011.74 654.29 1009.38 653.56 C 1008.63 649.80 1008.21 645.96 1008.19 642.13 Z" />
<path fill="#002a6a" opacity="1.00" d=" M 1045.06 641.90 C 1053.18 641.78 1061.31 642.33 1069.44 642.03 C 1069.58 646.28 1069.43 650.54 1069.27 654.80 C 1066.11 654.65 1062.82 653.51 1059.80 654.92 C 1060.06 657.38 1059.57 660.16 1060.69 662.42 C 1063.37 663.23 1066.23 662.70 1069.00 662.79 C 1068.86 666.75 1068.82 670.72 1068.69 674.68 C 1065.79 674.56 1061.51 672.83 1059.67 675.82 C 1059.84 678.67 1059.29 681.81 1060.59 684.45 C 1063.19 684.96 1065.86 684.72 1068.49 684.61 C 1070.89 688.18 1069.77 692.84 1070.23 696.91 C 1061.79 696.95 1053.36 696.85 1044.93 696.88 C 1044.91 678.55 1045.08 660.23 1045.06 641.90 Z" />
<path fill="#002a6a" opacity="1.00" d=" M 1076.40 642.24 C 1078.67 641.23 1081.46 642.03 1083.94 641.84 C 1090.75 642.22 1097.86 641.28 1104.37 643.77 C 1107.94 650.05 1107.45 657.60 1107.28 664.56 C 1105.30 664.91 1103.36 665.42 1101.49 666.16 C 1102.80 668.18 1104.55 669.87 1106.97 670.47 C 1108.63 679.10 1107.83 688.04 1107.76 696.78 C 1103.48 697.23 1099.17 697.13 1094.91 696.69 C 1094.17 688.81 1094.54 680.87 1094.01 672.99 C 1093.90 671.05 1092.17 671.37 1090.80 671.39 C 1090.72 679.80 1090.45 688.21 1090.70 696.63 C 1086.03 697.33 1081.31 696.99 1076.61 697.03 C 1075.97 680.68 1076.16 664.31 1076.10 647.96 C 1076.10 646.04 1076.07 644.12 1076.40 642.24 M 1090.88 652.61 C 1090.10 655.53 1090.36 658.60 1090.41 661.60 C 1092.32 662.11 1094.62 661.18 1094.53 658.92 C 1095.09 656.33 1094.88 651.07 1090.88 652.61 Z" />
<path fill="#002a6a" opacity="1.00" d=" M 1114.70 641.95 C 1121.34 642.33 1128.02 641.82 1134.64 642.42 C 1135.76 650.79 1136.65 659.20 1138.45 667.47 C 1138.67 659.03 1139.60 650.63 1139.82 642.20 C 1146.23 641.51 1152.69 642.11 1159.12 642.22 C 1159.92 660.48 1158.67 678.77 1159.17 697.05 C 1155.26 697.10 1151.34 697.15 1147.45 696.81 C 1147.17 686.47 1146.98 676.11 1145.77 665.82 C 1144.71 676.13 1143.95 686.45 1143.26 696.79 C 1139.75 696.86 1136.25 696.94 1132.76 696.95 C 1131.23 686.91 1130.59 676.77 1129.41 666.70 C 1129.18 676.73 1127.92 686.71 1127.71 696.75 C 1123.49 697.29 1119.24 697.15 1115.03 696.87 C 1114.84 682.24 1114.72 667.62 1114.37 652.99 C 1114.38 649.31 1113.97 645.59 1114.70 641.95 Z" />
<path fill="#002a6a" opacity="1.00" d=" M 1172.26 642.08 C 1179.43 641.64 1186.62 642.12 1193.80 642.14 C 1194.64 660.51 1198.85 678.55 1199.98 696.89 C 1195.01 697.16 1190.05 696.79 1185.10 696.78 C 1185.35 693.60 1185.48 690.40 1184.94 687.26 C 1183.67 687.21 1182.42 687.19 1181.17 687.18 C 1180.95 690.25 1181.15 693.39 1180.46 696.41 C 1175.84 697.57 1170.76 696.72 1165.98 696.81 C 1166.85 684.49 1169.31 672.31 1170.00 659.96 C 1170.03 653.91 1172.15 648.13 1172.26 642.08 M 1181.70 659.68 C 1181.58 665.45 1181.31 671.22 1181.27 676.99 C 1182.50 676.80 1183.62 676.25 1184.64 675.52 C 1183.85 671.36 1183.40 667.16 1182.99 662.97 C 1182.99 661.70 1182.54 660.58 1181.70 659.68 Z" />
<path fill="#002a6a" opacity="1.00" d=" M 1346.37 642.30 C 1356.82 641.67 1367.33 642.44 1377.82 642.01 C 1377.68 645.72 1378.19 649.54 1377.28 653.19 C 1375.50 654.64 1372.88 654.02 1370.75 654.50 C 1370.57 668.54 1370.64 682.59 1370.69 696.64 C 1365.14 696.82 1359.51 697.17 1354.01 696.31 C 1354.18 682.24 1354.73 668.14 1354.10 654.08 C 1351.72 654.09 1349.36 654.12 1347.01 654.11 C 1346.12 650.27 1345.65 646.19 1346.37 642.30 Z" />
<path fill="#002a6a" opacity="1.00" d=" M 1384.20 696.87 C 1384.39 678.49 1383.86 660.10 1384.59 641.74 C 1391.75 641.92 1398.92 641.80 1406.08 642.25 C 1409.03 642.47 1412.84 643.04 1413.63 646.49 C 1415.69 652.19 1415.68 658.60 1415.22 664.59 C 1413.30 664.97 1411.42 665.44 1409.57 666.00 C 1410.52 668.38 1412.39 670.08 1415.01 670.44 C 1416.08 673.87 1415.84 677.50 1415.95 681.05 C 1415.91 686.29 1416.21 691.55 1415.77 696.79 C 1411.48 697.24 1407.15 697.15 1402.87 696.66 C 1402.16 688.78 1402.50 680.86 1402.03 672.99 C 1401.90 671.12 1400.14 671.33 1398.80 671.38 C 1398.73 679.76 1398.29 688.13 1398.52 696.51 C 1393.77 697.17 1388.97 696.81 1384.20 696.87 M 1398.22 653.78 C 1398.36 656.41 1398.39 659.04 1398.42 661.68 C 1403.68 662.27 1403.49 655.25 1401.35 652.21 C 1400.57 652.60 1399.01 653.39 1398.22 653.78 Z" />
<path fill="#002a6a" opacity="1.00" d=" M 1422.63 641.95 C 1427.52 642.24 1432.43 642.34 1437.34 642.06 C 1438.33 647.63 1437.62 653.32 1437.75 658.95 C 1437.51 671.60 1437.94 684.30 1437.31 696.92 C 1432.50 696.89 1427.70 696.92 1422.91 696.79 C 1422.55 681.89 1422.65 666.98 1422.28 652.09 C 1422.30 648.70 1421.80 645.27 1422.63 641.95 Z" />
<path fill="#002a6a" opacity="1.00" d=" M 1449.40 642.27 C 1456.58 641.90 1463.88 641.81 1471.03 642.68 C 1470.82 648.14 1471.71 653.56 1472.48 658.95 C 1473.89 667.59 1474.32 676.36 1475.83 684.99 C 1476.35 689.01 1477.63 692.97 1477.41 697.06 C 1471.92 696.95 1466.43 696.79 1460.97 696.44 C 1455.04 696.88 1449.10 697.09 1443.16 696.83 C 1444.66 685.18 1445.10 673.40 1446.66 661.76 C 1448.35 655.38 1448.77 648.80 1449.40 642.27 M 1458.10 676.30 C 1459.44 676.69 1461.71 676.99 1461.71 674.95 C 1461.68 669.60 1461.57 664.17 1460.25 658.97 C 1458.87 664.66 1460.07 670.70 1458.10 676.30 M 1457.84 687.64 C 1457.97 690.56 1458.04 693.49 1458.24 696.42 C 1459.26 696.37 1461.29 696.26 1462.30 696.21 C 1462.35 693.37 1462.34 690.54 1462.08 687.72 C 1460.65 687.66 1459.24 687.64 1457.84 687.64 Z" />
<path fill="#002a6a" opacity="1.00" d=" M 1524.02 641.83 C 1531.95 641.72 1539.88 642.04 1547.81 642.19 C 1547.90 646.36 1548.00 650.53 1547.75 654.69 C 1544.81 654.94 1541.62 653.83 1538.92 655.17 C 1538.03 657.35 1538.73 659.83 1538.69 662.14 C 1541.66 662.35 1544.67 662.40 1547.60 663.09 C 1547.58 666.90 1547.67 670.71 1547.53 674.52 C 1544.76 674.74 1541.76 674.03 1539.17 675.16 C 1538.07 677.87 1538.23 681.16 1539.13 683.95 C 1541.85 685.16 1544.92 684.19 1547.81 684.44 C 1549.42 685.34 1548.71 687.52 1549.07 689.05 C 1549.18 691.62 1549.28 694.21 1549.25 696.80 C 1540.99 696.67 1532.64 697.32 1524.45 696.62 C 1523.83 678.38 1524.37 660.08 1524.02 641.83 Z" />
<path fill="#002a6a" opacity="1.00" d=" M 1554.83 641.87 C 1561.46 642.25 1568.14 641.80 1574.76 642.46 C 1576.11 650.83 1576.74 659.33 1578.42 667.66 C 1578.74 659.15 1579.52 650.67 1579.93 642.16 C 1586.14 641.81 1592.39 641.90 1598.61 642.29 C 1599.64 647.38 1598.81 652.77 1599.12 657.98 C 1599.37 671.01 1599.68 684.03 1599.45 697.06 C 1595.43 697.05 1591.41 697.16 1587.41 696.78 C 1587.13 686.46 1587.05 676.13 1585.97 665.84 C 1584.83 676.10 1584.11 686.40 1583.54 696.70 C 1579.87 696.61 1575.88 697.58 1572.42 696.49 C 1571.20 686.63 1570.66 676.69 1569.68 666.81 C 1569.44 676.81 1568.21 686.78 1567.82 696.79 C 1563.53 697.26 1559.21 697.11 1554.92 697.00 C 1554.67 678.63 1553.81 660.22 1554.83 641.87 Z" />
<path fill="#002a6a" opacity="1.00" d=" M 1250.88 642.28 C 1256.62 642.11 1262.36 642.78 1268.10 642.36 C 1269.70 642.14 1271.28 642.59 1272.85 642.97 C 1273.84 653.64 1274.68 664.33 1276.46 674.90 C 1277.30 682.23 1279.10 689.47 1279.24 696.87 C 1274.47 696.99 1269.69 696.98 1264.93 696.76 C 1264.49 693.33 1265.24 689.66 1263.57 686.50 C 1262.69 686.59 1260.93 686.76 1260.05 686.85 C 1259.65 690.23 1259.39 693.62 1259.09 697.02 C 1254.31 697.14 1249.55 697.04 1244.79 696.84 C 1245.48 683.79 1248.83 671.05 1249.25 657.99 C 1250.31 652.80 1249.41 647.38 1250.88 642.28 M 1261.19 659.98 C 1261.43 662.82 1261.34 665.69 1261.57 668.55 C 1260.52 671.41 1259.88 674.57 1260.99 677.55 C 1264.79 676.16 1263.14 671.47 1262.47 668.56 C 1262.56 665.66 1263.04 662.44 1261.19 659.98 Z" />
</g>
<g id="#de984dff">
<path fill="#de984d" opacity="1.00" d=" M 524.09 319.21 C 525.86 315.86 527.12 311.27 531.21 310.12 C 534.52 310.58 536.05 313.96 537.36 316.62 C 546.77 337.73 555.49 359.14 564.72 380.32 C 566.30 384.04 568.30 387.64 569.10 391.65 L 568.75 391.55 C 568.81 391.67 568.93 391.89 568.99 392.00 C 565.12 393.15 561.01 392.67 557.04 393.09 C 554.67 393.07 551.18 393.80 550.08 391.01 C 546.27 382.96 543.47 374.45 539.39 366.52 C 538.37 363.84 535.12 364.78 532.95 364.89 C 528.01 365.67 523.05 364.80 518.11 364.69 C 516.86 365.69 516.34 367.27 515.62 368.64 C 511.97 376.43 508.55 384.34 504.77 392.08 C 500.56 392.84 496.26 392.94 492.00 392.60 C 493.20 387.99 495.71 383.92 497.49 379.55 C 505.99 359.27 515.03 339.23 524.09 319.21 M 527.28 343.23 C 525.65 346.26 523.93 349.35 523.56 352.85 C 526.27 352.87 528.98 352.79 531.70 352.64 C 532.35 349.29 531.02 346.19 529.45 343.33 C 528.91 343.31 527.82 343.25 527.28 343.23 Z" />
<path fill="#de984d" opacity="1.00" d=" M 1008.13 320.94 C 1011.77 315.42 1017.74 311.83 1024.07 310.23 C 1032.51 308.66 1041.30 310.97 1048.49 315.48 C 1049.66 316.30 1051.11 317.33 1051.09 318.96 C 1051.42 322.75 1051.16 326.56 1050.90 330.35 C 1047.74 330.08 1045.53 327.63 1042.94 326.12 C 1038.07 322.97 1032.12 321.11 1026.34 322.44 C 1023.23 323.64 1019.92 325.77 1019.38 329.35 C 1018.13 333.24 1020.92 336.95 1024.23 338.68 C 1033.90 344.07 1044.81 348.35 1051.78 357.37 C 1055.81 362.46 1056.53 369.53 1054.64 375.62 C 1052.34 384.56 1044.68 391.18 1036.28 394.33 C 1027.47 397.18 1017.71 395.67 1009.57 391.51 C 1006.82 390.12 1003.46 388.41 1003.05 384.99 C 1002.70 381.65 1002.68 378.25 1003.08 374.91 L 1004.04 374.17 C 1011.11 379.13 1019.07 384.12 1028.05 383.96 C 1031.42 384.11 1034.47 382.14 1036.68 379.75 C 1039.46 377.08 1039.29 372.78 1038.58 369.31 C 1036.11 364.44 1030.58 362.53 1026.10 360.02 C 1017.86 355.76 1008.24 351.34 1004.75 342.05 C 1002.60 335.03 1003.57 326.84 1008.13 320.94 Z" />
<path fill="#de984d" opacity="1.00" d=" M 1478.57 312.54 C 1480.11 309.98 1484.13 309.53 1485.84 312.18 C 1488.63 316.34 1490.12 321.20 1492.27 325.70 C 1501.45 346.10 1509.58 366.95 1518.76 387.34 C 1519.10 388.93 1520.91 391.07 1519.50 392.49 C 1515.37 393.05 1511.18 392.85 1507.04 393.14 C 1504.62 393.38 1501.74 392.79 1500.76 390.30 C 1496.67 382.11 1494.29 373.15 1489.61 365.24 C 1482.66 364.33 1475.63 365.40 1468.68 364.44 C 1463.93 373.36 1460.22 382.77 1455.81 391.85 C 1451.79 393.53 1447.44 393.17 1443.26 392.46 C 1446.00 384.20 1450.10 376.46 1453.35 368.38 C 1459.28 354.65 1465.46 341.03 1471.35 327.27 C 1473.56 322.28 1475.64 317.17 1478.57 312.54 M 1475.03 352.86 C 1477.64 352.86 1480.26 352.81 1482.90 352.72 C 1483.19 348.32 1481.52 343.91 1478.01 341.17 C 1475.78 344.64 1475.11 348.81 1475.03 352.86 Z" />
<path fill="#de984d" opacity="1.00" d=" M 760.37 311.47 C 769.41 310.59 778.94 311.62 787.08 315.87 C 797.48 320.89 805.27 330.90 807.90 342.11 C 811.56 355.87 807.99 371.63 798.02 381.94 C 789.79 390.61 777.63 394.43 765.98 395.20 C 753.90 395.12 741.43 390.69 732.81 382.04 C 718.06 367.31 717.27 341.41 730.63 325.54 C 738.16 317.12 749.17 312.20 760.37 311.47 M 756.46 323.65 C 751.07 325.68 746.44 329.76 743.91 334.96 C 740.11 342.67 739.26 351.57 740.13 360.03 C 741.14 365.75 742.63 371.86 746.90 376.08 C 752.40 380.80 759.73 383.54 767.03 382.90 C 775.64 382.84 784.23 377.71 787.54 369.62 C 791.31 360.05 791.37 349.25 788.57 339.42 C 786.97 333.54 783.01 328.34 777.78 325.24 C 771.19 322.17 763.44 321.62 756.46 323.65 Z" />
<path fill="#de984d" opacity="1.00" d=" M 1294.08 318.02 C 1302.03 312.78 1311.71 311.33 1321.03 310.85 C 1328.38 311.28 1335.91 312.84 1342.29 316.71 C 1346.67 319.61 1345.06 325.61 1344.94 330.01 C 1344.46 331.58 1342.84 330.49 1341.98 330.05 C 1339.44 328.63 1337.28 326.62 1334.63 325.42 C 1327.14 322.10 1318.53 321.61 1310.64 323.62 C 1301.43 326.79 1295.46 335.93 1294.39 345.36 C 1293.75 354.12 1293.17 363.53 1297.60 371.49 C 1300.61 377.85 1307.40 381.42 1314.06 382.68 C 1321.17 383.45 1328.79 382.87 1335.00 378.98 C 1338.43 376.79 1341.31 373.78 1344.98 371.92 C 1345.37 377.62 1346.23 385.27 1340.56 388.74 C 1331.77 394.08 1320.89 396.52 1310.75 394.38 C 1298.66 391.96 1286.46 385.47 1280.69 374.12 C 1276.08 364.91 1275.02 354.16 1276.46 344.05 C 1277.93 333.30 1284.51 323.27 1294.08 318.02 Z" />
<path fill="#de984d" opacity="1.00" d=" M 168.92 313.04 C 174.96 311.93 181.38 311.92 187.52 312.58 C 187.92 319.70 187.66 326.84 187.73 333.97 C 187.74 352.96 188.33 371.99 187.09 390.96 C 186.72 397.65 183.92 404.41 178.59 408.64 C 173.38 412.15 167.25 414.26 161.03 415.05 C 159.18 415.51 156.96 414.59 156.37 412.69 C 155.26 409.88 155.80 406.78 156.90 404.07 C 160.61 403.04 164.61 402.37 167.68 399.87 C 168.12 396.94 168.67 394.02 168.70 391.05 C 169.01 369.35 168.56 347.65 168.59 325.95 C 168.64 321.65 168.21 317.31 168.92 313.04 Z" />
<path fill="#de984d" opacity="1.00" d=" M 228.85 312.11 C 234.59 312.55 240.43 311.42 246.09 312.78 C 246.18 325.85 246.07 338.91 246.07 351.98 C 246.11 358.87 245.64 365.90 247.52 372.61 C 249.05 377.99 254.39 381.96 259.97 381.95 C 265.02 382.07 270.63 381.11 274.22 377.24 C 277.67 373.89 278.84 369.00 279.58 364.42 C 280.80 349.31 280.99 334.14 280.59 318.99 C 280.52 316.71 280.61 314.43 280.78 312.16 C 284.31 312.08 287.87 311.89 291.35 312.58 C 291.66 329.04 291.72 345.52 291.25 361.98 C 291.07 370.26 289.45 379.19 283.52 385.40 C 277.30 392.18 267.84 394.68 258.96 395.26 C 249.68 395.00 239.81 391.46 234.14 383.76 C 230.86 379.18 229.71 373.52 229.02 368.04 C 227.62 353.40 228.27 338.68 228.10 324.00 C 228.14 320.04 227.20 315.87 228.85 312.11 Z" />
<path fill="#de984d" opacity="1.00" d=" M 333.84 317.03 C 333.93 315.37 333.49 312.33 336.02 312.51 C 341.41 312.22 346.91 311.39 352.25 312.65 C 352.48 339.33 353.02 366.05 352.10 392.72 C 346.23 392.88 340.34 393.06 334.49 392.48 C 333.79 367.34 333.97 342.18 333.84 317.03 Z" />
<path fill="#de984d" opacity="1.00" d=" M 392.72 312.69 C 409.80 311.94 426.91 312.41 444.01 312.15 C 448.49 312.14 453.01 311.86 457.45 312.73 C 448.28 328.99 438.33 344.80 429.11 361.04 C 425.46 367.70 421.16 373.98 417.97 380.88 C 430.27 380.82 442.61 380.23 454.88 381.08 C 455.15 385.02 455.69 389.15 454.07 392.90 C 432.72 392.72 411.34 393.79 390.02 392.43 C 391.63 388.45 394.34 385.09 396.40 381.36 C 407.26 361.82 419.45 343.03 430.13 323.41 C 417.74 323.52 405.26 324.31 392.92 322.85 C 392.47 319.48 392.41 316.07 392.72 312.69 Z" />
<path fill="#de984d" opacity="1.00" d=" M 607.11 312.28 C 622.05 311.79 637.10 311.24 651.95 313.28 C 660.86 314.46 669.50 318.91 674.80 326.29 C 680.76 334.19 682.45 344.33 682.69 353.99 C 682.45 364.51 677.81 374.86 670.00 381.94 C 662.99 388.50 653.40 391.66 643.94 392.20 C 631.65 392.97 619.27 393.34 606.99 392.23 C 606.85 365.58 606.64 338.92 607.11 312.28 M 626.30 323.21 C 625.84 337.80 626.17 352.40 626.09 366.99 C 626.24 371.63 625.67 376.37 626.92 380.90 C 635.84 380.80 645.73 382.07 653.39 376.44 C 663.79 369.38 665.48 355.29 663.20 343.85 C 662.02 336.01 657.07 328.08 649.06 325.91 C 641.65 323.97 633.93 323.40 626.30 323.21 Z" />
<path fill="#de984d" opacity="1.00" d=" M 918.08 312.31 C 928.06 312.09 938.04 311.98 948.03 312.09 C 953.29 311.91 958.62 311.65 963.80 312.87 C 964.08 316.32 963.87 319.80 962.95 323.14 C 954.20 324.30 945.35 323.46 936.57 324.21 C 937.02 330.69 936.31 337.19 936.63 343.68 C 936.82 343.88 937.18 344.29 937.37 344.49 C 945.13 345.21 952.99 344.13 960.75 345.08 C 961.37 348.88 960.85 352.70 960.13 356.45 C 952.50 357.10 944.83 356.83 937.19 356.70 C 936.87 364.62 936.85 372.55 937.22 380.47 C 945.89 381.08 954.58 380.34 963.24 380.86 C 963.60 384.58 964.28 388.51 962.97 392.12 C 961.05 392.77 959.00 392.64 957.03 392.71 C 943.98 392.87 930.93 392.67 917.89 392.19 C 917.81 373.13 917.67 354.07 917.77 335.02 C 917.85 327.45 917.41 319.86 918.08 312.31 Z" />
<path fill="#de984d" opacity="1.00" d=" M 1094.93 312.64 C 1106.27 311.68 1117.80 311.33 1129.11 313.00 C 1138.57 314.27 1147.11 321.60 1149.18 331.03 C 1150.83 339.36 1147.17 348.43 1140.17 353.26 C 1132.60 358.35 1123.24 360.18 1114.24 360.21 C 1113.95 370.89 1114.17 381.58 1114.06 392.26 C 1107.80 392.52 1101.51 392.86 1095.27 392.19 C 1094.55 365.69 1095.14 339.16 1094.93 312.64 M 1115.45 323.36 C 1113.68 324.27 1114.27 326.41 1114.10 328.01 C 1114.06 334.66 1114.10 341.30 1114.23 347.95 C 1118.56 348.17 1123.27 347.75 1126.63 344.67 C 1131.90 340.68 1132.48 331.92 1127.71 327.33 C 1124.64 323.93 1119.70 323.70 1115.45 323.36 Z" />
<path fill="#de984d" opacity="1.00" d=" M 1188.92 312.22 C 1199.60 311.67 1210.31 311.93 1221.01 311.95 C 1225.69 312.14 1230.42 312.04 1235.05 312.89 C 1235.34 316.36 1235.44 319.93 1234.05 323.21 C 1225.28 324.11 1216.45 323.73 1207.66 323.85 C 1207.85 330.53 1207.00 337.24 1207.85 343.89 L 1208.31 344.48 C 1216.07 345.15 1223.90 344.24 1231.67 345.00 C 1231.91 348.90 1231.89 352.86 1230.88 356.66 C 1223.39 356.92 1215.88 356.97 1208.39 356.72 C 1207.17 364.57 1207.33 372.67 1208.32 380.55 C 1217.17 380.92 1226.04 380.26 1234.88 380.92 C 1235.03 384.86 1235.84 389.06 1234.06 392.77 C 1218.99 392.87 1203.91 393.07 1188.86 392.24 C 1188.83 365.57 1188.56 338.89 1188.92 312.22 Z" />
<path fill="#de984d" opacity="1.00" d=" M 1385.85 318.04 C 1386.02 316.21 1385.24 312.56 1388.04 312.60 C 1393.41 312.28 1398.90 311.66 1404.22 312.79 C 1404.22 339.43 1405.07 366.10 1404.07 392.73 C 1398.21 393.01 1392.33 392.85 1386.50 392.32 C 1385.79 367.57 1386.48 342.79 1385.85 318.04 Z" />
<path fill="#de984d" opacity="1.00" d=" M 1557.82 312.92 C 1563.82 312.44 1569.86 311.96 1575.89 312.40 C 1577.38 318.84 1576.17 325.50 1576.53 332.05 C 1576.95 348.29 1576.23 364.54 1576.85 380.77 C 1585.83 381.24 1594.91 380.16 1603.84 381.37 C 1605.73 384.62 1605.32 388.67 1604.07 392.09 C 1588.68 392.85 1573.27 392.44 1557.88 392.06 C 1557.85 365.68 1557.47 339.29 1557.82 312.92 Z" />
<path fill="#de984d" opacity="1.00" d=" M 144.26 698.13 C 145.83 699.00 147.39 699.93 148.69 701.19 C 154.93 707.01 161.36 712.64 167.37 718.70 C 169.62 721.09 172.50 722.97 175.92 722.68 C 200.95 722.86 225.99 722.56 251.03 722.47 C 304.03 722.66 357.04 722.17 410.04 722.27 C 509.37 722.17 608.70 721.98 708.03 721.48 C 779.35 721.41 850.67 721.22 921.99 721.18 C 942.66 721.32 963.32 720.70 983.99 720.86 C 1039.67 720.81 1095.35 720.92 1151.02 720.44 C 1210.00 719.98 1268.97 719.72 1327.96 719.50 C 1380.99 719.38 1434.03 719.48 1487.07 719.17 C 1515.36 718.24 1543.67 718.90 1571.97 718.49 C 1585.22 718.48 1598.50 718.15 1611.75 718.86 C 1611.94 723.50 1611.96 728.15 1611.85 732.80 C 1556.92 733.50 1501.97 733.10 1447.04 733.46 C 1396.37 733.55 1345.71 733.84 1295.05 734.16 C 1187.03 734.63 1079.00 734.45 970.98 735.14 C 912.32 735.22 853.65 735.65 794.98 735.87 C 680.67 737.13 566.33 736.39 452.01 736.94 C 445.02 737.38 438.02 736.41 431.04 737.17 C 359.04 737.42 287.04 737.67 215.05 737.82 C 201.70 738.69 188.30 738.18 174.94 738.73 C 172.55 738.81 170.14 739.61 168.38 741.28 C 162.17 747.13 156.64 753.64 150.84 759.89 C 148.97 761.35 147.17 763.94 144.52 763.57 C 139.91 761.43 136.57 757.44 133.02 753.93 C 126.95 748.00 121.06 741.90 115.27 735.69 C 113.99 734.26 112.60 732.81 112.01 730.94 C 112.51 729.04 113.93 727.62 115.20 726.21 C 122.69 718.37 130.17 710.51 137.98 702.99 C 139.86 701.11 142.03 699.55 144.26 698.13 Z" />
</g>
</svg>
