<?xml version="1.0" encoding="UTF-8" ?>
<!DOCTYPE svg PUBLIC "-//W3C//DTD SVG 1.1//EN" "http://www.w3.org/Graphics/SVG/1.1/DTD/svg11.dtd">
<svg width="1257pt" height="505pt" viewBox="0 0 1257 505" version="1.1" xmlns="http://www.w3.org/2000/svg">
<g id="#ffffffff">
</g>
<g id="#031a52ff">
<path fill="#031a52" opacity="1.00" d=" M 83.90 28.98 C 105.98 21.13 129.71 18.90 153.02 20.03 C 162.05 20.52 171.11 21.37 179.93 23.44 C 196.37 27.31 211.46 35.19 226.07 43.42 C 227.17 37.05 227.92 30.63 228.86 24.24 C 243.18 24.27 257.50 24.23 271.83 24.26 C 267.68 73.32 268.12 122.59 267.98 171.77 C 253.76 171.74 239.54 171.74 225.32 171.77 C 224.24 153.03 222.37 134.05 215.57 116.39 C 209.49 98.85 198.76 82.36 183.06 72.03 C 170.38 63.97 154.28 62.15 139.86 65.93 C 128.73 68.79 118.68 77.39 116.22 88.92 C 113.70 100.35 114.81 113.02 120.89 123.20 C 129.33 137.21 143.44 146.17 156.43 155.49 C 173.66 167.20 190.86 178.94 208.11 190.61 C 148.88 190.43 89.66 190.58 30.43 190.53 C 15.92 170.63 10.18 145.37 11.72 121.01 C 12.64 100.88 19.32 80.83 31.94 64.99 C 45.07 48.06 63.55 35.53 83.90 28.98 Z" />
<path fill="#031a52" opacity="1.00" d=" M 342.88 190.55 C 364.32 135.05 386.06 79.67 407.65 24.23 C 426.29 26.38 445.11 26.10 463.77 24.34 C 485.13 79.77 506.77 135.10 528.30 190.47 C 488.54 190.64 448.78 190.45 409.02 190.56 C 405.60 181.77 402.46 172.88 399.23 164.01 C 395.48 172.75 392.40 181.76 388.78 190.55 C 373.48 190.52 358.18 190.53 342.88 190.55 Z" />
<path fill="#031a52" opacity="1.00" d=" M 719.30 24.37 C 737.94 26.03 756.75 26.45 775.37 24.19 C 797.07 79.60 818.59 135.07 840.07 190.55 C 800.29 190.45 760.50 190.64 720.71 190.46 C 717.48 181.62 714.34 172.75 710.92 163.99 C 707.47 172.83 704.14 181.71 700.64 190.53 C 685.30 190.49 669.96 190.62 654.62 190.46 C 670.22 150.74 685.60 110.93 701.16 71.19 C 707.17 55.57 713.46 40.05 719.30 24.37 Z" />
<path fill="#031a52" opacity="1.00" d=" M 885.95 25.75 C 965.92 28.17 1045.94 27.86 1125.94 27.58 C 1161.53 27.45 1197.10 26.97 1232.67 25.74 C 1230.77 50.79 1228.98 75.86 1228.28 100.98 C 1227.33 128.26 1227.56 155.64 1230.98 182.77 C 1216.75 182.74 1202.52 182.77 1188.29 182.75 C 1184.22 161.24 1179.83 139.65 1172.10 119.09 C 1167.49 107.21 1161.89 95.36 1152.97 86.08 C 1143.39 75.84 1129.42 70.94 1115.68 70.12 C 1115.62 110.26 1115.67 150.40 1115.65 190.54 C 1078.13 190.57 1040.60 190.46 1003.08 190.59 C 1002.85 150.55 1003.03 110.50 1002.99 70.46 C 990.00 70.55 976.72 75.16 967.58 84.63 C 955.90 96.60 949.04 112.30 943.74 127.94 C 938.10 144.98 934.21 162.54 930.78 180.14 C 930.37 181.04 930.63 183.16 929.04 182.74 C 915.24 182.79 901.44 182.73 887.64 182.76 C 888.83 170.54 890.30 158.33 890.55 146.03 C 891.56 105.89 889.02 65.76 885.95 25.75 Z" />
<path fill="#031a52" opacity="1.00" d=" M 11.00 282.05 C 26.06 282.05 41.12 282.08 56.18 282.04 C 59.27 306.72 65.40 331.72 79.18 352.75 C 87.77 366.00 102.35 374.88 117.95 376.97 C 133.16 379.19 149.95 377.96 162.83 368.82 C 169.96 364.21 174.55 356.38 176.13 348.14 C 179.17 332.12 175.46 314.59 164.89 301.98 C 158.66 294.62 151.48 288.12 143.97 282.11 C 190.94 282.00 237.92 282.07 284.89 282.07 C 289.33 302.15 288.42 323.21 283.12 343.03 C 291.49 322.85 299.13 302.38 307.15 282.06 C 322.61 282.05 338.07 282.06 353.53 282.05 C 349.29 293.53 344.90 304.95 340.72 316.46 C 336.43 328.94 332.24 341.72 331.75 355.02 C 331.82 359.21 331.88 363.92 334.65 367.34 C 338.50 370.30 343.46 371.30 348.10 372.39 C 357.49 374.42 367.28 373.76 376.68 375.06 C 376.85 389.03 376.68 403.01 376.75 416.99 C 342.86 415.30 308.92 414.15 274.98 415.14 C 264.44 415.69 253.96 417.08 243.45 417.98 C 243.50 410.70 243.41 403.42 243.50 396.14 C 228.24 407.12 210.36 413.96 192.15 418.22 C 169.51 423.51 146.01 424.25 122.90 422.28 C 98.48 420.44 74.64 412.65 53.46 400.45 C 52.27 406.86 51.58 413.34 50.63 419.78 C 36.32 419.66 22.00 419.90 7.69 419.66 C 10.74 382.87 10.53 345.93 10.81 309.05 C 11.21 300.06 10.90 291.05 11.00 282.05 Z" />
<path fill="#031a52" opacity="1.00" d=" M 442.30 282.02 C 482.80 282.11 523.31 282.03 563.81 282.05 C 572.72 305.11 581.75 328.11 590.60 351.19 C 594.73 344.07 597.71 336.37 600.78 328.75 C 606.86 313.19 612.89 297.61 618.99 282.06 C 634.45 282.06 649.92 282.05 665.38 282.06 C 658.49 301.29 650.11 320.08 645.56 340.07 C 643.97 347.97 642.42 356.36 644.74 364.27 C 645.63 367.84 649.26 369.27 652.38 370.37 C 663.98 374.38 676.44 373.99 688.53 374.72 C 688.64 388.80 688.53 402.89 688.59 416.98 C 667.04 416.13 645.50 414.81 623.92 414.88 C 623.91 415.41 623.88 416.48 623.87 417.01 C 609.94 416.62 596.04 415.12 582.10 415.57 C 573.13 416.03 564.22 417.22 555.29 417.99 C 555.29 417.23 555.30 415.71 555.31 414.95 C 529.19 414.62 503.07 414.90 476.96 415.28 C 463.96 415.43 451.02 416.58 438.06 417.26 C 438.02 403.10 438.08 388.94 438.02 374.78 C 449.80 373.89 461.85 374.43 473.32 371.15 C 472.57 363.26 469.26 355.99 466.64 348.61 C 458.54 326.40 450.30 304.25 442.30 282.02 Z" />
<path fill="#031a52" opacity="1.00" d=" M 754.12 282.01 C 794.64 282.13 835.16 281.99 875.68 282.09 C 883.67 302.84 891.77 323.55 899.80 344.28 C 902.45 351.05 904.99 357.95 908.89 364.13 C 911.57 368.30 915.11 372.41 920.08 373.78 C 925.27 374.39 930.53 374.53 935.74 375.04 C 935.72 389.02 935.71 403.00 935.74 416.98 C 919.85 416.45 903.99 415.19 888.09 415.17 C 855.39 414.66 822.69 414.73 790.00 415.25 C 776.60 415.38 763.26 416.55 749.89 417.25 C 749.87 403.09 749.89 388.93 749.88 374.77 C 761.65 373.89 773.69 374.43 785.15 371.15 C 784.41 363.29 781.12 356.04 778.50 348.68 C 770.39 326.45 762.15 304.27 754.12 282.01 Z" />
<path fill="#031a52" opacity="1.00" d=" M 1002.98 282.06 C 1040.54 282.07 1078.11 282.03 1115.67 282.08 C 1115.63 297.70 1115.66 313.32 1115.65 328.93 C 1115.92 340.99 1114.75 353.33 1117.87 365.11 C 1118.81 369.37 1123.36 371.15 1127.20 371.89 C 1141.23 374.32 1155.52 373.92 1169.70 374.25 C 1169.70 388.42 1169.70 402.59 1169.70 416.76 C 1109.81 414.91 1049.88 414.12 989.99 415.65 C 976.31 416.20 962.61 416.21 948.94 416.75 C 948.94 402.58 948.92 388.41 948.95 374.24 C 961.33 373.96 973.76 374.23 986.08 372.69 C 990.65 372.11 995.89 371.73 999.21 368.11 C 1001.48 364.51 1001.73 360.07 1002.35 355.96 C 1003.41 344.33 1002.82 332.64 1002.98 320.99 C 1002.98 308.01 1002.98 295.03 1002.98 282.06 Z" />
<path fill="#031a52" opacity="1.00" d=" M 773.25 437.67 C 773.13 435.63 775.26 434.35 776.93 433.73 C 779.79 434.59 782.67 435.39 785.66 434.46 C 784.79 435.62 784.18 437.12 782.79 437.78 C 780.95 439.00 778.94 437.59 777.05 437.32 C 775.74 437.01 774.53 437.81 773.25 437.67 Z" />
<path fill="#031a52" opacity="1.00" d=" M 281.19 443.26 C 284.05 438.57 291.31 438.84 295.56 441.34 C 298.09 443.15 297.62 446.56 297.80 449.28 C 295.45 449.28 293.10 449.28 290.75 449.29 C 290.68 447.59 290.92 443.28 287.99 444.92 C 287.56 446.89 287.37 449.45 289.43 450.61 C 292.88 453.05 297.67 455.18 298.10 459.99 C 298.36 463.47 298.81 468.20 295.27 470.26 C 291.64 472.06 287.06 472.16 283.36 470.50 C 279.69 468.31 280.50 463.42 280.35 459.81 C 282.83 459.80 285.30 459.80 287.77 459.81 C 287.87 462.05 287.50 464.40 288.23 466.58 C 290.54 467.57 290.78 464.48 290.61 462.96 C 290.65 459.20 286.41 457.98 284.01 455.97 C 279.88 453.29 279.53 447.46 281.19 443.26 Z" />
<path fill="#031a52" opacity="1.00" d=" M 314.07 440.30 C 319.85 440.29 325.63 440.28 331.41 440.31 C 331.38 441.79 331.36 443.28 331.34 444.77 C 331.88 445.38 332.42 446.00 332.97 446.62 C 332.87 439.50 342.23 438.34 347.25 440.76 C 352.48 443.46 351.08 450.24 351.29 455.08 C 350.92 460.06 352.69 466.60 348.04 470.08 C 343.02 473.07 333.63 472.17 332.72 465.17 C 332.22 459.04 332.34 452.84 332.71 446.70 C 330.70 446.64 328.70 446.51 326.70 446.44 C 326.69 454.62 326.68 462.80 326.70 470.99 C 324.05 471.00 321.41 471.00 318.76 471.00 C 318.76 462.83 318.77 454.66 318.76 446.50 C 317.09 446.48 315.43 446.46 313.77 446.44 C 313.85 444.39 313.96 442.34 314.07 440.30 M 340.65 445.54 C 340.08 452.18 340.33 458.93 340.51 465.60 C 341.70 467.70 343.91 465.90 343.34 463.97 C 343.20 457.68 343.84 451.29 342.97 445.06 C 342.44 445.01 341.37 444.92 340.83 444.87 L 340.65 445.54 Z" />
<path fill="#031a52" opacity="1.00" d=" M 353.20 440.29 C 357.63 440.39 362.10 440.00 366.50 440.64 C 368.63 440.94 370.62 442.60 370.77 444.84 C 371.08 448.33 371.77 453.80 367.09 454.59 C 368.62 455.41 370.64 456.11 370.96 458.08 C 371.52 462.35 371.10 466.69 371.22 471.00 C 368.74 471.00 366.27 471.00 363.81 471.00 C 363.66 466.50 364.17 461.96 363.50 457.51 C 362.85 457.24 361.55 456.69 360.89 456.42 C 360.80 461.28 360.86 466.13 360.86 470.99 C 358.30 471.00 355.74 471.00 353.19 470.99 C 353.21 460.76 353.18 450.52 353.20 440.29 M 360.85 445.03 C 360.84 447.39 360.74 449.77 360.98 452.13 C 365.15 452.51 365.00 444.68 360.85 445.03 Z" />
<path fill="#031a52" opacity="1.00" d=" M 391.59 440.55 C 395.14 439.26 399.48 439.20 402.81 441.17 C 405.57 442.89 405.14 446.48 405.31 449.28 C 402.96 449.28 400.61 449.28 398.26 449.29 C 397.72 447.79 398.80 445.14 396.86 444.52 C 394.57 444.65 395.09 447.74 395.60 449.22 C 397.87 452.06 401.79 453.02 403.97 455.99 C 406.26 458.99 405.94 463.08 405.42 466.60 C 404.79 470.05 401.01 471.45 397.91 471.59 C 395.06 471.71 391.68 471.67 389.57 469.45 C 387.33 466.78 388.04 463.02 387.85 459.81 C 390.32 459.80 392.80 459.80 395.27 459.81 C 395.36 461.99 395.04 464.24 395.65 466.37 C 398.40 467.99 398.32 463.46 397.99 461.83 C 396.39 457.38 390.21 456.93 388.52 452.42 C 387.29 448.47 387.14 442.53 391.59 440.55 Z" />
<path fill="#031a52" opacity="1.00" d=" M 420.89 440.26 C 424.62 440.53 428.62 439.79 432.20 440.65 C 433.79 450.74 434.99 460.89 436.44 471.01 C 433.77 471.01 431.11 471.00 428.45 470.92 C 428.36 469.17 428.27 467.42 428.20 465.68 C 427.22 465.62 426.25 465.56 425.29 465.51 C 425.14 467.34 425.00 469.16 424.88 471.00 C 422.24 471.00 419.60 471.00 416.97 471.00 C 418.28 460.75 419.47 450.49 420.89 440.26 M 426.44 445.86 C 426.09 450.63 425.72 455.39 425.27 460.16 C 425.95 460.15 427.33 460.15 428.01 460.15 C 427.54 455.38 427.21 450.59 426.44 445.86 Z" />
<path fill="#031a52" opacity="1.00" d=" M 436.79 440.31 C 442.52 440.27 448.25 440.30 453.99 440.29 C 454.03 442.35 454.06 444.41 454.11 446.48 C 452.54 446.48 450.99 446.48 449.44 446.49 C 449.44 454.66 449.44 462.83 449.44 471.00 C 446.79 471.00 444.15 471.00 441.51 471.00 C 441.50 462.82 441.52 454.64 441.50 446.46 C 439.97 446.48 438.45 446.50 436.93 446.54 C 436.86 444.46 436.83 442.38 436.79 440.31 Z" />
<path fill="#031a52" opacity="1.00" d=" M 470.21 440.29 C 472.43 440.29 474.66 440.29 476.89 440.29 C 478.46 445.27 479.71 450.36 481.50 455.28 C 481.51 450.28 481.48 445.29 481.50 440.29 C 483.73 440.29 485.98 440.29 488.22 440.30 C 488.22 450.54 488.22 460.78 488.22 471.02 C 485.95 471.00 483.68 470.98 481.41 470.92 C 480.02 465.26 478.60 459.60 476.98 454.00 C 476.84 459.67 476.95 465.34 476.91 471.01 C 474.66 470.99 472.42 470.99 470.18 470.98 C 470.22 460.75 470.18 450.52 470.21 440.29 Z" />
<path fill="#031a52" opacity="1.00" d=" M 490.20 440.30 C 494.96 440.43 499.79 439.90 504.50 440.75 C 507.39 441.24 509.03 444.21 508.97 446.96 C 509.06 453.33 509.14 459.72 508.93 466.08 C 508.86 469.04 505.83 470.90 503.12 470.92 C 498.81 471.13 494.49 470.95 490.18 470.98 C 490.22 460.75 490.18 450.52 490.20 440.30 M 498.12 445.24 C 498.16 452.25 497.98 459.27 498.23 466.28 C 499.12 465.59 501.16 465.65 500.99 464.08 C 501.06 458.10 501.58 451.98 500.67 446.05 C 500.03 445.85 498.76 445.45 498.12 445.24 Z" />
<path fill="#031a52" opacity="1.00" d=" M 510.53 440.34 C 513.20 440.27 515.87 440.27 518.55 440.38 C 518.41 450.59 518.53 460.79 518.49 471.00 C 515.84 471.00 513.20 471.00 510.56 471.00 C 510.54 460.78 510.60 450.56 510.53 440.34 Z" />
<path fill="#031a52" opacity="1.00" d=" M 520.45 440.30 C 523.95 440.29 527.45 440.29 530.95 440.28 C 531.77 446.19 532.14 452.15 533.21 458.03 C 533.72 452.10 534.34 446.19 535.02 440.28 C 538.56 440.29 542.10 440.29 545.64 440.29 C 545.67 450.52 545.61 460.74 545.68 470.96 C 543.43 470.99 541.18 471.00 538.94 471.01 C 538.82 463.62 539.23 456.22 538.59 448.85 C 537.74 456.24 536.56 463.59 535.58 470.96 C 533.87 470.97 532.18 470.96 530.49 470.95 C 529.50 463.57 528.37 456.22 527.39 448.84 C 526.93 456.22 527.25 463.62 527.16 471.02 C 524.90 471.00 522.65 470.98 520.41 470.94 C 520.50 460.73 520.42 450.51 520.45 440.30 Z" />
<path fill="#031a52" opacity="1.00" d=" M 547.45 440.30 C 551.90 440.29 556.36 440.29 560.82 440.29 C 560.81 442.36 560.80 444.43 560.80 446.50 C 558.98 446.49 557.16 446.48 555.36 446.48 C 555.35 448.36 555.36 450.24 555.36 452.12 C 557.06 452.11 558.76 452.11 560.46 452.11 C 560.46 454.08 560.47 456.06 560.47 458.04 C 558.75 458.05 557.04 458.08 555.33 458.11 C 555.35 460.34 555.36 462.57 555.37 464.81 C 557.32 464.80 559.28 464.80 561.25 464.81 C 561.25 466.87 561.25 468.93 561.25 471.00 C 556.63 470.99 552.01 471.06 547.39 470.92 C 547.52 460.71 547.42 450.50 547.45 440.30 Z" />
<path fill="#031a52" opacity="1.00" d=" M 562.75 440.25 C 564.97 440.28 567.20 440.29 569.43 440.32 C 570.87 445.31 572.44 450.27 573.66 455.33 C 574.24 450.34 573.93 445.31 574.00 440.30 C 576.22 440.29 578.45 440.28 580.69 440.27 C 580.77 450.51 580.69 460.75 580.73 470.99 C 578.48 470.99 576.24 471.00 574.00 471.00 C 572.47 465.28 571.07 459.52 569.47 453.81 C 569.33 459.54 569.44 465.27 569.41 471.00 C 567.17 470.99 564.93 470.99 562.70 471.00 C 562.73 460.75 562.63 450.50 562.75 440.25 Z" />
<path fill="#031a52" opacity="1.00" d=" M 605.17 440.27 C 609.17 439.18 614.44 439.25 617.21 442.83 C 619.38 446.11 618.63 450.26 618.80 453.98 C 618.59 458.27 619.34 462.73 618.03 466.90 C 615.69 472.55 607.59 472.70 602.99 469.98 C 598.54 466.40 600.33 459.99 599.95 455.04 C 599.98 449.89 598.84 442.21 605.17 440.27 M 608.23 445.20 C 607.47 451.72 607.91 458.40 607.98 464.97 C 607.35 467.11 611.21 466.83 610.77 465.01 C 610.89 458.47 611.09 451.90 610.65 445.37 C 610.28 445.21 609.53 444.89 609.16 444.73 L 608.23 445.20 Z" />
<path fill="#031a52" opacity="1.00" d=" M 634.10 440.28 C 637.90 440.30 641.69 440.29 645.49 440.30 C 646.87 450.54 648.30 460.77 649.68 471.00 C 647.04 471.00 644.41 471.00 641.78 471.00 C 641.64 469.19 641.51 467.39 641.38 465.59 C 640.42 465.58 639.47 465.57 638.52 465.57 C 638.38 467.38 638.25 469.18 638.12 471.00 C 635.48 471.00 632.85 470.99 630.22 471.00 C 631.50 460.76 632.76 450.51 634.10 440.28 M 639.58 445.83 C 639.47 450.54 638.98 455.23 638.48 459.91 C 639.18 459.99 640.56 460.16 641.25 460.24 C 640.76 455.43 640.57 450.57 639.58 445.83 Z" />
<path fill="#031a52" opacity="1.00" d=" M 650.09 440.29 C 655.87 440.33 661.65 440.19 667.44 440.38 C 667.39 442.40 667.37 444.43 667.35 446.46 C 665.78 446.48 664.23 446.50 662.67 446.53 C 662.73 454.67 662.64 462.82 662.73 470.96 C 660.07 470.99 657.41 471.00 654.76 471.01 C 654.71 462.80 654.86 454.60 654.68 446.40 C 653.15 446.45 651.64 446.50 650.13 446.55 C 650.09 444.46 650.08 442.37 650.09 440.29 Z" />
<path fill="#031a52" opacity="1.00" d=" M 683.45 440.30 C 687.83 440.37 692.25 440.02 696.61 440.61 C 698.79 440.89 700.91 442.57 701.02 444.89 C 701.40 448.45 701.89 453.98 697.14 454.65 C 698.77 455.35 700.86 455.98 701.21 458.03 C 701.78 462.32 701.35 466.68 701.47 471.00 C 698.99 471.00 696.52 471.00 694.05 470.99 C 693.95 466.64 694.31 462.27 693.86 457.93 C 693.52 456.73 692.02 456.94 691.11 456.52 C 691.07 461.35 691.10 466.18 691.09 471.01 C 688.52 471.00 685.96 470.99 683.40 470.93 C 683.51 460.72 683.42 450.51 683.45 440.30 M 691.23 444.75 C 691.09 447.28 691.06 449.81 691.12 452.34 C 695.36 452.17 695.20 445.25 691.23 444.75 Z" />
<path fill="#031a52" opacity="1.00" d=" M 703.45 440.30 C 706.95 440.29 710.45 440.29 713.96 440.28 C 714.74 446.18 715.20 452.13 716.14 458.01 C 716.80 452.10 717.29 446.17 718.04 440.27 C 721.57 440.30 725.11 440.29 728.65 440.30 C 728.66 450.52 728.61 460.74 728.67 470.97 C 726.42 470.99 724.17 471.00 721.94 471.01 C 721.81 463.58 722.25 456.14 721.58 448.74 C 720.80 456.18 719.54 463.55 718.58 470.97 C 716.87 470.97 715.16 470.95 713.47 470.93 C 712.51 463.56 711.37 456.22 710.39 448.86 C 709.94 456.23 710.25 463.63 710.16 471.01 C 707.90 471.00 705.66 470.99 703.42 470.96 C 703.49 460.74 703.43 450.52 703.45 440.30 Z" />
<path fill="#031a52" opacity="1.00" d=" M 733.56 440.31 C 737.35 440.28 741.14 440.30 744.94 440.28 C 746.44 450.51 747.76 460.76 749.19 471.00 C 746.53 471.00 743.89 471.00 741.25 470.97 C 741.13 469.18 741.01 467.38 740.91 465.59 C 740.18 465.59 738.74 465.58 738.01 465.58 C 737.88 467.37 737.76 469.18 737.65 470.98 C 735.00 471.00 732.35 471.00 729.72 471.00 C 730.99 460.77 732.30 450.54 733.56 440.31 M 739.47 445.85 C 738.76 450.59 738.46 455.38 738.01 460.15 C 738.92 460.14 739.84 460.13 740.76 460.13 C 740.27 455.38 739.88 450.61 739.47 445.85 Z" />
<path fill="#031a52" opacity="1.00" d=" M 752.08 443.01 C 755.02 439.18 760.93 438.86 765.04 440.78 C 769.33 443.10 769.01 448.50 768.88 452.66 C 766.26 452.64 763.65 452.64 761.04 452.67 C 760.57 450.12 762.07 446.30 759.77 444.67 C 759.47 444.87 758.86 445.27 758.56 445.46 C 758.16 451.94 758.35 458.47 758.45 464.96 C 758.30 466.78 761.20 467.25 760.88 464.96 C 761.11 462.57 760.97 460.17 760.96 457.78 C 763.58 457.75 766.21 457.73 768.84 457.70 C 768.83 461.44 769.54 465.80 766.83 468.86 C 765.13 470.99 762.28 471.27 759.85 472.01 C 761.73 472.58 764.10 473.54 763.62 476.00 C 763.57 479.14 760.06 479.86 757.58 479.78 C 757.57 479.32 757.54 478.39 757.53 477.93 C 760.59 478.01 761.12 474.66 757.73 474.56 C 757.73 473.58 757.74 472.61 757.76 471.65 C 755.36 470.91 752.59 470.11 751.50 467.60 C 749.78 463.63 750.66 459.18 750.44 455.00 C 750.63 451.01 749.71 446.53 752.08 443.01 Z" />
<path fill="#031a52" opacity="1.00" d=" M 773.33 440.29 C 777.12 440.29 780.92 440.29 784.73 440.29 C 786.15 450.52 787.52 460.76 788.94 471.00 C 786.30 471.00 783.67 471.00 781.05 471.00 C 780.89 469.16 780.74 467.33 780.58 465.50 C 779.64 465.55 778.70 465.60 777.77 465.66 C 777.44 467.34 777.92 469.41 777.08 470.91 C 774.54 471.11 772.00 470.99 769.47 471.00 C 770.75 460.76 772.03 450.53 773.33 440.29 M 777.77 460.15 C 778.46 460.15 779.83 460.15 780.51 460.15 C 780.08 455.40 779.46 450.67 779.37 445.90 C 778.36 450.58 778.25 455.39 777.77 460.15 Z" />
<path fill="#031a52" opacity="1.00" d=" M 794.46 440.65 C 798.22 439.19 802.99 439.14 806.34 441.63 C 809.09 443.88 809.02 447.75 809.05 450.98 C 808.93 455.68 809.31 460.42 808.76 465.10 C 807.64 474.00 791.55 474.01 790.46 465.11 C 789.93 459.74 790.26 454.31 790.22 448.92 C 790.13 445.71 791.24 441.99 794.46 440.65 M 798.26 445.01 C 798.04 451.66 798.01 458.33 798.21 464.99 C 797.70 466.97 801.59 466.96 801.00 464.99 C 801.08 458.40 801.48 451.72 800.78 445.17 C 800.15 445.13 798.89 445.05 798.26 445.01 Z" />
<path fill="#031a52" opacity="1.00" d=" M 820.33 440.30 C 826.09 440.29 831.87 440.29 837.64 440.30 C 837.62 442.38 837.61 444.46 837.59 446.55 C 836.08 446.50 834.57 446.45 833.08 446.40 C 832.79 454.59 833.00 462.80 832.95 470.99 C 830.29 471.00 827.65 471.00 825.01 471.00 C 824.97 462.81 825.08 454.61 824.94 446.42 C 823.41 446.46 821.89 446.50 820.38 446.54 C 820.34 444.46 820.33 442.37 820.33 440.30 Z" />
<path fill="#031a52" opacity="1.00" d=" M 838.66 440.37 C 843.08 440.32 847.54 440.03 851.94 440.62 C 854.16 440.94 856.26 442.69 856.29 445.07 C 856.69 448.62 857.03 454.29 852.16 454.62 C 854.01 455.24 856.30 456.08 856.52 458.37 C 856.97 462.55 856.61 466.78 856.73 470.99 C 854.24 471.00 851.75 470.99 849.28 470.97 C 849.21 466.66 849.56 462.34 849.11 458.06 C 848.84 456.82 847.34 456.90 846.47 456.36 C 846.23 461.24 846.38 466.12 846.34 471.00 C 843.79 471.00 841.24 471.00 838.70 471.00 C 838.67 460.79 838.75 450.58 838.66 440.37 M 846.42 444.88 C 846.33 447.33 846.32 449.77 846.34 452.23 C 850.62 452.40 850.48 444.98 846.42 444.88 Z" />
<path fill="#031a52" opacity="1.00" d=" M 858.50 440.37 C 861.17 440.27 863.85 440.27 866.53 440.35 C 866.43 450.57 866.51 460.78 866.49 471.00 C 863.84 471.00 861.20 471.00 858.56 471.00 C 858.52 460.79 858.63 450.58 858.50 440.37 Z" />
<path fill="#031a52" opacity="1.00" d=" M 871.33 440.29 C 875.12 440.29 878.92 440.29 882.73 440.29 C 884.14 450.52 885.53 460.76 886.94 471.00 C 884.30 471.00 881.66 471.00 879.03 471.00 C 878.89 469.18 878.75 467.36 878.62 465.55 C 877.65 465.57 876.68 465.59 875.73 465.62 C 875.62 467.39 875.52 469.16 875.44 470.93 C 872.78 471.00 870.12 471.00 867.47 471.01 C 868.74 460.77 870.03 450.53 871.33 440.29 M 877.32 445.87 C 876.39 450.57 876.25 455.38 875.77 460.15 C 876.46 460.15 877.83 460.15 878.51 460.15 C 878.06 455.39 877.50 450.64 877.32 445.87 Z" />
<path fill="#031a52" opacity="1.00" d=" M 892.49 440.60 C 896.09 439.26 900.46 439.20 903.88 441.11 C 907.31 443.37 906.63 448.06 906.82 451.60 C 904.17 451.61 901.53 451.61 898.89 451.61 C 898.52 449.37 899.63 446.46 897.96 444.67 C 895.57 444.81 896.25 447.41 896.09 449.06 C 896.20 454.37 895.91 459.69 896.25 465.00 C 896.09 466.64 899.32 467.04 898.99 464.97 C 898.94 462.73 900.21 459.28 897.45 458.27 C 897.46 457.32 897.48 455.41 897.49 454.46 C 900.63 454.43 903.79 454.43 906.95 454.39 C 907.10 459.94 907.01 465.49 907.03 471.04 C 905.00 470.69 901.74 472.04 901.22 469.21 C 898.94 471.04 895.98 472.26 893.06 471.36 C 889.84 470.57 888.42 467.04 888.29 464.03 C 888.11 458.67 888.14 453.30 888.27 447.95 C 888.28 445.00 889.58 441.78 892.49 440.60 Z" />
<path fill="#031a52" opacity="1.00" d=" M 908.74 440.27 C 913.17 440.31 917.62 440.29 922.06 440.28 C 922.05 442.37 922.01 444.46 921.94 446.56 C 920.16 446.51 918.38 446.48 916.62 446.46 C 916.60 448.34 916.61 450.22 916.62 452.11 C 918.30 452.11 920.01 452.12 921.72 452.13 C 921.71 454.07 921.72 456.02 921.74 457.98 C 920.01 458.03 918.29 458.08 916.58 458.14 C 916.60 460.35 916.60 462.57 916.61 464.80 C 918.54 464.79 920.47 464.79 922.42 464.78 C 922.47 466.83 922.51 468.88 922.57 470.94 C 917.94 471.04 913.32 470.99 908.70 471.00 C 908.72 460.75 908.65 450.51 908.74 440.27 Z" />
<path fill="#031a52" opacity="1.00" d=" M 924.02 440.27 C 927.51 440.29 931.00 440.29 934.50 440.31 C 935.16 446.25 935.85 452.20 936.50 458.14 C 937.35 452.22 937.83 446.25 938.47 440.31 C 942.01 440.28 945.57 440.29 949.12 440.28 C 949.17 450.52 949.13 460.76 949.14 471.00 C 946.90 471.00 944.66 470.99 942.43 471.00 C 942.43 463.60 942.40 456.20 942.49 448.80 C 940.92 456.13 940.22 463.61 939.03 471.00 C 937.36 470.99 935.69 470.99 934.04 471.00 C 932.81 463.62 932.22 456.13 930.53 448.84 C 930.78 456.22 930.61 463.61 930.66 471.00 C 928.41 470.99 926.18 471.00 923.95 471.00 C 923.99 460.76 923.87 450.51 924.02 440.27 Z" />
<path fill="#031a52" opacity="1.00" d=" M 299.95 440.30 C 304.41 440.29 308.87 440.29 313.32 440.29 C 313.25 442.35 313.18 444.41 313.11 446.48 C 311.34 446.48 309.59 446.49 307.83 446.49 C 307.85 448.36 307.86 450.23 307.88 452.10 C 309.57 452.10 311.27 452.11 312.97 452.13 C 312.97 454.10 312.97 456.08 312.98 458.06 C 311.27 458.06 309.57 458.06 307.87 458.07 C 307.86 460.31 307.86 462.55 307.86 464.81 C 309.81 464.80 311.77 464.80 313.73 464.80 C 313.74 466.86 313.76 468.92 313.77 470.99 C 309.16 471.01 304.56 471.00 299.95 471.00 C 299.95 460.76 299.95 450.53 299.95 440.30 Z" />
<path fill="#031a52" opacity="1.00" d=" M 373.16 440.35 C 377.62 440.25 382.09 440.29 386.57 440.30 C 386.56 442.36 386.56 444.42 386.56 446.49 C 384.75 446.48 382.95 446.48 381.15 446.47 C 381.12 448.34 381.10 450.21 381.09 452.10 C 382.80 452.11 384.51 452.11 386.23 452.14 C 386.22 454.11 386.22 456.08 386.22 458.06 C 384.51 458.06 382.81 458.06 381.11 458.07 C 381.11 460.31 381.11 462.56 381.11 464.81 C 383.07 464.81 385.03 464.80 387.00 464.81 C 386.99 466.87 387.00 468.93 387.00 471.00 C 382.39 471.00 377.79 471.01 373.19 470.99 C 373.19 460.77 373.24 450.56 373.16 440.35 Z" />
<path fill="#031a52" opacity="1.00" d=" M 454.82 440.30 C 459.32 440.29 463.82 440.29 468.32 440.30 C 468.31 442.35 468.31 444.42 468.31 446.48 C 466.48 446.48 464.66 446.49 462.84 446.50 C 462.85 448.36 462.86 450.23 462.88 452.10 C 464.57 452.10 466.27 452.11 467.97 452.12 C 467.97 454.10 467.97 456.08 467.98 458.06 C 466.27 458.06 464.56 458.06 462.87 458.07 C 462.86 460.31 462.86 462.56 462.86 464.81 C 464.81 464.80 466.76 464.80 468.72 464.79 C 468.74 466.85 468.76 468.91 468.79 470.97 C 464.17 471.02 459.56 471.00 454.95 471.00 C 454.91 460.76 455.06 450.53 454.82 440.30 Z" />
<path fill="#031a52" opacity="1.00" d=" M 581.59 440.30 C 587.36 440.29 593.14 440.27 598.92 440.32 C 598.88 442.37 598.86 444.43 598.83 446.50 C 597.26 446.50 595.69 446.51 594.14 446.55 C 594.25 454.70 594.16 462.85 594.19 471.00 C 591.54 471.00 588.89 471.00 586.25 470.98 C 586.29 462.83 586.24 454.67 586.27 446.52 C 584.71 446.50 583.14 446.47 581.59 446.47 C 581.58 444.41 581.58 442.35 581.59 440.30 Z" />
<path fill="#031a52" opacity="1.00" d=" M 668.41 470.95 C 668.50 460.73 668.41 450.51 668.46 440.29 C 672.93 440.30 677.41 440.23 681.89 440.37 C 681.83 442.41 681.80 444.46 681.77 446.51 C 679.96 446.49 678.15 446.48 676.36 446.48 C 676.35 448.35 676.36 450.24 676.36 452.12 C 678.06 452.11 679.76 452.11 681.47 452.11 C 681.46 454.09 681.46 456.07 681.47 458.05 C 679.75 458.05 678.05 458.07 676.35 458.09 C 676.35 460.32 676.35 462.56 676.36 464.80 C 678.32 464.80 680.28 464.80 682.25 464.81 C 682.25 466.87 682.25 468.93 682.25 471.00 C 677.64 470.99 673.02 471.04 668.41 470.95 Z" />
</g>
<g id="#ab0708ff">
<path fill="#ab0708" opacity="1.00" d=" M 522.58 212.72 C 530.07 211.11 538.66 212.13 544.55 217.39 C 550.84 222.96 552.72 231.96 552.01 240.02 C 551.51 247.96 547.38 256.10 539.91 259.53 C 530.12 264.02 516.42 262.33 510.14 252.87 C 505.31 245.29 504.90 235.52 507.27 227.03 C 509.21 219.87 515.30 214.15 522.58 212.72 M 526.14 221.16 C 522.28 223.13 521.47 227.95 521.09 231.86 C 520.71 237.84 520.42 244.26 523.12 249.78 C 525.08 254.08 531.97 254.54 534.48 250.53 C 537.07 246.55 537.01 241.56 537.24 236.99 C 537.08 232.41 536.98 227.52 534.64 223.44 C 532.96 220.56 529.03 220.03 526.14 221.16 Z" />
<path fill="#ab0708" opacity="1.00" d=" M 736.45 216.40 C 742.42 211.26 751.31 211.08 758.47 213.54 C 762.92 214.95 766.16 220.27 763.81 224.68 C 761.63 228.67 756.57 229.07 752.53 228.96 C 752.46 225.78 752.28 220.51 748.02 220.46 C 744.29 219.96 743.20 225.28 746.00 227.12 C 750.89 230.78 757.38 231.75 761.91 236.00 C 768.24 241.30 767.55 252.22 761.29 257.30 C 755.60 262.09 747.56 262.61 740.55 261.24 C 736.56 260.34 732.38 258.00 731.06 253.89 C 729.73 250.45 730.93 246.01 734.31 244.24 C 736.68 242.80 739.53 243.04 742.20 242.93 C 742.18 246.20 742.02 249.99 744.63 252.44 C 746.98 254.17 750.80 253.99 752.86 251.81 C 754.01 249.93 753.74 247.26 751.83 246.00 C 747.06 242.53 740.85 241.55 736.41 237.54 C 730.21 232.33 730.23 221.59 736.45 216.40 Z" />
<path fill="#ab0708" opacity="1.00" d=" M 976.63 217.63 C 982.36 212.47 990.66 211.32 998.06 212.44 C 1001.84 213.06 1006.07 214.42 1008.04 218.00 C 1009.68 220.80 1009.18 224.72 1006.61 226.79 C 1003.95 229.15 1000.19 229.10 996.87 229.36 C 996.57 226.63 997.03 223.22 994.67 221.25 C 991.96 219.91 988.15 220.74 986.60 223.45 C 984.17 227.51 984.26 232.43 984.09 237.00 C 984.22 241.19 984.31 245.72 986.75 249.32 C 989.09 252.49 993.48 252.63 997.04 252.06 C 1000.64 251.38 1003.05 248.42 1005.17 245.69 C 1007.43 246.97 1009.43 249.26 1008.94 252.05 C 1008.50 257.17 1003.56 260.34 998.93 261.27 C 991.31 262.72 982.58 261.74 976.60 256.40 C 971.12 251.61 969.08 244.02 969.15 236.97 C 969.08 229.93 971.17 222.40 976.63 217.63 Z" />
<path fill="#ab0708" opacity="1.00" d=" M 32.24 212.76 C 40.83 212.74 49.42 212.75 58.01 212.75 C 58.00 215.33 58.00 217.91 57.96 220.49 C 56.05 220.51 54.14 220.56 52.22 220.64 C 52.27 233.76 52.26 246.88 52.24 259.99 C 52.22 265.17 49.80 270.54 45.23 273.22 C 40.43 276.32 34.49 276.09 29.00 276.30 C 29.00 273.56 29.00 270.83 29.00 268.09 C 31.40 267.82 34.57 268.47 36.16 266.17 C 37.98 263.51 37.84 260.11 38.00 257.03 C 37.97 244.88 38.07 232.73 37.94 220.58 C 36.05 220.53 34.15 220.50 32.25 220.49 C 32.25 217.91 32.25 215.33 32.24 212.76 Z" />
<path fill="#ab0708" opacity="1.00" d=" M 95.75 212.75 C 104.33 212.75 112.92 212.75 121.50 212.75 C 121.50 215.34 121.50 217.93 121.50 220.53 C 119.66 220.50 117.82 220.47 115.99 220.44 C 115.48 227.96 115.88 235.51 115.74 243.04 C 115.98 246.04 115.26 250.02 118.19 251.93 C 121.93 253.90 128.81 253.28 129.13 248.00 C 129.44 238.87 129.11 229.71 129.28 220.57 C 127.35 220.53 125.42 220.49 123.50 220.47 C 123.50 217.89 123.50 215.32 123.50 212.75 C 130.50 212.75 137.50 212.75 144.50 212.75 C 144.50 215.32 144.50 217.90 144.50 220.48 C 142.55 220.50 140.60 220.52 138.64 220.57 C 138.31 229.67 138.63 238.79 138.48 247.91 C 138.35 252.66 135.74 257.37 131.48 259.61 C 126.71 262.14 121.08 262.15 115.84 261.57 C 111.07 260.99 106.07 258.80 103.64 254.43 C 101.55 251.03 101.46 246.92 101.48 243.05 C 101.49 235.56 101.53 228.06 101.46 220.57 C 99.56 220.52 97.65 220.50 95.75 220.47 C 95.75 217.90 95.75 215.33 95.75 212.75 Z" />
<path fill="#ab0708" opacity="1.00" d=" M 182.99 212.75 C 191.58 212.76 200.18 212.73 208.77 212.77 C 208.75 215.35 208.75 217.94 208.74 220.52 C 206.89 220.50 205.03 220.49 203.18 220.48 C 202.80 231.44 203.04 242.41 203.05 253.37 C 204.95 253.45 206.85 253.50 208.75 253.53 C 208.75 256.09 208.75 258.65 208.78 261.21 C 200.18 261.30 191.59 261.23 182.99 261.25 C 182.99 258.65 183.00 256.05 183.07 253.45 C 184.87 253.48 186.68 253.50 188.49 253.52 C 188.95 242.52 188.83 231.48 188.56 220.47 C 186.73 220.49 184.90 220.52 183.07 220.57 C 183.00 217.96 182.99 215.36 182.99 212.75 Z" />
<path fill="#ab0708" opacity="1.00" d=" M 250.22 212.81 C 262.74 212.67 275.26 212.78 287.78 212.76 C 287.59 215.36 288.37 218.32 286.72 220.59 C 279.94 231.37 273.20 242.19 266.45 252.99 C 270.37 252.78 274.51 253.59 278.29 252.35 C 280.50 250.24 279.74 246.76 280.31 244.01 C 283.30 244.00 286.30 243.99 289.30 244.00 C 288.91 249.74 289.14 255.50 288.75 261.24 C 275.41 261.27 262.07 261.25 248.73 261.25 C 248.91 258.73 248.12 255.87 249.74 253.68 C 256.52 242.80 263.30 231.91 270.06 221.02 C 266.85 221.24 263.33 220.38 260.31 221.50 C 258.72 223.91 259.31 227.17 258.80 229.93 C 255.87 230.01 252.93 230.01 250.00 230.00 C 249.83 224.27 250.33 218.55 250.22 212.81 Z" />
<path fill="#ab0708" opacity="1.00" d=" M 334.34 249.58 C 338.85 237.30 343.38 225.03 347.89 212.75 C 351.83 212.75 355.78 212.74 359.73 212.78 C 364.30 225.70 368.78 238.68 373.54 251.54 C 374.10 254.08 377.07 253.34 379.00 253.60 C 379.00 256.15 379.00 258.70 379.00 261.25 C 370.66 261.25 362.33 261.25 353.99 261.25 C 353.99 258.65 354.00 256.06 354.06 253.46 C 355.78 253.48 357.50 253.48 359.22 253.49 C 358.55 251.24 357.81 249.01 357.09 246.78 C 353.20 246.74 349.31 246.77 345.43 246.71 C 344.63 248.92 343.93 251.17 343.33 253.45 C 345.13 253.48 346.93 253.50 348.74 253.51 C 348.75 256.07 348.75 258.63 348.79 261.19 C 341.94 261.32 335.10 261.22 328.25 261.25 C 328.24 258.71 328.24 256.17 328.24 253.63 C 329.57 253.58 330.90 253.46 332.22 253.27 C 333.37 252.37 333.74 250.85 334.34 249.58 M 348.22 238.52 C 350.23 238.50 352.25 238.50 354.27 238.49 C 353.33 235.59 352.45 232.66 351.49 229.76 C 350.19 232.60 349.22 235.57 348.22 238.52 Z" />
<path fill="#ab0708" opacity="1.00" d=" M 416.50 212.75 C 424.66 212.79 432.83 212.68 440.99 212.79 C 447.96 212.98 455.29 215.78 459.26 221.78 C 463.67 228.55 464.03 237.33 462.00 244.97 C 460.30 251.55 455.39 257.24 448.96 259.55 C 445.48 260.91 441.72 261.26 438.02 261.26 C 430.85 261.25 423.67 261.25 416.50 261.25 C 416.49 258.66 416.49 256.07 416.50 253.48 C 418.29 253.50 420.10 253.52 421.90 253.54 C 422.52 242.54 422.36 231.45 421.99 220.43 C 420.16 220.47 418.33 220.50 416.50 220.53 C 416.49 217.94 416.49 215.34 416.50 212.75 M 436.51 220.84 C 436.47 231.49 436.55 242.13 436.47 252.78 C 440.84 253.36 445.14 250.69 446.49 246.48 C 448.66 240.08 448.84 232.77 446.49 226.39 C 444.94 222.34 440.48 220.93 436.51 220.84 Z" />
<path fill="#ab0708" opacity="1.00" d=" M 649.75 212.75 C 662.64 212.73 675.54 212.79 688.44 212.73 C 688.48 218.07 688.87 223.40 688.76 228.75 C 685.88 228.75 683.00 228.75 680.13 228.79 C 679.81 226.22 679.50 223.65 679.01 221.12 C 675.93 220.98 672.84 220.98 669.77 220.99 C 669.75 224.56 669.76 228.13 669.72 231.71 C 674.64 231.79 679.57 231.74 684.50 231.75 C 684.50 234.58 684.50 237.42 684.50 240.25 C 679.60 240.25 674.71 240.28 669.82 240.21 C 669.71 244.47 669.75 248.73 669.76 252.99 C 673.46 253.01 677.16 253.07 680.87 252.84 C 681.45 250.32 681.93 247.79 682.35 245.24 C 685.23 245.25 688.11 245.25 691.00 245.24 C 690.68 250.57 690.61 255.92 690.31 261.25 C 676.79 261.25 663.27 261.26 649.75 261.25 C 649.74 258.68 649.74 256.11 649.74 253.55 C 651.57 253.40 653.55 253.82 655.30 253.14 C 655.72 242.30 655.46 231.44 655.42 220.60 C 653.52 220.54 651.63 220.49 649.75 220.46 C 649.74 217.89 649.74 215.32 649.75 212.75 Z" />
<path fill="#ab0708" opacity="1.00" d=" M 806.99 212.75 C 814.34 212.75 821.69 212.75 829.04 212.74 C 834.35 212.78 840.13 214.13 843.84 218.20 C 849.38 224.71 848.12 236.07 840.82 240.78 C 836.93 243.63 832.04 244.11 827.41 244.56 C 826.45 247.23 827.21 250.52 827.02 253.43 C 829.32 253.48 831.62 253.49 833.93 253.47 C 833.99 256.06 834.00 258.65 834.01 261.25 C 825.00 261.25 815.99 261.25 806.99 261.25 C 806.98 258.64 807.00 256.03 807.10 253.42 C 808.88 253.47 810.67 253.50 812.48 253.54 C 812.96 242.52 812.84 231.46 812.55 220.44 C 810.71 220.48 808.90 220.53 807.09 220.59 C 807.00 217.98 806.98 215.36 806.99 212.75 M 827.03 220.75 C 826.98 226.00 826.97 231.26 827.04 236.51 C 833.14 235.90 832.74 228.48 831.82 224.03 C 831.41 221.68 829.01 221.08 827.03 220.75 Z" />
<path fill="#ab0708" opacity="1.00" d=" M 886.75 212.75 C 899.64 212.73 912.54 212.79 925.44 212.73 C 925.47 218.07 925.87 223.40 925.76 228.75 C 922.88 228.75 920.00 228.75 917.13 228.80 C 916.81 226.23 916.50 223.66 916.01 221.12 C 912.93 220.99 909.86 220.98 906.79 220.97 C 906.74 224.56 906.74 228.14 906.74 231.73 C 911.66 231.77 916.58 231.75 921.50 231.75 C 921.50 234.58 921.50 237.41 921.50 240.25 C 916.60 240.25 911.70 240.28 906.81 240.22 C 906.72 244.48 906.75 248.74 906.76 253.00 C 910.44 253.01 914.12 253.05 917.81 252.87 C 918.44 250.35 918.94 247.80 919.35 245.24 C 922.22 245.25 925.09 245.25 927.97 245.22 C 927.70 250.56 927.60 255.91 927.31 261.25 C 913.79 261.25 900.27 261.26 886.75 261.25 C 886.74 258.68 886.74 256.11 886.74 253.55 C 888.57 253.40 890.56 253.84 892.31 253.11 C 892.70 242.29 892.47 231.43 892.41 220.59 C 890.51 220.53 888.62 220.49 886.75 220.46 C 886.74 217.89 886.74 215.32 886.75 212.75 Z" />
<path fill="#ab0708" opacity="1.00" d=" M 1049.25 220.53 C 1049.22 217.91 1049.23 215.30 1049.35 212.69 C 1057.90 212.83 1066.45 212.71 1075.01 212.75 C 1075.00 215.36 1074.99 217.96 1074.94 220.57 C 1073.10 220.52 1071.27 220.48 1069.46 220.44 C 1069.14 231.47 1069.05 242.54 1069.51 253.57 C 1071.29 253.51 1073.10 253.47 1074.91 253.41 C 1074.99 256.02 1075.00 258.63 1075.01 261.25 C 1066.42 261.25 1057.83 261.26 1049.24 261.25 C 1049.24 258.66 1049.24 256.07 1049.25 253.49 C 1051.07 253.50 1052.88 253.50 1054.73 253.51 C 1055.21 242.51 1055.11 231.47 1054.78 220.47 C 1052.91 220.49 1051.09 220.51 1049.25 220.53 Z" />
<path fill="#ab0708" opacity="1.00" d=" M 1132.32 212.79 C 1136.27 212.73 1140.21 212.75 1144.17 212.75 C 1148.22 224.08 1152.23 235.42 1156.24 246.77 C 1157.04 248.95 1157.67 251.24 1158.98 253.19 C 1160.45 253.49 1161.99 253.51 1163.51 253.60 C 1163.50 256.16 1163.49 258.71 1163.46 261.27 C 1155.15 261.24 1146.84 261.24 1138.54 261.27 C 1138.49 258.68 1138.48 256.09 1138.49 253.51 C 1140.22 253.50 1141.93 253.48 1143.69 253.47 C 1143.01 251.25 1142.32 249.05 1141.64 246.84 C 1137.70 246.71 1133.77 246.75 1129.84 246.76 C 1129.10 248.97 1128.41 251.21 1127.90 253.49 C 1129.67 253.50 1131.45 253.50 1133.25 253.50 C 1133.24 256.08 1133.24 258.67 1133.25 261.25 C 1126.41 261.25 1119.58 261.25 1112.75 261.25 C 1112.74 258.71 1112.74 256.18 1112.74 253.64 C 1114.84 253.47 1117.71 253.88 1118.19 251.13 C 1123.02 238.40 1127.69 225.60 1132.32 212.79 M 1135.76 229.87 C 1134.70 232.73 1133.73 235.62 1132.70 238.49 C 1134.71 238.50 1136.72 238.51 1138.75 238.53 C 1137.88 235.60 1137.00 232.66 1135.76 229.87 Z" />
<path fill="#ab0708" opacity="1.00" d=" M 1201.23 212.78 C 1209.82 212.72 1218.41 212.77 1227.01 212.75 C 1227.00 215.37 1226.99 217.98 1226.90 220.60 C 1225.07 220.53 1223.24 220.48 1221.44 220.42 C 1221.00 231.26 1221.39 242.12 1221.23 252.97 C 1224.71 252.91 1228.25 253.32 1231.71 252.68 C 1234.08 250.07 1233.40 246.08 1234.91 243.07 C 1237.42 242.90 1239.95 243.00 1242.49 243.00 C 1242.17 249.07 1242.03 255.14 1241.91 261.22 C 1228.35 261.29 1214.79 261.24 1201.24 261.24 C 1201.23 258.65 1201.24 256.06 1201.26 253.47 C 1203.05 253.50 1204.83 253.52 1206.65 253.55 C 1207.38 242.59 1206.91 231.56 1206.90 220.57 C 1205.00 220.53 1203.12 220.50 1201.25 220.49 C 1201.24 217.92 1201.23 215.35 1201.23 212.78 Z" />
<path fill="#ab0708" opacity="1.00" d=" M 241.45 462.51 C 243.39 460.51 246.85 460.10 248.95 462.06 C 254.05 466.98 258.82 472.26 264.07 477.03 C 281.36 477.77 298.73 477.38 316.06 477.69 C 539.18 479.50 762.30 480.70 985.42 482.51 C 985.36 486.17 985.38 489.83 985.34 493.50 C 744.98 491.58 504.61 490.31 264.25 488.27 C 258.82 493.18 254.08 498.83 248.51 503.56 C 246.02 504.22 242.47 504.70 240.61 502.43 C 236.09 497.60 231.34 492.99 226.66 488.32 C 225.05 486.63 223.10 484.63 223.48 482.08 C 223.51 480.11 225.07 478.66 226.35 477.35 C 231.55 472.58 236.30 467.33 241.45 462.51 Z" />
</g>
</svg>
