<?xml version="1.0" encoding="UTF-8" ?>
<!DOCTYPE svg PUBLIC "-//W3C//DTD SVG 1.1//EN" "http://www.w3.org/Graphics/SVG/1.1/DTD/svg11.dtd">
<svg width="1262pt" height="529pt" viewBox="0 0 1262 529" version="1.1" xmlns="http://www.w3.org/2000/svg">
<g id="#ffffffff">
</g>
<g id="#032064ff">
<path fill="#032064" opacity="1.00" d=" M 84.11 43.07 C 99.62 36.40 116.16 32.35 132.94 30.61 C 151.12 29.15 169.57 29.30 187.55 32.67 C 205.30 36.10 221.39 44.70 237.09 53.28 C 238.24 46.97 238.94 40.58 239.87 34.24 C 254.20 34.26 268.52 34.26 282.85 34.24 C 278.68 83.31 279.20 132.60 278.94 181.80 C 264.73 181.70 250.53 181.76 236.33 181.78 C 235.47 169.11 234.70 156.38 231.84 143.97 C 227.58 126.23 220.85 108.46 208.56 94.67 C 201.15 86.26 191.87 79.07 180.91 76.10 C 168.51 72.76 154.65 73.13 143.05 78.97 C 134.92 83.12 128.72 90.92 126.97 99.93 C 124.70 111.76 126.18 124.80 133.03 134.95 C 139.73 145.14 149.55 152.67 159.35 159.69 C 179.41 173.98 200.06 187.40 220.28 201.45 C 160.94 201.67 101.60 201.40 42.27 201.59 C 27.38 181.47 21.11 155.82 22.74 131.02 C 23.51 115.64 27.42 100.30 35.01 86.85 C 46.05 67.42 63.69 52.01 84.11 43.07 Z" />
<path fill="#032064" opacity="1.00" d=" M 418.70 34.22 C 437.32 36.29 456.16 36.36 474.75 34.04 C 496.29 89.93 518.04 145.73 539.74 201.56 C 499.96 201.50 460.18 201.55 420.40 201.53 C 416.99 192.56 413.77 183.52 410.42 174.54 C 409.72 175.44 409.09 176.41 408.71 177.49 C 405.65 185.53 402.59 193.57 399.40 201.55 C 384.08 201.47 368.75 201.61 353.43 201.48 C 375.20 145.73 396.87 89.94 418.70 34.22 Z" />
<path fill="#032064" opacity="1.00" d=" M 731.95 34.36 C 750.10 36.31 768.45 36.28 786.58 34.06 C 808.12 89.92 829.83 145.70 851.54 201.49 C 811.76 201.60 771.98 201.49 732.21 201.54 C 728.66 192.40 725.60 183.07 721.90 173.99 C 718.43 183.15 714.79 192.24 711.40 201.42 C 696.01 201.70 680.61 201.43 665.22 201.55 C 686.57 146.78 707.96 92.01 729.28 37.22 C 729.92 36.12 730.03 33.61 731.95 34.36 Z" />
<path fill="#032064" opacity="1.00" d=" M 896.96 35.50 C 940.95 37.43 985.00 37.40 1029.02 37.74 C 1088.68 37.76 1148.36 37.89 1208.01 36.79 C 1219.90 36.49 1231.78 36.02 1243.67 35.49 C 1240.60 75.91 1237.99 116.45 1239.10 157.01 C 1239.33 168.98 1240.87 180.86 1241.96 192.78 C 1227.74 192.72 1213.51 192.78 1199.29 192.75 C 1195.21 171.17 1190.79 149.52 1183.03 128.91 C 1178.01 116.04 1171.80 103.05 1161.40 93.63 C 1152.06 84.90 1139.27 81.01 1126.74 80.08 C 1126.53 120.57 1126.72 161.05 1126.65 201.54 C 1089.13 201.57 1051.61 201.44 1014.10 201.60 C 1013.83 161.23 1014.04 120.84 1013.99 80.46 C 1000.76 80.52 987.27 85.37 978.07 95.11 C 965.70 108.13 958.82 125.20 953.40 142.05 C 948.15 158.65 944.64 175.71 941.20 192.76 C 926.99 192.67 912.77 192.92 898.56 192.63 C 901.33 171.18 902.19 149.52 901.69 127.90 C 901.39 97.05 899.25 66.26 896.96 35.50 Z" />
<path fill="#032064" opacity="1.00" d=" M 22.00 293.05 C 37.17 293.11 52.33 292.96 67.49 293.13 C 69.06 307.66 72.21 322.04 77.06 335.84 C 81.77 348.49 87.52 361.21 96.98 371.07 C 106.13 380.56 118.91 385.94 131.90 387.34 C 146.20 388.90 161.75 387.38 173.76 378.81 C 181.19 374.13 185.80 365.91 187.29 357.39 C 189.89 342.55 186.82 326.48 177.74 314.29 C 171.70 306.20 163.95 299.64 156.40 293.05 C 202.97 293.07 249.54 293.05 296.10 293.06 C 300.40 312.83 299.28 333.52 294.18 353.03 C 302.37 333.15 309.86 312.98 317.85 293.02 C 333.29 293.10 348.73 293.04 364.17 293.05 C 356.94 313.50 347.73 333.45 343.80 354.91 C 342.80 361.50 341.87 368.53 344.20 374.94 C 345.17 377.98 348.39 379.18 351.10 380.19 C 362.83 384.39 375.47 384.02 387.74 384.48 C 387.80 398.65 387.75 412.82 387.77 426.99 C 353.88 425.29 319.94 424.15 286.01 425.14 C 275.44 425.65 264.96 427.17 254.42 427.92 C 254.57 420.66 254.41 413.40 254.52 406.14 C 237.52 418.31 217.42 425.39 197.07 429.53 C 180.92 432.55 164.41 433.81 147.99 433.02 C 134.18 432.70 120.33 431.19 106.91 427.82 C 92.03 423.97 77.91 417.75 64.32 410.64 C 63.41 417.01 62.52 423.38 61.68 429.76 C 47.40 429.76 33.12 429.71 18.84 429.79 C 22.13 384.28 21.67 338.64 22.00 293.05 Z" />
<path fill="#032064" opacity="1.00" d=" M 453.63 293.06 C 493.44 293.04 533.25 293.08 573.05 293.04 C 574.59 292.69 575.84 293.43 576.08 295.03 C 584.55 317.07 593.23 339.03 601.67 361.08 C 605.93 353.71 608.98 345.73 612.15 337.85 C 617.86 322.95 623.86 308.15 629.43 293.19 C 644.95 292.87 660.48 293.15 676.01 293.05 C 669.37 311.56 661.36 329.67 656.84 348.87 C 655.24 356.14 653.90 363.67 654.99 371.11 C 655.41 374.26 656.73 377.78 659.98 378.96 C 672.37 384.57 686.30 383.91 699.58 384.50 C 699.63 398.64 699.51 412.79 699.64 426.93 C 678.08 426.19 656.53 424.77 634.95 424.88 C 634.93 425.42 634.89 426.49 634.87 427.02 C 623.57 426.62 612.30 425.73 601.00 425.48 C 589.36 425.18 577.83 427.07 566.26 427.96 C 566.27 427.21 566.31 425.70 566.33 424.95 C 539.89 424.62 513.44 424.89 487.01 425.30 C 474.34 425.46 461.72 426.61 449.07 427.25 C 449.13 413.06 448.92 398.86 449.18 384.67 C 460.92 384.03 472.91 384.34 484.34 381.16 C 483.62 373.45 480.43 366.33 477.85 359.13 C 469.78 337.10 461.70 315.08 453.63 293.06 Z" />
<path fill="#032064" opacity="1.00" d=" M 765.46 293.05 C 806.00 293.07 846.55 293.04 887.10 293.06 C 896.47 316.99 905.61 341.01 915.11 364.89 C 918.50 372.35 922.64 381.05 931.04 383.77 C 936.24 384.44 941.52 384.38 946.75 384.79 C 946.73 398.85 946.71 412.91 946.76 426.97 C 909.88 424.86 872.93 424.67 835.99 424.89 C 818.81 425.04 801.62 425.03 784.45 425.79 C 776.60 426.35 768.75 426.81 760.90 427.24 C 761.04 413.04 760.56 398.82 761.14 384.63 C 772.84 384.06 784.77 384.33 796.15 381.15 C 795.51 374.04 792.71 367.41 790.27 360.78 C 782.00 338.20 773.72 315.63 765.46 293.05 Z" />
<path fill="#032064" opacity="1.00" d=" M 1013.98 293.06 C 1051.55 293.08 1089.12 293.00 1126.69 293.10 C 1126.61 310.08 1126.68 327.05 1126.65 344.03 C 1126.81 354.33 1126.11 364.88 1128.82 374.93 C 1129.67 379.26 1134.23 381.12 1138.10 381.87 C 1152.16 384.33 1166.48 383.91 1180.70 384.25 C 1180.63 398.36 1180.82 412.47 1180.60 426.57 C 1152.07 426.17 1123.55 425.03 1095.01 424.99 C 1049.98 424.38 1004.94 425.44 959.93 426.74 C 960.00 412.56 959.80 398.38 960.04 384.20 C 972.00 384.17 983.98 383.90 995.88 382.57 C 1000.19 382.04 1004.75 381.74 1008.58 379.49 C 1010.90 378.27 1011.54 375.53 1012.17 373.21 C 1013.83 365.93 1013.92 358.43 1013.98 351.00 C 1013.98 331.69 1013.97 312.37 1013.98 293.06 Z" />
<path fill="#032064" opacity="1.00" d=" M 784.65 448.97 C 784.82 446.16 788.13 443.71 790.75 445.31 C 792.50 446.29 794.39 446.08 796.16 445.22 C 797.70 447.28 793.92 449.48 792.06 449.28 C 789.61 448.38 787.11 447.70 784.65 448.97 Z" />
<path fill="#032064" opacity="1.00" d=" M 294.87 451.52 C 298.39 450.24 302.67 450.22 305.99 452.09 C 308.82 453.78 308.43 457.44 308.56 460.28 C 306.21 460.28 303.87 460.28 301.52 460.29 C 301.31 458.61 301.84 454.35 298.82 455.84 C 298.38 457.61 298.01 460.02 299.75 461.24 C 302.83 463.73 307.18 465.28 308.52 469.37 C 309.25 472.35 309.27 475.61 308.39 478.56 C 307.08 481.81 303.16 482.59 300.04 482.64 C 297.25 482.64 293.80 482.31 292.23 479.64 C 290.72 476.96 291.20 473.73 291.21 470.80 C 293.86 470.97 296.54 470.74 298.81 469.22 C 295.27 467.92 291.56 465.20 291.20 461.15 C 290.75 457.67 291.08 453.02 294.87 451.52 M 298.31 471.18 C 298.21 473.36 298.22 475.77 299.26 477.76 C 302.78 477.57 301.05 472.72 300.60 470.53 C 300.03 470.69 298.88 471.02 298.31 471.18 Z" />
<path fill="#032064" opacity="1.00" d=" M 310.31 451.29 C 312.93 451.28 315.55 451.27 318.18 451.24 C 318.32 461.50 318.20 471.75 318.24 482.01 C 315.58 482.01 312.92 482.00 310.26 481.94 C 310.37 471.72 310.29 461.50 310.31 451.29 Z" />
<path fill="#032064" opacity="1.00" d=" M 323.42 451.50 C 326.99 450.25 331.36 450.18 334.67 452.21 C 337.35 453.98 336.91 457.50 337.08 460.28 C 334.72 460.28 332.36 460.28 330.01 460.28 C 329.59 458.63 330.63 455.67 328.12 455.48 C 326.38 456.24 326.79 459.08 327.53 460.50 C 330.65 463.71 336.08 465.07 337.19 469.97 C 337.67 473.74 338.32 479.05 334.45 481.30 C 330.78 483.05 326.15 483.18 322.47 481.41 C 318.94 479.14 319.76 474.39 319.61 470.81 C 322.08 470.81 324.55 470.81 327.02 470.81 C 327.58 472.96 325.57 477.86 329.07 477.67 C 330.26 475.76 330.26 472.84 328.85 471.03 C 326.07 468.22 321.50 467.02 320.11 462.97 C 319.10 459.08 319.02 453.33 323.42 451.50 Z" />
<path fill="#032064" opacity="1.00" d=" M 338.32 451.28 C 344.10 451.28 349.88 451.26 355.66 451.30 C 355.63 453.39 355.61 455.49 355.56 457.59 C 354.07 457.51 352.60 457.43 351.12 457.35 C 350.73 465.56 351.04 473.78 350.94 482.00 C 348.30 482.00 345.66 482.00 343.02 481.99 C 342.95 473.78 343.19 465.56 342.88 457.36 C 341.40 457.44 339.92 457.52 338.45 457.61 C 338.36 455.50 338.33 453.39 338.32 451.28 Z" />
<path fill="#032064" opacity="1.00" d=" M 356.61 451.43 C 361.08 451.14 365.55 451.33 370.03 451.25 C 370.08 453.36 370.04 455.47 369.90 457.58 C 368.13 457.53 366.37 457.49 364.61 457.47 C 364.61 459.33 364.61 461.21 364.62 463.09 C 366.32 463.09 368.04 463.11 369.75 463.13 C 369.74 465.06 369.75 466.99 369.78 468.92 C 368.02 468.99 366.28 469.09 364.54 469.19 C 364.59 471.37 364.61 473.57 364.60 475.77 C 366.56 475.79 368.53 475.80 370.50 475.83 C 370.50 477.88 370.50 479.94 370.50 482.00 C 365.90 482.00 361.30 482.00 356.70 482.00 C 356.64 471.81 356.81 461.62 356.61 451.43 Z" />
<path fill="#032064" opacity="1.00" d=" M 371.77 451.24 C 375.27 451.28 378.77 451.26 382.28 451.34 C 382.96 457.24 383.40 463.18 384.51 469.02 C 384.97 463.09 385.62 457.18 386.24 451.27 C 389.79 451.28 393.34 451.28 396.89 451.27 C 396.94 461.51 396.89 471.75 396.92 482.00 C 394.66 481.99 392.41 481.99 390.16 481.98 C 389.90 475.26 390.87 468.43 389.54 461.80 C 388.95 468.56 387.67 475.23 386.84 481.96 C 385.17 481.98 383.49 482.00 381.83 482.03 C 380.65 474.64 379.83 467.20 378.45 459.85 C 378.33 467.23 378.46 474.62 378.40 482.00 C 376.17 481.99 373.93 482.00 371.70 482.00 C 371.74 471.75 371.61 461.49 371.77 451.24 Z" />
<path fill="#032064" opacity="1.00" d=" M 401.93 451.24 C 405.71 451.29 409.51 451.25 413.30 451.34 C 414.55 461.57 416.12 471.77 417.42 482.00 C 414.80 481.99 412.19 482.00 409.57 482.04 C 409.42 480.21 409.26 478.37 409.13 476.55 C 408.40 476.58 406.93 476.64 406.19 476.67 C 406.11 478.43 406.02 480.20 405.93 481.97 C 403.27 481.99 400.62 482.00 397.96 482.00 C 399.31 471.75 400.45 461.47 401.93 451.24 M 407.39 456.98 C 407.11 461.74 406.68 466.49 406.30 471.25 C 407.21 471.18 408.12 471.11 409.03 471.05 C 408.51 466.35 408.24 461.63 407.39 456.98 Z" />
<path fill="#032064" opacity="1.00" d=" M 432.15 451.24 C 435.93 451.29 439.71 451.27 443.50 451.29 C 444.87 461.53 446.31 471.76 447.70 482.00 C 445.05 482.00 442.41 482.00 439.78 482.00 C 439.65 480.18 439.52 478.38 439.41 476.58 C 438.44 476.57 437.47 476.57 436.52 476.58 C 436.38 478.38 436.25 480.19 436.12 482.00 C 433.49 482.00 430.85 482.00 428.23 482.00 C 429.53 471.75 430.73 461.48 432.15 451.24 M 436.46 470.84 C 437.16 470.94 438.55 471.15 439.25 471.25 C 438.76 466.46 438.58 461.63 437.60 456.92 C 437.45 461.57 437.02 466.21 436.46 470.84 Z" />
<path fill="#032064" opacity="1.00" d=" M 448.09 451.27 C 453.83 451.27 459.57 451.32 465.31 451.23 C 465.35 453.30 465.38 455.38 465.40 457.46 C 463.81 457.48 462.24 457.51 460.66 457.55 C 460.74 465.68 460.62 473.81 460.74 481.94 C 458.08 482.00 455.43 482.00 452.78 482.01 C 452.81 473.86 452.70 465.72 452.85 457.57 C 451.27 457.53 449.71 457.51 448.14 457.50 C 448.10 455.42 448.09 453.34 448.09 451.27 Z" />
<path fill="#032064" opacity="1.00" d=" M 481.44 451.30 C 483.65 451.45 486.14 450.79 488.19 451.65 C 489.90 456.44 490.93 461.47 492.72 466.24 C 492.82 461.26 492.74 456.28 492.75 451.30 C 494.99 451.28 497.23 451.28 499.48 451.29 C 499.45 461.52 499.48 471.76 499.47 482.00 C 497.23 481.99 494.99 482.00 492.76 482.00 C 491.29 476.30 489.71 470.63 488.42 464.89 C 487.92 470.58 488.24 476.31 488.16 482.02 C 485.89 482.00 483.64 481.98 481.39 481.92 C 481.52 471.71 481.43 461.50 481.44 451.30 Z" />
<path fill="#032064" opacity="1.00" d=" M 501.44 451.30 C 506.14 451.39 510.90 450.91 515.57 451.69 C 518.58 452.12 520.31 455.18 520.22 458.04 C 520.32 464.34 520.38 470.65 520.19 476.95 C 520.20 479.65 517.66 481.61 515.14 481.84 C 510.56 482.20 505.96 481.98 501.38 481.90 C 501.53 471.70 501.42 461.50 501.44 451.30 M 509.43 456.14 C 509.29 463.12 509.37 470.10 509.39 477.07 C 510.50 476.69 512.48 476.64 512.26 474.93 C 512.44 469.31 512.50 463.66 512.22 458.05 C 512.18 456.52 510.40 456.71 509.43 456.14 Z" />
<path fill="#032064" opacity="1.00" d=" M 522.11 451.25 C 524.71 451.28 527.32 451.27 529.93 451.24 C 530.07 461.49 529.95 471.74 529.99 482.00 C 527.34 482.00 524.70 482.00 522.05 482.00 C 522.09 471.75 521.99 461.50 522.11 451.25 Z" />
<path fill="#032064" opacity="1.00" d=" M 531.61 451.43 C 535.16 451.19 538.73 451.24 542.29 451.34 C 542.95 457.25 543.41 463.20 544.51 469.06 C 544.96 463.12 545.61 457.19 546.25 451.26 C 549.79 451.28 553.34 451.28 556.89 451.26 C 556.95 461.50 556.88 471.75 556.92 481.99 C 554.66 481.99 552.41 481.99 550.16 481.98 C 549.94 475.26 550.79 468.44 549.59 461.80 C 548.87 468.54 547.71 475.23 546.84 481.96 C 545.16 481.98 543.49 482.00 541.83 482.03 C 540.64 474.64 539.83 467.19 538.44 459.83 C 538.33 467.22 538.45 474.61 538.41 482.00 C 536.17 482.00 533.93 481.99 531.70 482.00 C 531.64 471.81 531.81 461.62 531.61 451.43 Z" />
<path fill="#032064" opacity="1.00" d=" M 559.04 451.24 C 563.45 451.30 567.87 451.29 572.29 451.25 C 572.31 453.31 572.33 455.36 572.37 457.43 C 570.53 457.46 568.69 457.49 566.86 457.53 C 566.85 459.38 566.86 461.24 566.87 463.10 C 568.56 463.09 570.27 463.09 571.98 463.10 C 571.98 465.07 571.99 467.06 572.00 469.04 C 570.28 469.04 568.57 469.04 566.87 469.05 C 566.86 471.30 566.85 473.54 566.86 475.80 C 568.80 475.80 570.74 475.79 572.70 475.79 C 572.73 477.84 572.76 479.89 572.81 481.96 C 568.19 482.03 563.57 481.99 558.95 482.00 C 559.00 471.74 558.84 461.49 559.04 451.24 Z" />
<path fill="#032064" opacity="1.00" d=" M 574.03 451.24 C 576.24 451.26 578.45 451.27 580.66 451.29 C 582.22 456.19 583.31 461.25 585.29 466.01 C 585.26 461.10 585.25 456.19 585.26 451.28 C 587.50 451.27 589.74 451.28 591.99 451.30 C 591.95 461.53 591.98 471.77 591.98 482.00 C 589.72 482.00 587.47 481.99 585.22 481.96 C 583.71 476.30 582.48 470.55 580.62 464.99 C 580.68 470.66 580.66 476.33 580.65 482.00 C 578.41 481.99 576.18 482.00 573.95 482.00 C 574.00 471.75 573.85 461.49 574.03 451.24 Z" />
<path fill="#032064" opacity="1.00" d=" M 593.09 451.27 C 598.86 451.30 604.64 451.24 610.41 451.31 C 610.38 452.77 610.36 454.25 610.34 455.72 C 610.88 456.38 611.42 457.04 611.97 457.71 C 611.53 453.67 615.46 450.90 619.09 450.75 C 623.20 450.16 628.59 451.46 629.76 456.04 C 630.76 460.96 630.09 466.04 630.30 471.03 C 630.37 474.76 630.23 479.54 626.40 481.47 C 621.35 483.91 612.57 482.93 611.72 476.18 C 611.20 470.07 611.37 463.88 611.68 457.75 C 609.68 457.65 607.68 457.51 605.69 457.42 C 605.71 465.59 605.63 473.77 605.74 481.94 C 603.08 482.00 600.43 482.01 597.78 482.01 C 597.67 473.78 597.99 465.54 597.61 457.32 C 596.12 457.42 594.64 457.51 593.17 457.61 C 593.10 455.49 593.09 453.38 593.09 451.27 M 619.52 456.42 C 619.25 463.13 619.26 469.87 619.50 476.58 C 619.82 476.85 620.47 477.39 620.79 477.66 L 622.06 477.04 C 622.67 469.98 622.41 462.82 622.14 455.73 C 621.49 455.90 620.17 456.25 619.52 456.42 Z" />
<path fill="#032064" opacity="1.00" d=" M 645.54 451.32 C 649.34 451.26 653.14 451.28 656.95 451.26 C 658.43 461.50 659.77 471.76 661.20 482.00 C 658.55 482.00 655.90 481.99 653.26 481.97 C 653.15 480.26 653.08 478.55 652.88 476.87 C 651.99 476.63 651.10 476.42 650.21 476.25 C 649.96 478.13 649.78 480.03 649.64 481.93 C 647.00 482.00 644.36 482.01 641.72 482.01 C 642.97 471.77 644.35 461.56 645.54 451.32 M 651.54 456.93 C 650.76 461.62 650.46 466.36 650.02 471.09 C 650.90 471.14 651.80 471.19 652.70 471.25 C 652.33 466.47 651.86 461.70 651.54 456.93 Z" />
<path fill="#032064" opacity="1.00" d=" M 661.52 451.38 C 667.30 451.15 673.09 451.34 678.87 451.26 C 678.87 453.33 678.86 455.41 678.84 457.49 C 677.26 457.50 675.69 457.52 674.13 457.57 C 674.26 465.71 674.16 473.86 674.19 482.01 C 671.53 482.01 668.88 482.00 666.23 481.94 C 666.35 473.82 666.21 465.69 666.31 457.57 C 664.74 457.52 663.16 457.47 661.61 457.44 C 661.58 455.42 661.56 453.40 661.52 451.38 Z" />
<path fill="#032064" opacity="1.00" d=" M 679.60 451.44 C 684.07 451.13 688.56 451.34 693.04 451.25 C 693.07 453.35 693.04 455.45 692.94 457.55 C 691.16 457.51 689.38 457.48 687.61 457.47 C 687.60 459.34 687.61 461.21 687.62 463.09 C 689.31 463.09 691.02 463.11 692.74 463.12 C 692.74 465.05 692.75 466.98 692.78 468.92 C 691.03 468.99 689.29 469.08 687.55 469.18 C 687.59 471.37 687.60 473.58 687.60 475.78 C 689.53 475.79 691.45 475.78 693.39 475.78 C 693.48 477.82 693.52 479.85 693.60 481.90 C 688.97 482.08 684.33 481.98 679.70 482.00 C 679.64 471.81 679.82 461.62 679.60 451.44 Z" />
<path fill="#032064" opacity="1.00" d=" M 695.05 451.24 C 699.73 451.49 704.53 450.76 709.13 451.86 C 713.50 453.12 712.83 458.47 712.52 461.99 C 712.41 463.95 710.62 464.93 709.05 465.67 C 710.49 466.45 712.36 467.15 712.70 468.99 C 713.29 473.29 712.84 477.66 712.98 481.99 C 710.51 481.99 708.04 482.00 705.58 482.00 C 705.51 478.02 705.69 474.04 705.52 470.06 C 705.79 468.31 704.04 467.70 702.66 467.48 C 702.58 472.29 702.59 477.12 702.66 481.94 C 700.09 481.99 697.52 482.00 694.95 482.01 C 695.00 471.75 694.83 461.49 695.05 451.24 M 702.61 456.03 C 702.59 458.38 702.59 460.73 702.59 463.09 C 706.89 463.62 706.84 455.68 702.61 456.03 Z" />
<path fill="#032064" opacity="1.00" d=" M 715.03 451.25 C 718.52 451.28 722.01 451.27 725.50 451.30 C 726.16 457.22 726.86 463.14 727.47 469.07 C 728.41 463.18 728.82 457.22 729.47 451.29 C 733.00 451.27 736.54 451.28 740.09 451.25 C 740.25 461.50 740.11 471.75 740.16 482.00 C 737.91 482.00 735.67 481.99 733.44 482.00 C 733.49 474.64 733.27 467.28 733.62 459.93 C 731.79 467.16 731.29 474.65 730.05 482.00 C 728.37 481.99 726.71 481.99 725.05 482.00 C 723.77 474.64 723.37 467.11 721.44 459.89 C 721.88 467.25 721.57 474.63 721.66 482.00 C 719.41 481.99 717.18 482.00 714.95 482.00 C 714.99 471.75 714.85 461.50 715.03 451.25 Z" />
<path fill="#032064" opacity="1.00" d=" M 745.12 451.26 C 748.91 451.28 752.70 451.27 756.50 451.29 C 757.86 461.53 759.33 471.76 760.68 482.00 C 758.04 482.00 755.41 482.00 752.78 482.00 C 752.64 480.19 752.52 478.39 752.41 476.59 C 751.43 476.58 750.47 476.57 749.52 476.57 C 749.38 478.38 749.25 480.19 749.12 482.00 C 746.47 482.00 743.82 481.99 741.17 481.94 C 742.59 471.73 743.73 461.48 745.12 451.26 M 749.67 471.02 C 750.31 471.09 751.60 471.22 752.25 471.29 C 751.77 466.49 751.56 461.65 750.64 456.92 C 750.55 461.63 749.72 466.31 749.67 471.02 Z" />
<path fill="#032064" opacity="1.00" d=" M 762.14 457.88 C 762.68 450.44 773.23 448.45 778.09 452.94 C 780.95 455.72 780.34 460.01 780.44 463.62 C 777.78 463.63 775.12 463.63 772.48 463.62 C 772.48 461.02 772.63 458.40 772.16 455.84 C 771.66 455.90 770.65 456.03 770.15 456.10 C 769.68 463.06 769.66 470.13 770.15 477.10 C 771.49 478.78 772.73 476.26 772.47 475.13 C 772.53 473.00 772.48 470.87 772.48 468.75 C 775.12 468.74 777.76 468.74 780.41 468.75 C 780.32 472.56 781.06 477.12 778.10 480.11 C 776.38 482.13 773.58 482.35 771.16 482.87 C 773.06 483.64 775.71 484.41 775.15 487.08 C 775.29 490.09 769.39 492.64 768.74 489.00 C 770.27 488.73 771.69 488.17 772.06 486.51 C 771.34 486.31 769.89 485.91 769.17 485.71 C 769.21 484.96 769.30 483.46 769.34 482.71 C 765.99 481.97 762.52 479.88 762.21 476.12 C 761.75 470.06 761.85 463.94 762.14 457.88 Z" />
<path fill="#032064" opacity="1.00" d=" M 784.93 451.23 C 788.70 451.29 792.49 451.26 796.28 451.32 C 797.60 461.56 799.08 471.78 800.45 482.01 C 797.76 482.02 795.08 482.01 792.40 481.87 C 792.35 480.14 792.28 478.42 792.23 476.71 C 791.25 476.62 790.28 476.55 789.32 476.47 C 789.15 478.31 789.00 480.15 788.87 481.99 C 786.23 482.00 783.59 482.00 780.96 482.00 C 782.31 471.75 783.45 461.47 784.93 451.23 M 789.31 471.24 C 790.20 471.18 791.10 471.13 792.01 471.09 C 791.53 466.39 791.19 461.67 790.51 456.99 C 790.06 461.73 789.68 466.48 789.31 471.24 Z" />
<path fill="#032064" opacity="1.00" d=" M 806.30 451.48 C 809.91 450.24 814.34 450.19 817.58 452.44 C 820.56 454.61 820.53 458.66 820.55 461.99 C 820.42 466.63 820.80 471.29 820.29 475.92 C 819.37 485.02 802.89 485.08 801.94 475.98 C 801.44 470.68 801.77 465.34 801.72 460.03 C 801.58 456.65 802.84 452.72 806.30 451.48 M 809.95 456.07 C 809.26 462.64 809.64 469.33 809.73 475.94 C 809.18 478.29 812.77 477.79 812.56 475.92 C 812.69 469.92 812.65 463.92 812.58 457.92 C 812.86 456.40 811.38 455.08 809.95 456.07 Z" />
<path fill="#032064" opacity="1.00" d=" M 870.08 451.27 C 872.70 451.28 875.32 451.27 877.96 451.25 C 878.04 461.50 877.97 471.75 877.99 482.00 C 875.34 482.00 872.69 482.00 870.05 481.99 C 870.07 471.75 870.03 461.51 870.08 451.27 Z" />
<path fill="#032064" opacity="1.00" d=" M 882.91 451.24 C 886.70 451.29 890.50 451.25 894.30 451.34 C 895.57 461.58 897.09 471.78 898.45 482.01 C 895.77 482.02 893.10 482.01 890.44 481.87 C 890.37 480.20 890.31 478.52 890.13 476.87 C 889.19 476.66 888.26 476.49 887.33 476.37 C 887.15 478.23 887.01 480.11 886.87 481.99 C 884.23 481.99 881.59 482.00 878.96 482.00 C 880.30 471.75 881.46 461.48 882.91 451.24 M 888.47 456.97 C 888.10 461.74 887.65 466.50 887.32 471.27 C 888.21 471.20 889.10 471.14 890.01 471.08 C 889.53 466.37 889.21 461.65 888.47 456.97 Z" />
<path fill="#032064" opacity="1.00" d=" M 904.48 451.39 C 908.08 450.29 912.41 450.20 915.68 452.29 C 918.81 454.69 918.12 459.11 918.34 462.58 C 915.68 462.60 913.03 462.60 910.39 462.60 C 910.33 460.38 910.53 458.12 910.02 455.94 C 909.51 455.98 908.49 456.06 907.98 456.11 C 907.39 463.01 907.32 470.12 908.02 477.02 C 911.88 478.43 910.31 472.65 910.68 470.52 C 908.28 469.81 909.11 467.21 909.05 465.37 C 912.21 465.44 915.37 465.44 918.53 465.43 C 918.57 470.92 918.44 476.40 918.63 481.88 C 916.59 481.69 913.01 483.15 912.73 480.12 C 910.65 481.94 907.87 483.14 905.08 482.47 C 901.52 481.96 899.88 478.11 899.78 474.91 C 899.62 469.64 899.65 464.36 899.76 459.10 C 899.71 455.91 901.26 452.44 904.48 451.39 Z" />
<path fill="#032064" opacity="1.00" d=" M 920.20 451.28 C 924.66 451.28 929.12 451.27 933.59 451.29 C 933.57 453.35 933.57 455.41 933.57 457.48 C 931.72 457.48 929.88 457.50 928.04 457.53 C 928.07 459.35 928.06 461.18 928.22 463.01 C 929.88 463.17 931.56 463.11 933.25 463.16 C 933.22 465.11 933.23 467.08 933.23 469.05 C 931.51 469.04 929.81 469.04 928.11 469.04 C 928.10 471.30 928.11 473.56 928.12 475.82 C 930.07 475.81 932.03 475.81 934.00 475.81 C 933.99 477.87 933.99 479.93 934.00 482.00 C 929.39 481.99 924.78 482.02 920.17 481.97 C 920.23 471.74 920.17 461.51 920.20 451.28 Z" />
<path fill="#032064" opacity="1.00" d=" M 935.44 451.30 C 938.93 451.27 942.42 451.28 945.92 451.24 C 946.87 457.14 946.98 463.16 948.32 468.99 C 948.64 463.05 949.35 457.15 950.05 451.25 C 953.58 451.28 957.12 451.27 960.67 451.29 C 960.68 461.51 960.60 471.72 960.71 481.93 C 958.45 481.98 956.19 482.00 953.94 482.01 C 953.80 474.66 954.27 467.28 953.57 459.95 C 952.82 467.30 951.50 474.57 950.66 481.91 C 948.91 481.94 947.17 481.94 945.45 481.91 C 944.57 474.53 943.33 467.20 942.41 459.82 C 941.89 467.21 942.27 474.62 942.16 482.02 C 939.88 482.01 937.62 481.98 935.37 481.89 C 935.54 471.69 935.41 461.49 935.44 451.30 Z" />
<path fill="#032064" opacity="1.00" d=" M 466.37 481.89 C 466.56 471.68 466.37 461.47 466.47 451.27 C 470.95 451.31 475.44 451.19 479.93 451.39 C 479.85 453.42 479.82 455.47 479.77 457.52 C 477.97 457.50 476.16 457.48 474.37 457.47 C 474.36 459.35 474.36 461.23 474.37 463.11 C 476.06 463.10 477.76 463.09 479.46 463.08 C 479.47 465.06 479.48 467.04 479.49 469.03 C 477.76 469.04 476.05 469.06 474.33 469.09 C 474.35 471.32 474.36 473.56 474.36 475.80 C 476.32 475.80 478.28 475.81 480.25 475.82 C 480.25 477.87 480.25 479.93 480.25 482.00 C 475.62 481.98 470.99 482.09 466.37 481.89 Z" />
<path fill="#032064" opacity="1.00" d=" M 831.83 451.31 C 837.60 451.26 843.37 451.26 849.14 451.30 C 849.12 453.36 849.12 455.42 849.12 457.48 C 847.55 457.48 845.99 457.48 844.44 457.49 C 844.43 465.66 844.45 473.83 844.43 482.00 C 841.79 482.00 839.16 482.00 836.53 482.00 C 836.52 473.83 836.53 465.66 836.52 457.49 C 834.96 457.48 833.39 457.48 831.85 457.48 C 831.83 455.42 831.83 453.36 831.83 451.31 Z" />
<path fill="#032064" opacity="1.00" d=" M 850.11 451.41 C 854.71 451.31 859.38 450.91 863.95 451.72 C 866.33 452.17 868.00 454.45 867.90 456.85 C 868.15 460.12 868.37 464.86 864.16 465.58 C 865.63 466.41 867.61 467.10 867.95 469.02 C 868.53 473.31 868.09 477.67 868.22 482.00 C 865.75 482.00 863.28 482.00 860.82 482.00 C 860.65 477.48 861.22 472.91 860.49 468.44 C 859.84 468.19 858.55 467.69 857.90 467.45 C 857.83 472.29 857.86 477.13 857.89 481.98 C 855.31 482.00 852.74 482.00 850.18 481.98 C 850.17 471.79 850.30 461.60 850.11 451.41 M 857.85 456.05 C 857.84 458.38 857.72 460.73 858.02 463.05 C 862.19 463.56 861.99 455.59 857.85 456.05 Z" />
</g>
<g id="#ab0708ff">
<path fill="#ab0708" opacity="1.00" d=" M 533.52 223.73 C 541.25 222.05 550.19 223.20 556.08 228.87 C 562.23 234.77 563.84 243.93 562.90 252.09 C 562.18 259.67 558.03 267.25 550.92 270.52 C 541.13 275.01 527.42 273.34 521.14 263.87 C 516.24 256.16 515.86 246.19 518.40 237.59 C 520.44 230.64 526.43 225.17 533.52 223.73 M 537.11 232.17 C 533.25 234.17 532.45 239.02 532.08 242.94 C 531.71 248.89 531.43 255.29 534.12 260.78 C 536.09 265.10 543.03 265.53 545.51 261.49 C 548.06 257.51 548.00 252.56 548.24 248.01 C 548.08 243.40 547.98 238.47 545.61 234.38 C 543.90 231.54 539.99 231.04 537.11 232.17 Z" />
<path fill="#ab0708" opacity="1.00" d=" M 745.95 228.95 C 749.77 224.26 756.20 222.74 762.01 223.07 C 765.92 223.37 770.21 224.02 773.15 226.87 C 776.15 229.52 776.51 234.85 773.35 237.53 C 770.68 239.90 766.89 239.97 763.52 239.96 C 763.48 236.78 763.26 231.48 758.99 231.46 C 755.28 230.98 754.21 236.30 756.99 238.11 C 761.90 241.80 768.42 242.75 772.96 247.05 C 779.05 252.19 778.58 262.61 772.82 267.83 C 768.57 271.76 762.54 273.16 756.88 272.86 C 752.23 272.71 747.11 271.68 743.89 268.05 C 740.89 264.82 740.60 259.07 744.08 256.08 C 746.59 253.87 750.07 253.96 753.21 253.94 C 753.24 256.78 752.96 259.89 754.72 262.34 C 757.16 266.59 766.12 264.61 764.39 259.03 C 761.02 253.84 753.83 253.59 749.17 249.89 C 742.15 245.70 740.63 235.07 745.95 228.95 Z" />
<path fill="#ab0708" opacity="1.00" d=" M 987.58 228.66 C 993.36 223.45 1001.72 222.30 1009.17 223.46 C 1012.71 224.07 1016.59 225.27 1018.69 228.43 C 1020.64 231.17 1020.42 235.36 1017.80 237.61 C 1015.15 240.14 1011.27 240.12 1007.86 240.35 C 1007.57 237.63 1008.02 234.25 1005.71 232.28 C 1002.46 230.56 998.07 232.27 996.89 235.76 C 994.57 242.01 994.79 248.99 995.77 255.50 C 996.33 259.63 999.61 263.53 1004.09 263.28 C 1009.17 264.07 1013.50 260.72 1016.14 256.71 C 1018.47 257.92 1020.42 260.30 1019.93 263.08 C 1019.48 268.22 1014.50 271.37 1009.85 272.28 C 1002.05 273.76 993.05 272.65 987.11 266.95 C 981.98 262.13 980.10 254.82 980.15 247.99 C 980.08 240.96 982.16 233.44 987.58 228.66 Z" />
<path fill="#ab0708" opacity="1.00" d=" M 43.20 223.83 C 51.80 223.65 60.41 223.80 69.01 223.75 C 69.03 226.38 69.01 229.01 68.85 231.64 C 67.06 231.55 65.27 231.47 63.49 231.38 C 62.89 244.89 63.50 258.43 63.19 271.94 C 62.96 277.07 60.20 282.21 55.55 284.61 C 50.86 287.33 45.24 287.09 40.00 287.29 C 40.00 284.55 40.00 281.82 40.00 279.08 C 42.44 278.83 45.71 279.48 47.25 277.03 C 48.98 274.39 48.85 271.07 49.00 268.05 C 48.97 255.89 49.07 243.73 48.94 231.58 C 47.05 231.53 45.16 231.51 43.27 231.50 C 43.25 228.94 43.24 226.38 43.20 223.83 Z" />
<path fill="#ab0708" opacity="1.00" d=" M 106.75 223.76 C 115.33 223.74 123.91 223.76 132.50 223.75 C 132.50 226.35 132.50 228.94 132.50 231.54 C 130.69 231.50 128.88 231.46 127.08 231.41 C 126.37 239.26 126.92 247.16 126.75 255.04 C 126.96 257.72 126.50 261.24 129.15 262.91 C 131.83 264.20 135.29 264.38 137.92 262.89 C 139.97 261.72 140.27 259.14 140.26 257.00 C 140.27 248.53 140.19 240.05 140.28 231.58 C 138.35 231.53 136.42 231.49 134.50 231.47 C 134.50 228.89 134.50 226.32 134.51 223.75 C 141.50 223.76 148.50 223.75 155.50 223.75 C 155.50 226.32 155.50 228.90 155.50 231.48 C 153.54 231.50 151.59 231.53 149.63 231.59 C 149.32 240.70 149.63 249.83 149.48 258.95 C 149.34 263.70 146.71 268.40 142.44 270.63 C 137.70 273.13 132.12 273.15 126.92 272.57 C 122.12 272.01 117.08 269.82 114.65 265.43 C 112.73 262.34 112.48 258.60 112.48 255.06 C 112.49 247.24 112.52 239.41 112.47 231.59 C 110.56 231.53 108.65 231.49 106.75 231.47 C 106.75 228.89 106.75 226.32 106.75 223.76 Z" />
<path fill="#ab0708" opacity="1.00" d=" M 193.99 223.75 C 202.60 223.81 211.21 223.61 219.82 223.86 C 219.76 226.42 219.74 228.98 219.71 231.55 C 217.88 231.51 216.05 231.48 214.22 231.45 C 213.75 242.41 214.08 253.40 214.05 264.38 C 215.93 264.45 217.82 264.48 219.71 264.50 C 219.75 267.07 219.76 269.64 219.78 272.21 C 211.19 272.30 202.59 272.23 193.99 272.25 C 193.98 269.63 194.00 267.01 194.11 264.40 C 195.89 264.46 197.66 264.51 199.44 264.56 C 200.01 253.55 199.83 242.47 199.53 231.45 C 197.71 231.49 195.91 231.53 194.10 231.59 C 194.00 228.98 193.98 226.36 193.99 223.75 Z" />
<path fill="#ab0708" opacity="1.00" d=" M 261.24 223.78 C 273.76 223.74 286.28 223.72 298.79 223.79 C 298.58 226.38 299.37 229.32 297.74 231.57 C 290.94 242.36 284.21 253.17 277.46 263.99 C 281.37 263.79 285.49 264.59 289.27 263.37 C 291.51 261.28 290.74 257.77 291.29 255.02 C 294.29 255.00 297.29 254.99 300.30 255.00 C 299.81 260.77 300.38 266.60 299.55 272.34 C 286.28 272.13 273.01 272.31 259.73 272.25 C 259.90 269.71 259.12 266.84 260.77 264.64 C 267.54 253.77 274.30 242.90 281.06 232.02 C 278.00 232.03 274.93 231.85 271.88 232.10 C 269.38 234.15 270.48 238.07 269.81 240.92 C 266.88 241.01 263.94 241.01 261.00 241.00 C 260.83 235.26 261.32 229.52 261.24 223.78 Z" />
<path fill="#ab0708" opacity="1.00" d=" M 345.35 260.55 C 349.85 248.28 354.38 236.03 358.89 223.77 C 362.85 223.74 366.81 223.72 370.77 223.81 C 375.25 236.70 379.78 249.57 384.47 262.39 C 384.97 265.06 387.92 264.40 389.90 264.49 C 390.00 267.08 390.01 269.66 390.01 272.25 C 381.67 272.25 373.33 272.25 364.99 272.25 C 364.98 269.64 364.99 267.03 365.12 264.43 C 366.82 264.45 368.52 264.46 370.24 264.47 C 369.55 262.23 368.81 260.01 368.09 257.79 C 364.23 257.73 360.37 257.79 356.51 257.67 C 355.59 259.87 354.90 262.15 354.38 264.48 C 356.15 264.49 357.94 264.49 359.72 264.48 C 359.74 267.04 359.76 269.59 359.81 272.15 C 352.96 272.38 346.11 272.18 339.27 272.26 C 339.24 269.71 339.24 267.15 339.25 264.60 C 340.56 264.58 341.87 264.47 343.18 264.30 C 344.38 263.41 344.74 261.84 345.35 260.55 M 359.24 249.55 C 361.24 249.51 363.25 249.49 365.26 249.46 C 364.32 246.58 363.45 243.67 362.50 240.79 C 361.14 243.60 360.23 246.59 359.24 249.55 Z" />
<path fill="#ab0708" opacity="1.00" d=" M 427.51 223.74 C 435.67 223.80 443.83 223.68 452.00 223.79 C 458.94 223.98 466.21 226.76 470.22 232.70 C 474.68 239.50 475.03 248.32 472.99 256.00 C 471.28 262.55 466.41 268.22 460.00 270.53 C 456.51 271.91 452.73 272.26 449.01 272.26 C 441.84 272.25 434.67 272.25 427.50 272.25 C 427.49 269.66 427.49 267.06 427.50 264.47 C 429.27 264.50 431.05 264.53 432.84 264.57 C 433.64 259.42 433.10 254.20 433.25 249.01 C 433.12 243.15 433.54 237.27 432.97 231.43 C 431.14 231.47 429.32 231.50 427.50 231.54 C 427.49 228.94 427.49 226.34 427.51 223.74 M 447.52 231.84 C 447.52 242.55 447.41 253.26 447.58 263.96 C 451.67 264.11 455.82 262.00 457.26 258.01 C 459.71 251.50 459.87 243.94 457.49 237.39 C 455.94 233.35 451.49 231.93 447.52 231.84 Z" />
<path fill="#ab0708" opacity="1.00" d=" M 660.75 223.77 C 673.63 223.70 686.52 223.82 699.40 223.70 C 699.51 229.05 699.87 234.40 699.75 239.75 C 696.87 239.75 694.00 239.75 691.13 239.80 C 690.81 237.24 690.51 234.67 690.02 232.14 C 686.97 231.99 683.91 231.86 680.87 232.09 C 680.57 235.61 680.82 239.17 680.73 242.71 C 685.65 242.79 690.57 242.74 695.50 242.75 C 695.50 245.58 695.50 248.42 695.50 251.25 C 690.62 251.24 685.74 251.29 680.86 251.20 C 680.67 255.46 680.76 259.73 680.76 263.99 C 684.45 264.01 688.14 264.07 691.84 263.85 C 692.45 261.33 692.94 258.79 693.36 256.23 C 696.22 256.26 699.10 256.25 701.98 256.22 C 701.54 261.50 701.88 266.85 701.17 272.10 C 687.71 272.47 674.22 272.14 660.75 272.25 C 660.74 269.66 660.74 267.07 660.74 264.48 C 662.51 264.50 664.30 264.53 666.08 264.58 C 666.99 253.64 666.32 242.60 666.43 231.63 C 664.53 231.54 662.63 231.49 660.74 231.45 C 660.74 228.89 660.74 226.33 660.75 223.77 Z" />
<path fill="#ab0708" opacity="1.00" d=" M 818.01 223.75 C 825.35 223.75 832.69 223.75 840.04 223.74 C 845.35 223.78 851.13 225.14 854.85 229.20 C 860.38 235.73 859.11 247.10 851.78 251.81 C 847.88 254.62 843.00 255.16 838.35 255.53 C 837.54 258.34 838.17 261.49 838.01 264.42 C 840.29 264.49 842.58 264.49 844.87 264.42 C 845.00 267.03 845.01 269.64 845.01 272.25 C 836.01 272.25 827.00 272.25 818.00 272.25 C 818.00 269.67 817.99 267.10 817.98 264.53 C 819.79 264.52 821.60 264.50 823.44 264.51 C 824.14 253.59 823.55 242.62 823.75 231.69 C 821.81 231.56 819.89 231.48 817.96 231.41 C 817.99 228.86 818.00 226.30 818.01 223.75 M 838.02 231.77 C 837.98 237.01 837.98 242.25 838.03 247.49 C 844.16 246.96 843.72 239.46 842.82 235.03 C 842.41 232.69 840.02 232.04 838.02 231.77 Z" />
<path fill="#ab0708" opacity="1.00" d=" M 897.75 223.75 C 910.64 223.72 923.52 223.81 936.41 223.71 C 936.50 229.06 936.87 234.40 936.76 239.75 C 933.87 239.75 931.00 239.75 928.13 239.79 C 927.81 237.22 927.51 234.66 927.00 232.12 C 923.88 231.94 920.75 231.93 917.65 232.16 C 917.79 235.67 917.78 239.18 917.71 242.69 C 922.63 242.81 927.56 242.74 932.49 242.75 C 932.50 245.58 932.50 248.41 932.50 251.25 C 927.61 251.24 922.72 251.29 917.84 251.21 C 917.69 255.47 917.76 259.73 917.76 264.00 C 921.43 264.01 925.11 264.05 928.80 263.88 C 929.45 261.36 929.95 258.81 930.34 256.24 C 933.21 256.25 936.09 256.25 938.97 256.22 C 938.67 261.32 938.67 266.45 938.36 271.56 C 938.10 271.72 937.58 272.05 937.31 272.21 C 924.13 272.32 910.94 272.22 897.75 272.25 C 897.74 269.67 897.74 267.11 897.74 264.54 C 899.55 264.38 901.56 264.89 903.28 264.12 C 903.76 253.31 903.43 242.45 903.43 231.62 C 901.53 231.54 899.62 231.49 897.74 231.45 C 897.74 228.88 897.74 226.32 897.75 223.75 Z" />
<path fill="#ab0708" opacity="1.00" d=" M 1060.20 223.82 C 1068.80 223.67 1077.40 223.79 1086.01 223.75 C 1086.02 226.38 1086.00 229.01 1085.85 231.64 C 1084.06 231.55 1082.26 231.47 1080.50 231.39 C 1079.98 241.90 1080.33 252.45 1080.30 262.98 C 1080.32 265.75 1084.13 264.05 1085.88 264.43 C 1085.99 267.03 1086.01 269.64 1086.01 272.25 C 1077.40 272.20 1068.80 272.36 1060.20 272.17 C 1060.23 269.59 1060.24 267.02 1060.29 264.45 C 1062.07 264.49 1063.84 264.52 1065.65 264.56 C 1066.41 253.61 1065.85 242.59 1065.94 231.61 C 1064.04 231.55 1062.15 231.50 1060.28 231.49 C 1060.24 228.93 1060.23 226.37 1060.20 223.82 Z" />
<path fill="#ab0708" opacity="1.00" d=" M 1143.35 224.09 C 1147.17 223.27 1151.25 223.96 1155.18 223.77 C 1159.48 235.85 1163.76 247.93 1168.04 260.01 C 1168.55 261.42 1169.06 262.88 1169.93 264.13 C 1171.39 264.58 1172.97 264.47 1174.52 264.59 C 1174.51 267.16 1174.50 269.73 1174.41 272.30 C 1166.13 272.21 1157.85 272.24 1149.57 272.28 C 1149.48 269.69 1149.47 267.09 1149.49 264.50 C 1151.21 264.50 1152.93 264.49 1154.68 264.48 C 1153.77 262.34 1153.79 259.41 1152.04 257.84 C 1148.31 257.59 1144.58 257.82 1140.86 257.76 C 1140.06 259.97 1139.34 262.22 1139.02 264.55 C 1140.76 264.53 1142.50 264.51 1144.26 264.49 C 1144.24 267.07 1144.24 269.66 1144.24 272.25 C 1137.41 272.25 1130.58 272.25 1123.76 272.25 C 1123.74 269.71 1123.74 267.17 1123.74 264.63 C 1125.43 264.29 1128.12 265.10 1128.82 262.90 C 1133.97 250.09 1138.32 236.95 1143.35 224.09 M 1146.73 240.90 C 1145.69 243.75 1144.73 246.62 1143.71 249.47 C 1145.71 249.50 1147.71 249.51 1149.73 249.55 C 1148.87 246.62 1148.07 243.66 1146.73 240.90 Z" />
<path fill="#ab0708" opacity="1.00" d=" M 1212.22 223.80 C 1220.81 223.69 1229.41 223.78 1238.01 223.75 C 1238.01 226.34 1237.99 228.94 1237.90 231.54 C 1235.98 231.52 1234.08 231.56 1232.20 231.67 C 1232.30 242.43 1232.25 253.20 1232.23 263.96 C 1235.71 263.90 1239.27 264.35 1242.72 263.66 C 1245.02 261.04 1244.51 257.15 1245.82 254.06 C 1248.36 253.91 1250.92 254.00 1253.49 254.00 C 1253.17 260.06 1253.03 266.14 1252.91 272.22 C 1239.34 272.26 1225.77 272.32 1212.21 272.18 C 1212.23 269.61 1212.24 267.03 1212.27 264.46 C 1214.05 264.49 1215.82 264.52 1217.62 264.57 C 1218.42 253.60 1217.88 242.56 1217.90 231.57 C 1216.01 231.53 1214.13 231.51 1212.27 231.50 C 1212.24 228.93 1212.23 226.36 1212.22 223.80 Z" />
<path fill="#ab0708" opacity="1.00" d=" M 252.47 473.50 C 254.41 471.50 257.89 471.11 259.99 473.09 C 265.04 478.00 269.82 483.23 275.02 487.99 C 278.28 488.64 281.65 488.22 284.95 488.36 C 522.11 490.32 759.27 491.61 996.42 493.50 C 996.36 497.16 996.38 500.83 996.33 504.50 C 755.99 502.57 515.64 501.33 275.30 499.26 C 270.03 504.04 265.32 509.40 260.05 514.18 C 257.88 516.33 254.13 516.16 252.10 513.88 C 246.93 508.39 241.41 503.22 236.23 497.75 C 233.86 495.49 233.87 491.52 236.35 489.37 C 241.84 484.20 247.00 478.69 252.47 473.50 Z" />
</g>
</svg>
